<svg width="85" height="70" viewBox="0 0 85 70" fill="none" xmlns="http://www.w3.org/2000/svg">
<path d="M40.88 5.236H28.064V11.284H38.18V15.28H28.064V25H23.096V1.24H40.88V5.236Z" fill="black"/>
<path d="M63.436 18.448C62.98 19.984 62.26 21.268 61.276 22.3C60.292 23.332 59.128 24.1 57.784 24.604C56.44 25.108 54.964 25.36 53.356 25.36C51.004 25.36 48.964 24.868 47.236 23.884C45.532 22.9 44.212 21.496 43.276 19.672C42.364 17.848 41.908 15.664 41.908 13.12C41.908 10.576 42.364 8.392 43.276 6.568C44.212 4.744 45.532 3.34 47.236 2.356C48.964 1.372 50.98 0.879999 53.284 0.879999C54.916 0.879999 56.392 1.108 57.712 1.564C59.032 1.996 60.148 2.668 61.06 3.58C61.996 4.492 62.68 5.644 63.112 7.036L58.612 8.944C58.204 7.504 57.58 6.484 56.74 5.884C55.9 5.26 54.82 4.948 53.5 4.948C52.204 4.948 51.064 5.26 50.08 5.884C49.12 6.508 48.376 7.432 47.848 8.656C47.32 9.856 47.056 11.344 47.056 13.12C47.056 14.872 47.296 16.36 47.776 17.584C48.28 18.808 49.012 19.732 49.972 20.356C50.932 20.98 52.108 21.292 53.5 21.292C54.796 21.292 55.912 20.944 56.848 20.248C57.808 19.552 58.48 18.496 58.864 17.08L63.436 18.448Z" fill="black"/>
<path d="M31.354 32.752C31.338 32.924 31.326 33.09 31.318 33.25C31.314 33.41 31.312 33.532 31.312 33.616C31.312 33.708 31.314 33.794 31.318 33.874C31.322 33.954 31.326 34.024 31.33 34.084H31.192C31.148 33.784 31.088 33.548 31.012 33.376C30.936 33.2 30.834 33.076 30.706 33.004C30.578 32.928 30.408 32.89 30.196 32.89H29.938C29.818 32.89 29.726 32.9 29.662 32.92C29.598 32.94 29.554 32.982 29.53 33.046C29.51 33.11 29.5 33.208 29.5 33.34V36.34C29.5 36.492 29.516 36.606 29.548 36.682C29.58 36.758 29.642 36.808 29.734 36.832C29.826 36.856 29.958 36.87 30.13 36.874V37C30.014 36.992 29.864 36.988 29.68 36.988C29.496 36.984 29.306 36.982 29.11 36.982C28.942 36.982 28.78 36.984 28.624 36.988C28.468 36.988 28.332 36.992 28.216 37V36.88C28.348 36.872 28.446 36.856 28.51 36.832C28.578 36.808 28.622 36.76 28.642 36.688C28.666 36.616 28.678 36.508 28.678 36.364V33.388C28.678 33.24 28.666 33.132 28.642 33.064C28.622 32.992 28.578 32.944 28.51 32.92C28.446 32.892 28.348 32.876 28.216 32.872V32.752C28.376 32.756 28.544 32.76 28.72 32.764C28.9 32.764 29.076 32.766 29.248 32.77C29.424 32.77 29.586 32.77 29.734 32.77C29.886 32.77 30.008 32.77 30.1 32.77C30.284 32.77 30.492 32.77 30.724 32.77C30.96 32.766 31.17 32.76 31.354 32.752ZM30.448 34.84C30.448 34.84 30.448 34.86 30.448 34.9C30.448 34.94 30.448 34.96 30.448 34.96H29.32C29.32 34.96 29.32 34.94 29.32 34.9C29.32 34.86 29.32 34.84 29.32 34.84H30.448ZM30.586 34.048C30.57 34.276 30.562 34.45 30.562 34.57C30.566 34.69 30.568 34.8 30.568 34.9C30.568 35 30.57 35.11 30.574 35.23C30.578 35.35 30.588 35.524 30.604 35.752H30.466C30.45 35.616 30.42 35.488 30.376 35.368C30.332 35.244 30.264 35.146 30.172 35.074C30.084 34.998 29.956 34.96 29.788 34.96V34.84C29.912 34.84 30.014 34.814 30.094 34.762C30.174 34.71 30.236 34.644 30.28 34.564C30.328 34.48 30.364 34.394 30.388 34.306C30.416 34.214 30.436 34.128 30.448 34.048H30.586ZM32.4998 32.368C32.6438 32.368 32.7618 32.408 32.8538 32.488C32.9458 32.568 32.9918 32.674 32.9918 32.806C32.9918 32.938 32.9458 33.044 32.8538 33.124C32.7618 33.204 32.6438 33.244 32.4998 33.244C32.3558 33.244 32.2378 33.204 32.1458 33.124C32.0538 33.044 32.0078 32.938 32.0078 32.806C32.0078 32.674 32.0538 32.568 32.1458 32.488C32.2378 32.408 32.3558 32.368 32.4998 32.368ZM32.9198 33.832V36.442C32.9198 36.61 32.9498 36.724 33.0098 36.784C33.0738 36.844 33.1798 36.874 33.3278 36.874V37C33.2558 36.996 33.1458 36.992 32.9978 36.988C32.8498 36.98 32.6998 36.976 32.5478 36.976C32.3998 36.976 32.2498 36.98 32.0978 36.988C31.9458 36.992 31.8318 36.996 31.7558 37V36.874C31.9038 36.874 32.0078 36.844 32.0678 36.784C32.1318 36.724 32.1638 36.61 32.1638 36.442V34.558C32.1638 34.374 32.1338 34.24 32.0738 34.156C32.0178 34.068 31.9118 34.024 31.7558 34.024V33.898C31.8838 33.91 32.0078 33.916 32.1278 33.916C32.2758 33.916 32.4158 33.91 32.5478 33.898C32.6838 33.882 32.8078 33.86 32.9198 33.832ZM35.8455 33.814C36.0135 33.814 36.1475 33.836 36.2475 33.88C36.3515 33.924 36.4355 33.98 36.4995 34.048C36.5715 34.124 36.6215 34.222 36.6495 34.342C36.6815 34.462 36.6975 34.624 36.6975 34.828V36.442C36.6975 36.61 36.7275 36.724 36.7875 36.784C36.8515 36.844 36.9575 36.874 37.1055 36.874V37C37.0335 36.996 36.9215 36.992 36.7695 36.988C36.6215 36.98 36.4775 36.976 36.3375 36.976C36.1895 36.976 36.0455 36.98 35.9055 36.988C35.7655 36.992 35.6615 36.996 35.5935 37V36.874C35.7215 36.874 35.8115 36.844 35.8635 36.784C35.9155 36.724 35.9415 36.61 35.9415 36.442V34.624C35.9415 34.516 35.9315 34.42 35.9115 34.336C35.8915 34.248 35.8515 34.18 35.7915 34.132C35.7315 34.08 35.6455 34.054 35.5335 34.054C35.4015 34.054 35.2835 34.09 35.1795 34.162C35.0795 34.234 34.9995 34.334 34.9395 34.462C34.8835 34.586 34.8555 34.726 34.8555 34.882V36.442C34.8555 36.61 34.8815 36.724 34.9335 36.784C34.9855 36.844 35.0755 36.874 35.2035 36.874V37C35.1355 36.996 35.0335 36.992 34.8975 36.988C34.7615 36.98 34.6235 36.976 34.4835 36.976C34.3355 36.976 34.1855 36.98 34.0335 36.988C33.8815 36.992 33.7675 36.996 33.6915 37V36.874C33.8395 36.874 33.9435 36.844 34.0035 36.784C34.0675 36.724 34.0995 36.61 34.0995 36.442V34.552C34.0995 34.372 34.0695 34.24 34.0095 34.156C33.9535 34.068 33.8475 34.024 33.6915 34.024V33.898C33.8195 33.91 33.9435 33.916 34.0635 33.916C34.2115 33.916 34.3515 33.91 34.4835 33.898C34.6195 33.882 34.7435 33.86 34.8555 33.832V34.432C34.9555 34.204 35.0935 34.044 35.2695 33.952C35.4455 33.86 35.6375 33.814 35.8455 33.814ZM38.9439 33.814C39.2959 33.814 39.5719 33.92 39.7719 34.132C39.9719 34.344 40.0719 34.682 40.0719 35.146H38.0499L38.0439 35.032H39.3759C39.3839 34.836 39.3719 34.656 39.3399 34.492C39.3079 34.324 39.2559 34.19 39.1839 34.09C39.1159 33.99 39.0259 33.94 38.9139 33.94C38.7619 33.94 38.6299 34.03 38.5179 34.21C38.4059 34.386 38.3359 34.676 38.3079 35.08L38.3319 35.116C38.3239 35.168 38.3179 35.224 38.3139 35.284C38.3139 35.344 38.3139 35.404 38.3139 35.464C38.3139 35.74 38.3539 35.968 38.4339 36.148C38.5139 36.328 38.6179 36.46 38.7459 36.544C38.8739 36.628 39.0059 36.67 39.1419 36.67C39.2339 36.67 39.3279 36.656 39.4239 36.628C39.5199 36.6 39.6139 36.548 39.7059 36.472C39.7979 36.396 39.8819 36.288 39.9579 36.148L40.0719 36.196C40.0279 36.336 39.9539 36.476 39.8499 36.616C39.7499 36.752 39.6199 36.864 39.4599 36.952C39.2999 37.04 39.1119 37.084 38.8959 37.084C38.6239 37.084 38.3839 37.024 38.1759 36.904C37.9679 36.784 37.8059 36.606 37.6899 36.37C37.5739 36.13 37.5159 35.838 37.5159 35.494C37.5159 35.13 37.5759 34.824 37.6959 34.576C37.8199 34.328 37.9899 34.14 38.2059 34.012C38.4219 33.88 38.6679 33.814 38.9439 33.814ZM44.2487 32.668C44.5127 32.668 44.7287 32.708 44.8967 32.788C45.0687 32.864 45.2207 32.954 45.3527 33.058C45.4327 33.118 45.4927 33.126 45.5327 33.082C45.5767 33.034 45.6067 32.924 45.6227 32.752H45.7607C45.7527 32.904 45.7467 33.09 45.7427 33.31C45.7387 33.53 45.7367 33.82 45.7367 34.18H45.5987C45.5747 34 45.5487 33.85 45.5207 33.73C45.4927 33.606 45.4527 33.5 45.4007 33.412C45.3527 33.324 45.2847 33.24 45.1967 33.16C45.0887 33.04 44.9587 32.952 44.8067 32.896C44.6587 32.836 44.5027 32.806 44.3387 32.806C44.1307 32.806 43.9487 32.862 43.7927 32.974C43.6407 33.082 43.5127 33.232 43.4087 33.424C43.3087 33.612 43.2327 33.832 43.1807 34.084C43.1327 34.336 43.1087 34.604 43.1087 34.888C43.1087 35.18 43.1347 35.452 43.1867 35.704C43.2427 35.952 43.3227 36.17 43.4267 36.358C43.5347 36.542 43.6667 36.686 43.8227 36.79C43.9827 36.894 44.1667 36.946 44.3747 36.946C44.5227 36.946 44.6747 36.918 44.8307 36.862C44.9867 36.806 45.1147 36.72 45.2147 36.604C45.3467 36.484 45.4367 36.342 45.4847 36.178C45.5327 36.01 45.5707 35.788 45.5987 35.512H45.7367C45.7367 35.888 45.7387 36.192 45.7427 36.424C45.7467 36.652 45.7527 36.844 45.7607 37H45.6227C45.6067 36.828 45.5787 36.72 45.5387 36.676C45.5027 36.632 45.4407 36.638 45.3527 36.694C45.2047 36.798 45.0467 36.89 44.8787 36.97C44.7147 37.046 44.5027 37.084 44.2427 37.084C43.8347 37.084 43.4767 36.998 43.1687 36.826C42.8607 36.654 42.6207 36.406 42.4487 36.082C42.2807 35.758 42.1967 35.368 42.1967 34.912C42.1967 34.464 42.2847 34.072 42.4607 33.736C42.6367 33.4 42.8787 33.138 43.1867 32.95C43.4947 32.762 43.8487 32.668 44.2487 32.668ZM48.3599 33.814C48.4839 33.814 48.5859 33.84 48.6659 33.892C48.7499 33.944 48.8119 34.01 48.8519 34.09C48.8919 34.17 48.9119 34.254 48.9119 34.342C48.9119 34.474 48.8719 34.584 48.7919 34.672C48.7159 34.76 48.6139 34.804 48.4859 34.804C48.3659 34.804 48.2679 34.772 48.1919 34.708C48.1159 34.644 48.0779 34.556 48.0779 34.444C48.0779 34.344 48.1019 34.26 48.1499 34.192C48.2019 34.124 48.2599 34.07 48.3239 34.03C48.2799 34.006 48.2299 33.998 48.1739 34.006C48.0779 34.014 47.9899 34.048 47.9099 34.108C47.8299 34.168 47.7619 34.242 47.7059 34.33C47.6499 34.418 47.6059 34.512 47.5739 34.612C47.5459 34.712 47.5319 34.808 47.5319 34.9V36.382C47.5319 36.578 47.5819 36.71 47.6819 36.778C47.7819 36.842 47.9279 36.874 48.1199 36.874V37C48.0279 36.996 47.8939 36.992 47.7179 36.988C47.5459 36.98 47.3659 36.976 47.1779 36.976C47.0219 36.976 46.8659 36.98 46.7099 36.988C46.5579 36.992 46.4439 36.996 46.3679 37V36.874C46.5159 36.874 46.6199 36.844 46.6799 36.784C46.7439 36.724 46.7759 36.61 46.7759 36.442V34.552C46.7759 34.372 46.7459 34.24 46.6859 34.156C46.6299 34.068 46.5239 34.024 46.3679 34.024V33.898C46.4959 33.91 46.6199 33.916 46.7399 33.916C46.8879 33.916 47.0279 33.91 47.1599 33.898C47.2959 33.882 47.4199 33.86 47.5319 33.832V34.456C47.5799 34.344 47.6419 34.24 47.7179 34.144C47.7979 34.048 47.8919 33.97 47.9999 33.91C48.1119 33.846 48.2319 33.814 48.3599 33.814ZM50.0458 37.042C49.8738 37.042 49.7278 37.01 49.6078 36.946C49.4878 36.878 49.3978 36.788 49.3378 36.676C49.2778 36.56 49.2478 36.432 49.2478 36.292C49.2478 36.12 49.2878 35.98 49.3678 35.872C49.4478 35.76 49.5498 35.672 49.6738 35.608C49.8018 35.54 49.9358 35.484 50.0758 35.44C50.2158 35.392 50.3478 35.348 50.4718 35.308C50.5958 35.264 50.6978 35.214 50.7778 35.158C50.8578 35.102 50.8978 35.028 50.8978 34.936V34.498C50.8978 34.37 50.8778 34.266 50.8378 34.186C50.8018 34.102 50.7458 34.04 50.6698 34C50.5978 33.956 50.5058 33.934 50.3938 33.934C50.3098 33.934 50.2218 33.946 50.1298 33.97C50.0378 33.994 49.9618 34.04 49.9018 34.108C50.0058 34.136 50.0858 34.188 50.1418 34.264C50.2018 34.34 50.2318 34.432 50.2318 34.54C50.2318 34.664 50.1898 34.762 50.1058 34.834C50.0258 34.902 49.9238 34.936 49.7998 34.936C49.6678 34.936 49.5678 34.894 49.4998 34.81C49.4318 34.726 49.3978 34.628 49.3978 34.516C49.3978 34.404 49.4258 34.312 49.4818 34.24C49.5378 34.164 49.6158 34.096 49.7158 34.036C49.8158 33.968 49.9438 33.914 50.0998 33.874C50.2558 33.834 50.4258 33.814 50.6098 33.814C50.7858 33.814 50.9418 33.834 51.0778 33.874C51.2138 33.91 51.3298 33.976 51.4258 34.072C51.5218 34.164 51.5838 34.278 51.6118 34.414C51.6398 34.55 51.6538 34.716 51.6538 34.912V36.556C51.6538 36.656 51.6658 36.728 51.6898 36.772C51.7138 36.812 51.7518 36.832 51.8038 36.832C51.8438 36.832 51.8818 36.822 51.9178 36.802C51.9538 36.782 51.9938 36.754 52.0378 36.718L52.1038 36.82C52.0158 36.888 51.9238 36.942 51.8278 36.982C51.7318 37.022 51.6158 37.042 51.4798 37.042C51.3398 37.042 51.2278 37.022 51.1438 36.982C51.0638 36.942 51.0038 36.884 50.9638 36.808C50.9278 36.732 50.9078 36.642 50.9038 36.538C50.8078 36.698 50.6898 36.822 50.5498 36.91C50.4098 36.998 50.2418 37.042 50.0458 37.042ZM50.4058 36.706C50.5018 36.706 50.5898 36.68 50.6698 36.628C50.7538 36.576 50.8298 36.498 50.8978 36.394V35.182C50.8578 35.242 50.7998 35.296 50.7238 35.344C50.6518 35.392 50.5738 35.44 50.4898 35.488C50.4058 35.536 50.3258 35.592 50.2498 35.656C50.1778 35.716 50.1158 35.792 50.0638 35.884C50.0158 35.972 49.9918 36.086 49.9918 36.226C49.9918 36.382 50.0298 36.502 50.1058 36.586C50.1818 36.666 50.2818 36.706 50.4058 36.706ZM53.9142 32.308C54.0462 32.308 54.1602 32.326 54.2562 32.362C54.3562 32.394 54.4422 32.438 54.5142 32.494C54.5742 32.542 54.6222 32.602 54.6582 32.674C54.6982 32.746 54.7182 32.826 54.7182 32.914C54.7182 33.022 54.6802 33.114 54.6042 33.19C54.5322 33.266 54.4402 33.304 54.3282 33.304C54.2082 33.304 54.1082 33.27 54.0282 33.202C53.9522 33.13 53.9142 33.032 53.9142 32.908C53.9142 32.812 53.9402 32.73 53.9922 32.662C54.0482 32.59 54.1262 32.54 54.2262 32.512C54.2142 32.484 54.1882 32.46 54.1482 32.44C54.1082 32.42 54.0542 32.41 53.9862 32.41C53.9062 32.41 53.8362 32.426 53.7762 32.458C53.7202 32.49 53.6742 32.534 53.6382 32.59C53.5982 32.658 53.5702 32.758 53.5542 32.89C53.5382 33.022 53.5302 33.222 53.5302 33.49V33.904H54.1722V34.024H53.5302V36.382C53.5302 36.578 53.5822 36.71 53.6862 36.778C53.7942 36.842 53.9382 36.874 54.1182 36.874V37C54.0182 36.996 53.8782 36.992 53.6982 36.988C53.5182 36.98 53.3262 36.976 53.1222 36.976C52.9782 36.976 52.8342 36.98 52.6902 36.988C52.5462 36.992 52.4382 36.996 52.3662 37V36.874C52.5142 36.874 52.6182 36.844 52.6782 36.784C52.7422 36.724 52.7742 36.61 52.7742 36.442V34.024H52.3422V33.904H52.7742C52.7742 33.668 52.7862 33.472 52.8102 33.316C52.8342 33.156 52.8702 33.02 52.9182 32.908C52.9702 32.796 53.0402 32.696 53.1282 32.608C53.2122 32.52 53.3222 32.448 53.4582 32.392C53.5982 32.336 53.7502 32.308 53.9142 32.308ZM55.6586 32.914V33.904H56.4266V34.024H55.6586V36.412C55.6586 36.556 55.6846 36.658 55.7366 36.718C55.7886 36.778 55.8626 36.808 55.9586 36.808C56.0506 36.808 56.1346 36.774 56.2106 36.706C56.2866 36.634 56.3546 36.516 56.4146 36.352L56.5226 36.4C56.4626 36.596 56.3686 36.76 56.2406 36.892C56.1166 37.02 55.9406 37.084 55.7126 37.084C55.5766 37.084 55.4606 37.066 55.3646 37.03C55.2726 36.998 55.1926 36.95 55.1246 36.886C55.0366 36.794 54.9766 36.684 54.9446 36.556C54.9166 36.428 54.9026 36.258 54.9026 36.046V34.024H54.3746V33.904H54.9026V33.07C55.0466 33.066 55.1806 33.052 55.3046 33.028C55.4286 33.004 55.5466 32.966 55.6586 32.914Z" fill="black"/>
<path d="M21.662 39.368V39.482H21.272V44.972H21.662V45.086H20.516V39.368H21.662ZM26.8563 39.752C26.8403 39.924 26.8283 40.09 26.8203 40.25C26.8163 40.41 26.8143 40.532 26.8143 40.616C26.8143 40.708 26.8163 40.794 26.8203 40.874C26.8243 40.954 26.8283 41.024 26.8323 41.084H26.6943C26.6503 40.784 26.5903 40.548 26.5143 40.376C26.4383 40.2 26.3363 40.076 26.2083 40.004C26.0803 39.928 25.9103 39.89 25.6983 39.89H25.4403C25.3203 39.89 25.2283 39.9 25.1643 39.92C25.1003 39.94 25.0563 39.982 25.0323 40.046C25.0123 40.11 25.0023 40.208 25.0023 40.34V43.34C25.0023 43.492 25.0183 43.606 25.0503 43.682C25.0823 43.758 25.1443 43.808 25.2363 43.832C25.3283 43.856 25.4603 43.87 25.6323 43.874V44C25.5163 43.992 25.3663 43.988 25.1823 43.988C24.9983 43.984 24.8083 43.982 24.6123 43.982C24.4443 43.982 24.2823 43.984 24.1263 43.988C23.9703 43.988 23.8343 43.992 23.7183 44V43.88C23.8503 43.872 23.9483 43.856 24.0123 43.832C24.0803 43.808 24.1243 43.76 24.1443 43.688C24.1683 43.616 24.1803 43.508 24.1803 43.364V40.388C24.1803 40.24 24.1683 40.132 24.1443 40.064C24.1243 39.992 24.0803 39.944 24.0123 39.92C23.9483 39.892 23.8503 39.876 23.7183 39.872V39.752C23.8783 39.756 24.0463 39.76 24.2223 39.764C24.4023 39.764 24.5783 39.766 24.7503 39.77C24.9263 39.77 25.0883 39.77 25.2363 39.77C25.3883 39.77 25.5103 39.77 25.6023 39.77C25.7863 39.77 25.9943 39.77 26.2263 39.77C26.4623 39.766 26.6723 39.76 26.8563 39.752ZM25.9503 41.84C25.9503 41.84 25.9503 41.86 25.9503 41.9C25.9503 41.94 25.9503 41.96 25.9503 41.96H24.8223C24.8223 41.96 24.8223 41.94 24.8223 41.9C24.8223 41.86 24.8223 41.84 24.8223 41.84H25.9503ZM26.0883 41.048C26.0723 41.276 26.0643 41.45 26.0643 41.57C26.0683 41.69 26.0703 41.8 26.0703 41.9C26.0703 42 26.0723 42.11 26.0763 42.23C26.0803 42.35 26.0903 42.524 26.1063 42.752H25.9683C25.9523 42.616 25.9223 42.488 25.8783 42.368C25.8343 42.244 25.7663 42.146 25.6743 42.074C25.5863 41.998 25.4583 41.96 25.2903 41.96V41.84C25.4143 41.84 25.5163 41.814 25.5963 41.762C25.6763 41.71 25.7383 41.644 25.7823 41.564C25.8303 41.48 25.8663 41.394 25.8903 41.306C25.9183 41.214 25.9383 41.128 25.9503 41.048H26.0883ZM28.002 39.368C28.146 39.368 28.264 39.408 28.356 39.488C28.448 39.568 28.494 39.674 28.494 39.806C28.494 39.938 28.448 40.044 28.356 40.124C28.264 40.204 28.146 40.244 28.002 40.244C27.858 40.244 27.74 40.204 27.648 40.124C27.556 40.044 27.51 39.938 27.51 39.806C27.51 39.674 27.556 39.568 27.648 39.488C27.74 39.408 27.858 39.368 28.002 39.368ZM28.422 40.832V43.442C28.422 43.61 28.452 43.724 28.512 43.784C28.576 43.844 28.682 43.874 28.83 43.874V44C28.758 43.996 28.648 43.992 28.5 43.988C28.352 43.98 28.202 43.976 28.05 43.976C27.902 43.976 27.752 43.98 27.6 43.988C27.448 43.992 27.334 43.996 27.258 44V43.874C27.406 43.874 27.51 43.844 27.57 43.784C27.634 43.724 27.666 43.61 27.666 43.442V41.558C27.666 41.374 27.636 41.24 27.576 41.156C27.52 41.068 27.414 41.024 27.258 41.024V40.898C27.386 40.91 27.51 40.916 27.63 40.916C27.778 40.916 27.918 40.91 28.05 40.898C28.186 40.882 28.31 40.86 28.422 40.832ZM31.3477 40.814C31.5157 40.814 31.6497 40.836 31.7497 40.88C31.8537 40.924 31.9377 40.98 32.0017 41.048C32.0737 41.124 32.1237 41.222 32.1517 41.342C32.1837 41.462 32.1997 41.624 32.1997 41.828V43.442C32.1997 43.61 32.2297 43.724 32.2897 43.784C32.3537 43.844 32.4597 43.874 32.6077 43.874V44C32.5357 43.996 32.4237 43.992 32.2717 43.988C32.1237 43.98 31.9797 43.976 31.8397 43.976C31.6917 43.976 31.5477 43.98 31.4077 43.988C31.2677 43.992 31.1637 43.996 31.0957 44V43.874C31.2237 43.874 31.3137 43.844 31.3657 43.784C31.4177 43.724 31.4437 43.61 31.4437 43.442V41.624C31.4437 41.516 31.4337 41.42 31.4137 41.336C31.3937 41.248 31.3537 41.18 31.2937 41.132C31.2337 41.08 31.1477 41.054 31.0357 41.054C30.9037 41.054 30.7857 41.09 30.6817 41.162C30.5817 41.234 30.5017 41.334 30.4417 41.462C30.3857 41.586 30.3577 41.726 30.3577 41.882V43.442C30.3577 43.61 30.3837 43.724 30.4357 43.784C30.4877 43.844 30.5777 43.874 30.7057 43.874V44C30.6377 43.996 30.5357 43.992 30.3997 43.988C30.2637 43.98 30.1257 43.976 29.9857 43.976C29.8377 43.976 29.6877 43.98 29.5357 43.988C29.3837 43.992 29.2697 43.996 29.1937 44V43.874C29.3417 43.874 29.4457 43.844 29.5057 43.784C29.5697 43.724 29.6017 43.61 29.6017 43.442V41.552C29.6017 41.372 29.5717 41.24 29.5117 41.156C29.4557 41.068 29.3497 41.024 29.1937 41.024V40.898C29.3217 40.91 29.4457 40.916 29.5657 40.916C29.7137 40.916 29.8537 40.91 29.9857 40.898C30.1217 40.882 30.2457 40.86 30.3577 40.832V41.432C30.4577 41.204 30.5957 41.044 30.7717 40.952C30.9477 40.86 31.1397 40.814 31.3477 40.814ZM34.4461 40.814C34.7981 40.814 35.0741 40.92 35.2741 41.132C35.4741 41.344 35.5741 41.682 35.5741 42.146H33.5521L33.5461 42.032H34.8781C34.8861 41.836 34.8741 41.656 34.8421 41.492C34.8101 41.324 34.7581 41.19 34.6861 41.09C34.6181 40.99 34.5281 40.94 34.4161 40.94C34.2641 40.94 34.1321 41.03 34.0201 41.21C33.9081 41.386 33.8381 41.676 33.8101 42.08L33.8341 42.116C33.8261 42.168 33.8201 42.224 33.8161 42.284C33.8161 42.344 33.8161 42.404 33.8161 42.464C33.8161 42.74 33.8561 42.968 33.9361 43.148C34.0161 43.328 34.1201 43.46 34.2481 43.544C34.3761 43.628 34.5081 43.67 34.6441 43.67C34.7361 43.67 34.8301 43.656 34.9261 43.628C35.0221 43.6 35.1161 43.548 35.2081 43.472C35.3001 43.396 35.3841 43.288 35.4601 43.148L35.5741 43.196C35.5301 43.336 35.4561 43.476 35.3521 43.616C35.2521 43.752 35.1221 43.864 34.9621 43.952C34.8021 44.04 34.6141 44.084 34.3981 44.084C34.1261 44.084 33.8861 44.024 33.6781 43.904C33.4701 43.784 33.3081 43.606 33.1921 43.37C33.0761 43.13 33.0181 42.838 33.0181 42.494C33.0181 42.13 33.0781 41.824 33.1981 41.576C33.3221 41.328 33.4921 41.14 33.7081 41.012C33.9241 40.88 34.1701 40.814 34.4461 40.814ZM37.639 39.368H38.785V45.086H37.639V44.972H38.029V39.482H37.639V39.368ZM41.0617 39.368V39.482H40.6717V44.972H41.0617V45.086H39.9157V39.368H41.0617ZM45.23 39.668C45.494 39.668 45.71 39.708 45.878 39.788C46.05 39.864 46.202 39.954 46.334 40.058C46.414 40.118 46.474 40.126 46.514 40.082C46.558 40.034 46.588 39.924 46.604 39.752H46.742C46.734 39.904 46.728 40.09 46.724 40.31C46.72 40.53 46.718 40.82 46.718 41.18H46.58C46.556 41 46.53 40.85 46.502 40.73C46.474 40.606 46.434 40.5 46.382 40.412C46.334 40.324 46.266 40.24 46.178 40.16C46.07 40.04 45.94 39.952 45.788 39.896C45.64 39.836 45.484 39.806 45.32 39.806C45.112 39.806 44.93 39.862 44.774 39.974C44.622 40.082 44.494 40.232 44.39 40.424C44.29 40.612 44.214 40.832 44.162 41.084C44.114 41.336 44.09 41.604 44.09 41.888C44.09 42.18 44.116 42.452 44.168 42.704C44.224 42.952 44.304 43.17 44.408 43.358C44.516 43.542 44.648 43.686 44.804 43.79C44.964 43.894 45.148 43.946 45.356 43.946C45.504 43.946 45.656 43.918 45.812 43.862C45.968 43.806 46.096 43.72 46.196 43.604C46.328 43.484 46.418 43.342 46.466 43.178C46.514 43.01 46.552 42.788 46.58 42.512H46.718C46.718 42.888 46.72 43.192 46.724 43.424C46.728 43.652 46.734 43.844 46.742 44H46.604C46.588 43.828 46.56 43.72 46.52 43.676C46.484 43.632 46.422 43.638 46.334 43.694C46.186 43.798 46.028 43.89 45.86 43.97C45.696 44.046 45.484 44.084 45.224 44.084C44.816 44.084 44.458 43.998 44.15 43.826C43.842 43.654 43.602 43.406 43.43 43.082C43.262 42.758 43.178 42.368 43.178 41.912C43.178 41.464 43.266 41.072 43.442 40.736C43.618 40.4 43.86 40.138 44.168 39.95C44.476 39.762 44.83 39.668 45.23 39.668ZM49.3411 40.814C49.4651 40.814 49.5671 40.84 49.6471 40.892C49.7311 40.944 49.7931 41.01 49.8331 41.09C49.8731 41.17 49.8931 41.254 49.8931 41.342C49.8931 41.474 49.8531 41.584 49.7731 41.672C49.6971 41.76 49.5951 41.804 49.4671 41.804C49.3471 41.804 49.2491 41.772 49.1731 41.708C49.0971 41.644 49.0591 41.556 49.0591 41.444C49.0591 41.344 49.0831 41.26 49.1311 41.192C49.1831 41.124 49.2411 41.07 49.3051 41.03C49.2611 41.006 49.2111 40.998 49.1551 41.006C49.0591 41.014 48.9711 41.048 48.8911 41.108C48.8111 41.168 48.7431 41.242 48.6871 41.33C48.6311 41.418 48.5871 41.512 48.5551 41.612C48.5271 41.712 48.5131 41.808 48.5131 41.9V43.382C48.5131 43.578 48.5631 43.71 48.6631 43.778C48.7631 43.842 48.9091 43.874 49.1011 43.874V44C49.0091 43.996 48.8751 43.992 48.6991 43.988C48.5271 43.98 48.3471 43.976 48.1591 43.976C48.0031 43.976 47.8471 43.98 47.6911 43.988C47.5391 43.992 47.4251 43.996 47.3491 44V43.874C47.4971 43.874 47.6011 43.844 47.6611 43.784C47.7251 43.724 47.7571 43.61 47.7571 43.442V41.552C47.7571 41.372 47.7271 41.24 47.6671 41.156C47.6111 41.068 47.5051 41.024 47.3491 41.024V40.898C47.4771 40.91 47.6011 40.916 47.7211 40.916C47.8691 40.916 48.0091 40.91 48.1411 40.898C48.2771 40.882 48.4011 40.86 48.5131 40.832V41.456C48.5611 41.344 48.6231 41.24 48.6991 41.144C48.7791 41.048 48.8731 40.97 48.9811 40.91C49.0931 40.846 49.2131 40.814 49.3411 40.814ZM51.027 44.042C50.855 44.042 50.709 44.01 50.589 43.946C50.469 43.878 50.379 43.788 50.319 43.676C50.259 43.56 50.229 43.432 50.229 43.292C50.229 43.12 50.269 42.98 50.349 42.872C50.429 42.76 50.531 42.672 50.655 42.608C50.783 42.54 50.917 42.484 51.057 42.44C51.197 42.392 51.329 42.348 51.453 42.308C51.577 42.264 51.679 42.214 51.759 42.158C51.839 42.102 51.879 42.028 51.879 41.936V41.498C51.879 41.37 51.859 41.266 51.819 41.186C51.783 41.102 51.727 41.04 51.651 41C51.579 40.956 51.487 40.934 51.375 40.934C51.291 40.934 51.203 40.946 51.111 40.97C51.019 40.994 50.943 41.04 50.883 41.108C50.987 41.136 51.067 41.188 51.123 41.264C51.183 41.34 51.213 41.432 51.213 41.54C51.213 41.664 51.171 41.762 51.087 41.834C51.007 41.902 50.905 41.936 50.781 41.936C50.649 41.936 50.549 41.894 50.481 41.81C50.413 41.726 50.379 41.628 50.379 41.516C50.379 41.404 50.407 41.312 50.463 41.24C50.519 41.164 50.597 41.096 50.697 41.036C50.797 40.968 50.925 40.914 51.081 40.874C51.237 40.834 51.407 40.814 51.591 40.814C51.767 40.814 51.923 40.834 52.059 40.874C52.195 40.91 52.311 40.976 52.407 41.072C52.503 41.164 52.565 41.278 52.593 41.414C52.621 41.55 52.635 41.716 52.635 41.912V43.556C52.635 43.656 52.647 43.728 52.671 43.772C52.695 43.812 52.733 43.832 52.785 43.832C52.825 43.832 52.863 43.822 52.899 43.802C52.935 43.782 52.975 43.754 53.019 43.718L53.085 43.82C52.997 43.888 52.905 43.942 52.809 43.982C52.713 44.022 52.597 44.042 52.461 44.042C52.321 44.042 52.209 44.022 52.125 43.982C52.045 43.942 51.985 43.884 51.945 43.808C51.909 43.732 51.889 43.642 51.885 43.538C51.789 43.698 51.671 43.822 51.531 43.91C51.391 43.998 51.223 44.042 51.027 44.042ZM51.387 43.706C51.483 43.706 51.571 43.68 51.651 43.628C51.735 43.576 51.811 43.498 51.879 43.394V42.182C51.839 42.242 51.781 42.296 51.705 42.344C51.633 42.392 51.555 42.44 51.471 42.488C51.387 42.536 51.307 42.592 51.231 42.656C51.159 42.716 51.097 42.792 51.045 42.884C50.997 42.972 50.973 43.086 50.973 43.226C50.973 43.382 51.011 43.502 51.087 43.586C51.163 43.666 51.263 43.706 51.387 43.706ZM54.4695 39.302V41.426C54.5695 41.202 54.7075 41.044 54.8835 40.952C55.0635 40.86 55.2575 40.814 55.4655 40.814C55.6295 40.814 55.7635 40.836 55.8675 40.88C55.9715 40.924 56.0555 40.98 56.1195 41.048C56.1875 41.124 56.2355 41.222 56.2635 41.342C56.2955 41.462 56.3115 41.624 56.3115 41.828V43.442C56.3115 43.61 56.3415 43.724 56.4015 43.784C56.4655 43.844 56.5715 43.874 56.7195 43.874V44C56.6475 43.996 56.5375 43.992 56.3895 43.988C56.2415 43.98 56.0955 43.976 55.9515 43.976C55.8075 43.976 55.6655 43.98 55.5255 43.988C55.3855 43.992 55.2795 43.996 55.2075 44V43.874C55.3355 43.874 55.4255 43.844 55.4775 43.784C55.5295 43.724 55.5555 43.61 55.5555 43.442V41.624C55.5555 41.516 55.5455 41.42 55.5255 41.336C55.5055 41.248 55.4655 41.18 55.4055 41.132C55.3495 41.08 55.2635 41.054 55.1475 41.054C55.0195 41.054 54.9035 41.09 54.7995 41.162C54.6995 41.23 54.6195 41.328 54.5595 41.456C54.4995 41.58 54.4695 41.722 54.4695 41.882V43.442C54.4695 43.61 54.4955 43.724 54.5475 43.784C54.6035 43.844 54.6935 43.874 54.8175 43.874V44C54.7495 43.996 54.6475 43.992 54.5115 43.988C54.3795 43.98 54.2415 43.976 54.0975 43.976C53.9535 43.976 53.8035 43.98 53.6475 43.988C53.4955 43.992 53.3815 43.996 53.3055 44V43.874C53.4535 43.874 53.5575 43.844 53.6175 43.784C53.6815 43.724 53.7135 43.61 53.7135 43.442V40.022C53.7135 39.842 53.6835 39.71 53.6235 39.626C53.5675 39.538 53.4615 39.494 53.3055 39.494V39.368C53.4335 39.38 53.5575 39.386 53.6775 39.386C53.8295 39.386 53.9715 39.38 54.1035 39.368C54.2355 39.352 54.3575 39.33 54.4695 39.302ZM58.5949 39.308C58.7269 39.308 58.8409 39.326 58.9369 39.362C59.0369 39.394 59.1229 39.438 59.1949 39.494C59.2549 39.542 59.3029 39.602 59.3389 39.674C59.3789 39.746 59.3989 39.826 59.3989 39.914C59.3989 40.022 59.3609 40.114 59.2849 40.19C59.2129 40.266 59.1209 40.304 59.0089 40.304C58.8889 40.304 58.7889 40.27 58.7089 40.202C58.6329 40.13 58.5949 40.032 58.5949 39.908C58.5949 39.812 58.6209 39.73 58.6729 39.662C58.7289 39.59 58.8069 39.54 58.9069 39.512C58.8949 39.484 58.8689 39.46 58.8289 39.44C58.7889 39.42 58.7349 39.41 58.6669 39.41C58.5869 39.41 58.5169 39.426 58.4569 39.458C58.4009 39.49 58.3549 39.534 58.3189 39.59C58.2789 39.658 58.2509 39.758 58.2349 39.89C58.2189 40.022 58.2109 40.222 58.2109 40.49V40.904H58.8529V41.024H58.2109V43.382C58.2109 43.578 58.2629 43.71 58.3669 43.778C58.4749 43.842 58.6189 43.874 58.7989 43.874V44C58.6989 43.996 58.5589 43.992 58.3789 43.988C58.1989 43.98 58.0069 43.976 57.8029 43.976C57.6589 43.976 57.5149 43.98 57.3709 43.988C57.2269 43.992 57.1189 43.996 57.0469 44V43.874C57.1949 43.874 57.2989 43.844 57.3589 43.784C57.4229 43.724 57.4549 43.61 57.4549 43.442V41.024H57.0229V40.904H57.4549C57.4549 40.668 57.4669 40.472 57.4909 40.316C57.5149 40.156 57.5509 40.02 57.5989 39.908C57.6509 39.796 57.7209 39.696 57.8089 39.608C57.8929 39.52 58.0029 39.448 58.1389 39.392C58.2789 39.336 58.4309 39.308 58.5949 39.308ZM60.3392 39.914V40.904H61.1072V41.024H60.3392V43.412C60.3392 43.556 60.3652 43.658 60.4172 43.718C60.4692 43.778 60.5432 43.808 60.6392 43.808C60.7312 43.808 60.8152 43.774 60.8912 43.706C60.9672 43.634 61.0352 43.516 61.0952 43.352L61.2032 43.4C61.1432 43.596 61.0492 43.76 60.9212 43.892C60.7972 44.02 60.6212 44.084 60.3932 44.084C60.2572 44.084 60.1412 44.066 60.0452 44.03C59.9532 43.998 59.8732 43.95 59.8052 43.886C59.7172 43.794 59.6572 43.684 59.6252 43.556C59.5972 43.428 59.5832 43.258 59.5832 43.046V41.024H59.0552V40.904H59.5832V40.07C59.7272 40.066 59.8612 40.052 59.9852 40.028C60.1092 40.004 60.2272 39.966 60.3392 39.914ZM62.9315 39.368H64.0775V45.086H62.9315V44.972H63.3215V39.482H62.9315V39.368Z" fill="black"/>
<path d="M3.354 55.752C3.338 55.924 3.326 56.09 3.318 56.25C3.314 56.41 3.312 56.532 3.312 56.616C3.312 56.708 3.314 56.794 3.318 56.874C3.322 56.954 3.326 57.024 3.33 57.084H3.192C3.148 56.784 3.088 56.548 3.012 56.376C2.936 56.2 2.834 56.076 2.706 56.004C2.578 55.928 2.408 55.89 2.196 55.89H1.938C1.818 55.89 1.726 55.9 1.662 55.92C1.598 55.94 1.554 55.982 1.53 56.046C1.51 56.11 1.5 56.208 1.5 56.34V59.34C1.5 59.492 1.516 59.606 1.548 59.682C1.58 59.758 1.642 59.808 1.734 59.832C1.826 59.856 1.958 59.87 2.13 59.874V60C2.014 59.992 1.864 59.988 1.68 59.988C1.496 59.984 1.306 59.982 1.11 59.982C0.942 59.982 0.78 59.984 0.624 59.988C0.468 59.988 0.332 59.992 0.216 60V59.88C0.348 59.872 0.446 59.856 0.51 59.832C0.578 59.808 0.622 59.76 0.642 59.688C0.666 59.616 0.678 59.508 0.678 59.364V56.388C0.678 56.24 0.666 56.132 0.642 56.064C0.622 55.992 0.578 55.944 0.51 55.92C0.446 55.892 0.348 55.876 0.216 55.872V55.752C0.376 55.756 0.544 55.76 0.72 55.764C0.9 55.764 1.076 55.766 1.248 55.77C1.424 55.77 1.586 55.77 1.734 55.77C1.886 55.77 2.008 55.77 2.1 55.77C2.284 55.77 2.492 55.77 2.724 55.77C2.96 55.766 3.17 55.76 3.354 55.752ZM2.448 57.84C2.448 57.84 2.448 57.86 2.448 57.9C2.448 57.94 2.448 57.96 2.448 57.96H1.32C1.32 57.96 1.32 57.94 1.32 57.9C1.32 57.86 1.32 57.84 1.32 57.84H2.448ZM2.586 57.048C2.57 57.276 2.562 57.45 2.562 57.57C2.566 57.69 2.568 57.8 2.568 57.9C2.568 58 2.57 58.11 2.574 58.23C2.578 58.35 2.588 58.524 2.604 58.752H2.466C2.45 58.616 2.42 58.488 2.376 58.368C2.332 58.244 2.264 58.146 2.172 58.074C2.084 57.998 1.956 57.96 1.788 57.96V57.84C1.912 57.84 2.014 57.814 2.094 57.762C2.174 57.71 2.236 57.644 2.28 57.564C2.328 57.48 2.364 57.394 2.388 57.306C2.416 57.214 2.436 57.128 2.448 57.048H2.586ZM4.49977 55.368C4.64377 55.368 4.76177 55.408 4.85377 55.488C4.94577 55.568 4.99177 55.674 4.99177 55.806C4.99177 55.938 4.94577 56.044 4.85377 56.124C4.76177 56.204 4.64377 56.244 4.49977 56.244C4.35577 56.244 4.23777 56.204 4.14577 56.124C4.05377 56.044 4.00777 55.938 4.00777 55.806C4.00777 55.674 4.05377 55.568 4.14577 55.488C4.23777 55.408 4.35577 55.368 4.49977 55.368ZM4.91977 56.832V59.442C4.91977 59.61 4.94977 59.724 5.00977 59.784C5.07377 59.844 5.17977 59.874 5.32777 59.874V60C5.25577 59.996 5.14577 59.992 4.99777 59.988C4.84977 59.98 4.69977 59.976 4.54777 59.976C4.39977 59.976 4.24977 59.98 4.09777 59.988C3.94577 59.992 3.83177 59.996 3.75577 60V59.874C3.90377 59.874 4.00777 59.844 4.06777 59.784C4.13177 59.724 4.16377 59.61 4.16377 59.442V57.558C4.16377 57.374 4.13377 57.24 4.07377 57.156C4.01777 57.068 3.91177 57.024 3.75577 57.024V56.898C3.88377 56.91 4.00777 56.916 4.12777 56.916C4.27577 56.916 4.41577 56.91 4.54777 56.898C4.68377 56.882 4.80777 56.86 4.91977 56.832ZM7.84547 56.814C8.01347 56.814 8.14747 56.836 8.24747 56.88C8.35147 56.924 8.43547 56.98 8.49947 57.048C8.57147 57.124 8.62147 57.222 8.64947 57.342C8.68147 57.462 8.69747 57.624 8.69747 57.828V59.442C8.69747 59.61 8.72747 59.724 8.78747 59.784C8.85147 59.844 8.95747 59.874 9.10547 59.874V60C9.03347 59.996 8.92147 59.992 8.76947 59.988C8.62147 59.98 8.47747 59.976 8.33747 59.976C8.18947 59.976 8.04547 59.98 7.90547 59.988C7.76547 59.992 7.66147 59.996 7.59347 60V59.874C7.72147 59.874 7.81147 59.844 7.86347 59.784C7.91547 59.724 7.94147 59.61 7.94147 59.442V57.624C7.94147 57.516 7.93147 57.42 7.91147 57.336C7.89147 57.248 7.85147 57.18 7.79147 57.132C7.73147 57.08 7.64547 57.054 7.53347 57.054C7.40147 57.054 7.28347 57.09 7.17947 57.162C7.07947 57.234 6.99947 57.334 6.93947 57.462C6.88347 57.586 6.85547 57.726 6.85547 57.882V59.442C6.85547 59.61 6.88147 59.724 6.93347 59.784C6.98547 59.844 7.07547 59.874 7.20347 59.874V60C7.13547 59.996 7.03347 59.992 6.89747 59.988C6.76147 59.98 6.62347 59.976 6.48347 59.976C6.33547 59.976 6.18547 59.98 6.03347 59.988C5.88147 59.992 5.76747 59.996 5.69147 60V59.874C5.83947 59.874 5.94347 59.844 6.00347 59.784C6.06747 59.724 6.09947 59.61 6.09947 59.442V57.552C6.09947 57.372 6.06947 57.24 6.00947 57.156C5.95347 57.068 5.84747 57.024 5.69147 57.024V56.898C5.81947 56.91 5.94347 56.916 6.06347 56.916C6.21147 56.916 6.35147 56.91 6.48347 56.898C6.61947 56.882 6.74347 56.86 6.85547 56.832V57.432C6.95547 57.204 7.09347 57.044 7.26947 56.952C7.44547 56.86 7.63747 56.814 7.84547 56.814ZM10.9439 56.814C11.2959 56.814 11.5719 56.92 11.7719 57.132C11.9719 57.344 12.0719 57.682 12.0719 58.146H10.0499L10.0439 58.032H11.3759C11.3839 57.836 11.3719 57.656 11.3399 57.492C11.3079 57.324 11.2559 57.19 11.1839 57.09C11.1159 56.99 11.0259 56.94 10.9139 56.94C10.7619 56.94 10.6299 57.03 10.5179 57.21C10.4059 57.386 10.3359 57.676 10.3079 58.08L10.3319 58.116C10.3239 58.168 10.3179 58.224 10.3139 58.284C10.3139 58.344 10.3139 58.404 10.3139 58.464C10.3139 58.74 10.3539 58.968 10.4339 59.148C10.5139 59.328 10.6179 59.46 10.7459 59.544C10.8739 59.628 11.0059 59.67 11.1419 59.67C11.2339 59.67 11.3279 59.656 11.4239 59.628C11.5199 59.6 11.6139 59.548 11.7059 59.472C11.7979 59.396 11.8819 59.288 11.9579 59.148L12.0719 59.196C12.0279 59.336 11.9539 59.476 11.8499 59.616C11.7499 59.752 11.6199 59.864 11.4599 59.952C11.2999 60.04 11.1119 60.084 10.8959 60.084C10.6239 60.084 10.3839 60.024 10.1759 59.904C9.96786 59.784 9.80586 59.606 9.68986 59.37C9.57386 59.13 9.51586 58.838 9.51586 58.494C9.51586 58.13 9.57586 57.824 9.69586 57.576C9.81986 57.328 9.98986 57.14 10.2059 57.012C10.4219 56.88 10.6679 56.814 10.9439 56.814ZM16.2487 55.668C16.5127 55.668 16.7287 55.708 16.8967 55.788C17.0687 55.864 17.2207 55.954 17.3527 56.058C17.4327 56.118 17.4927 56.126 17.5327 56.082C17.5767 56.034 17.6067 55.924 17.6227 55.752H17.7607C17.7527 55.904 17.7467 56.09 17.7427 56.31C17.7387 56.53 17.7367 56.82 17.7367 57.18H17.5987C17.5747 57 17.5487 56.85 17.5207 56.73C17.4927 56.606 17.4527 56.5 17.4007 56.412C17.3527 56.324 17.2847 56.24 17.1967 56.16C17.0887 56.04 16.9587 55.952 16.8067 55.896C16.6587 55.836 16.5027 55.806 16.3387 55.806C16.1307 55.806 15.9487 55.862 15.7927 55.974C15.6407 56.082 15.5127 56.232 15.4087 56.424C15.3087 56.612 15.2327 56.832 15.1807 57.084C15.1327 57.336 15.1087 57.604 15.1087 57.888C15.1087 58.18 15.1347 58.452 15.1867 58.704C15.2427 58.952 15.3227 59.17 15.4267 59.358C15.5347 59.542 15.6667 59.686 15.8227 59.79C15.9827 59.894 16.1667 59.946 16.3747 59.946C16.5227 59.946 16.6747 59.918 16.8307 59.862C16.9867 59.806 17.1147 59.72 17.2147 59.604C17.3467 59.484 17.4367 59.342 17.4847 59.178C17.5327 59.01 17.5707 58.788 17.5987 58.512H17.7367C17.7367 58.888 17.7387 59.192 17.7427 59.424C17.7467 59.652 17.7527 59.844 17.7607 60H17.6227C17.6067 59.828 17.5787 59.72 17.5387 59.676C17.5027 59.632 17.4407 59.638 17.3527 59.694C17.2047 59.798 17.0467 59.89 16.8787 59.97C16.7147 60.046 16.5027 60.084 16.2427 60.084C15.8347 60.084 15.4767 59.998 15.1687 59.826C14.8607 59.654 14.6207 59.406 14.4487 59.082C14.2807 58.758 14.1967 58.368 14.1967 57.912C14.1967 57.464 14.2847 57.072 14.4607 56.736C14.6367 56.4 14.8787 56.138 15.1867 55.95C15.4947 55.762 15.8487 55.668 16.2487 55.668ZM20.3599 56.814C20.4839 56.814 20.5859 56.84 20.6659 56.892C20.7499 56.944 20.8119 57.01 20.8519 57.09C20.8919 57.17 20.9119 57.254 20.9119 57.342C20.9119 57.474 20.8719 57.584 20.7919 57.672C20.7159 57.76 20.6139 57.804 20.4859 57.804C20.3659 57.804 20.2679 57.772 20.1919 57.708C20.1159 57.644 20.0779 57.556 20.0779 57.444C20.0779 57.344 20.1019 57.26 20.1499 57.192C20.2019 57.124 20.2599 57.07 20.3239 57.03C20.2799 57.006 20.2299 56.998 20.1739 57.006C20.0779 57.014 19.9899 57.048 19.9099 57.108C19.8299 57.168 19.7619 57.242 19.7059 57.33C19.6499 57.418 19.6059 57.512 19.5739 57.612C19.5459 57.712 19.5319 57.808 19.5319 57.9V59.382C19.5319 59.578 19.5819 59.71 19.6819 59.778C19.7819 59.842 19.9279 59.874 20.1199 59.874V60C20.0279 59.996 19.8939 59.992 19.7179 59.988C19.5459 59.98 19.3659 59.976 19.1779 59.976C19.0219 59.976 18.8659 59.98 18.7099 59.988C18.5579 59.992 18.4439 59.996 18.3679 60V59.874C18.5159 59.874 18.6199 59.844 18.6799 59.784C18.7439 59.724 18.7759 59.61 18.7759 59.442V57.552C18.7759 57.372 18.7459 57.24 18.6859 57.156C18.6299 57.068 18.5239 57.024 18.3679 57.024V56.898C18.4959 56.91 18.6199 56.916 18.7399 56.916C18.8879 56.916 19.0279 56.91 19.1599 56.898C19.2959 56.882 19.4199 56.86 19.5319 56.832V57.456C19.5799 57.344 19.6419 57.24 19.7179 57.144C19.7979 57.048 19.8919 56.97 19.9999 56.91C20.1119 56.846 20.2319 56.814 20.3599 56.814ZM22.0458 60.042C21.8738 60.042 21.7278 60.01 21.6078 59.946C21.4878 59.878 21.3978 59.788 21.3378 59.676C21.2778 59.56 21.2478 59.432 21.2478 59.292C21.2478 59.12 21.2878 58.98 21.3678 58.872C21.4478 58.76 21.5498 58.672 21.6738 58.608C21.8018 58.54 21.9358 58.484 22.0758 58.44C22.2158 58.392 22.3478 58.348 22.4718 58.308C22.5958 58.264 22.6978 58.214 22.7778 58.158C22.8578 58.102 22.8978 58.028 22.8978 57.936V57.498C22.8978 57.37 22.8778 57.266 22.8378 57.186C22.8018 57.102 22.7458 57.04 22.6698 57C22.5978 56.956 22.5058 56.934 22.3938 56.934C22.3098 56.934 22.2218 56.946 22.1298 56.97C22.0378 56.994 21.9618 57.04 21.9018 57.108C22.0058 57.136 22.0858 57.188 22.1418 57.264C22.2018 57.34 22.2318 57.432 22.2318 57.54C22.2318 57.664 22.1898 57.762 22.1058 57.834C22.0258 57.902 21.9238 57.936 21.7998 57.936C21.6678 57.936 21.5678 57.894 21.4998 57.81C21.4318 57.726 21.3978 57.628 21.3978 57.516C21.3978 57.404 21.4258 57.312 21.4818 57.24C21.5378 57.164 21.6158 57.096 21.7158 57.036C21.8158 56.968 21.9438 56.914 22.0998 56.874C22.2558 56.834 22.4258 56.814 22.6098 56.814C22.7858 56.814 22.9418 56.834 23.0778 56.874C23.2138 56.91 23.3298 56.976 23.4258 57.072C23.5218 57.164 23.5838 57.278 23.6118 57.414C23.6398 57.55 23.6538 57.716 23.6538 57.912V59.556C23.6538 59.656 23.6658 59.728 23.6898 59.772C23.7138 59.812 23.7518 59.832 23.8038 59.832C23.8438 59.832 23.8818 59.822 23.9178 59.802C23.9538 59.782 23.9938 59.754 24.0378 59.718L24.1038 59.82C24.0158 59.888 23.9238 59.942 23.8278 59.982C23.7318 60.022 23.6158 60.042 23.4798 60.042C23.3398 60.042 23.2278 60.022 23.1438 59.982C23.0638 59.942 23.0038 59.884 22.9638 59.808C22.9278 59.732 22.9078 59.642 22.9038 59.538C22.8078 59.698 22.6898 59.822 22.5498 59.91C22.4098 59.998 22.2418 60.042 22.0458 60.042ZM22.4058 59.706C22.5018 59.706 22.5898 59.68 22.6698 59.628C22.7538 59.576 22.8298 59.498 22.8978 59.394V58.182C22.8578 58.242 22.7998 58.296 22.7238 58.344C22.6518 58.392 22.5738 58.44 22.4898 58.488C22.4058 58.536 22.3258 58.592 22.2498 58.656C22.1778 58.716 22.1158 58.792 22.0638 58.884C22.0158 58.972 21.9918 59.086 21.9918 59.226C21.9918 59.382 22.0298 59.502 22.1058 59.586C22.1818 59.666 22.2818 59.706 22.4058 59.706ZM25.9142 55.308C26.0462 55.308 26.1602 55.326 26.2562 55.362C26.3562 55.394 26.4422 55.438 26.5142 55.494C26.5742 55.542 26.6222 55.602 26.6582 55.674C26.6982 55.746 26.7182 55.826 26.7182 55.914C26.7182 56.022 26.6802 56.114 26.6042 56.19C26.5322 56.266 26.4402 56.304 26.3282 56.304C26.2082 56.304 26.1082 56.27 26.0282 56.202C25.9522 56.13 25.9142 56.032 25.9142 55.908C25.9142 55.812 25.9402 55.73 25.9922 55.662C26.0482 55.59 26.1262 55.54 26.2262 55.512C26.2142 55.484 26.1882 55.46 26.1482 55.44C26.1082 55.42 26.0542 55.41 25.9862 55.41C25.9062 55.41 25.8362 55.426 25.7762 55.458C25.7202 55.49 25.6742 55.534 25.6382 55.59C25.5982 55.658 25.5702 55.758 25.5542 55.89C25.5382 56.022 25.5302 56.222 25.5302 56.49V56.904H26.1722V57.024H25.5302V59.382C25.5302 59.578 25.5822 59.71 25.6862 59.778C25.7942 59.842 25.9382 59.874 26.1182 59.874V60C26.0182 59.996 25.8782 59.992 25.6982 59.988C25.5182 59.98 25.3262 59.976 25.1222 59.976C24.9782 59.976 24.8342 59.98 24.6902 59.988C24.5462 59.992 24.4382 59.996 24.3662 60V59.874C24.5142 59.874 24.6182 59.844 24.6782 59.784C24.7422 59.724 24.7742 59.61 24.7742 59.442V57.024H24.3422V56.904H24.7742C24.7742 56.668 24.7862 56.472 24.8102 56.316C24.8342 56.156 24.8702 56.02 24.9182 55.908C24.9702 55.796 25.0402 55.696 25.1282 55.608C25.2122 55.52 25.3222 55.448 25.4582 55.392C25.5982 55.336 25.7502 55.308 25.9142 55.308ZM27.6586 55.914V56.904H28.4266V57.024H27.6586V59.412C27.6586 59.556 27.6846 59.658 27.7366 59.718C27.7886 59.778 27.8626 59.808 27.9586 59.808C28.0506 59.808 28.1346 59.774 28.2106 59.706C28.2866 59.634 28.3546 59.516 28.4146 59.352L28.5226 59.4C28.4626 59.596 28.3686 59.76 28.2406 59.892C28.1166 60.02 27.9406 60.084 27.7126 60.084C27.5766 60.084 27.4606 60.066 27.3646 60.03C27.2726 59.998 27.1926 59.95 27.1246 59.886C27.0366 59.794 26.9766 59.684 26.9446 59.556C26.9166 59.428 26.9026 59.258 26.9026 59.046V57.024H26.3746V56.904H26.9026V56.07C27.0466 56.066 27.1806 56.052 27.3046 56.028C27.4286 56.004 27.5466 55.966 27.6586 55.914ZM32.3029 56.814C32.4589 56.814 32.5889 56.836 32.6929 56.88C32.8009 56.924 32.8849 56.98 32.9449 57.048C33.0169 57.124 33.0669 57.226 33.0949 57.354C33.1229 57.478 33.1369 57.636 33.1369 57.828V59.442C33.1369 59.61 33.1649 59.724 33.2209 59.784C33.2809 59.844 33.3809 59.874 33.5209 59.874V60C33.4489 59.996 33.3409 59.992 33.1969 59.988C33.0529 59.98 32.9129 59.976 32.7769 59.976C32.6329 59.976 32.4929 59.98 32.3569 59.988C32.2249 59.992 32.1249 59.996 32.0569 60V59.874C32.1729 59.874 32.2549 59.844 32.3029 59.784C32.3549 59.724 32.3809 59.61 32.3809 59.442V57.624C32.3809 57.516 32.3729 57.42 32.3569 57.336C32.3409 57.248 32.3069 57.18 32.2549 57.132C32.2029 57.08 32.1229 57.054 32.0149 57.054C31.8909 57.054 31.7789 57.09 31.6789 57.162C31.5789 57.234 31.4989 57.334 31.4389 57.462C31.3829 57.586 31.3549 57.726 31.3549 57.882V59.442C31.3549 59.61 31.3789 59.724 31.4269 59.784C31.4749 59.844 31.5589 59.874 31.6789 59.874V60C31.6109 59.996 31.5109 59.992 31.3789 59.988C31.2509 59.98 31.1189 59.976 30.9829 59.976C30.8349 59.976 30.6849 59.98 30.5329 59.988C30.3809 59.992 30.2669 59.996 30.1909 60V59.874C30.3389 59.874 30.4429 59.844 30.5029 59.784C30.5669 59.724 30.5989 59.61 30.5989 59.442V57.552C30.5989 57.372 30.5689 57.24 30.5089 57.156C30.4529 57.068 30.3469 57.024 30.1909 57.024V56.898C30.3189 56.91 30.4429 56.916 30.5629 56.916C30.7109 56.916 30.8509 56.91 30.9829 56.898C31.1189 56.882 31.2429 56.86 31.3549 56.832V57.432C31.4549 57.212 31.5889 57.054 31.7569 56.958C31.9249 56.862 32.1069 56.814 32.3029 56.814ZM34.1089 56.814C34.2649 56.814 34.3949 56.836 34.4989 56.88C34.6069 56.924 34.6909 56.98 34.7509 57.048C34.8229 57.124 34.8729 57.226 34.9009 57.354C34.9289 57.478 34.9429 57.636 34.9429 57.828V59.442C34.9429 59.61 34.9729 59.724 35.0329 59.784C35.0969 59.844 35.2029 59.874 35.3509 59.874V60C35.2789 59.996 35.1669 59.992 35.0149 59.988C34.8669 59.98 34.7229 59.976 34.5829 59.976C34.4389 59.976 34.2989 59.98 34.1629 59.988C34.0309 59.992 33.9309 59.996 33.8629 60V59.874C33.9789 59.874 34.0609 59.844 34.1089 59.784C34.1609 59.724 34.1869 59.61 34.1869 59.442V57.624C34.1869 57.516 34.1769 57.42 34.1569 57.336C34.1409 57.248 34.1049 57.18 34.0489 57.132C33.9929 57.08 33.9089 57.054 33.7969 57.054C33.6729 57.054 33.5609 57.092 33.4609 57.168C33.3609 57.244 33.2809 57.346 33.2209 57.474C33.1649 57.598 33.1349 57.738 33.1309 57.894L33.1009 57.462C33.2089 57.214 33.3529 57.044 33.5329 56.952C33.7129 56.86 33.9049 56.814 34.1089 56.814ZM37.1894 56.814C37.5414 56.814 37.8174 56.92 38.0174 57.132C38.2174 57.344 38.3174 57.682 38.3174 58.146H36.2954L36.2894 58.032H37.6214C37.6294 57.836 37.6174 57.656 37.5854 57.492C37.5534 57.324 37.5014 57.19 37.4294 57.09C37.3614 56.99 37.2714 56.94 37.1594 56.94C37.0074 56.94 36.8754 57.03 36.7634 57.21C36.6514 57.386 36.5814 57.676 36.5534 58.08L36.5774 58.116C36.5694 58.168 36.5634 58.224 36.5594 58.284C36.5594 58.344 36.5594 58.404 36.5594 58.464C36.5594 58.74 36.5994 58.968 36.6794 59.148C36.7594 59.328 36.8634 59.46 36.9914 59.544C37.1194 59.628 37.2514 59.67 37.3874 59.67C37.4794 59.67 37.5734 59.656 37.6694 59.628C37.7654 59.6 37.8594 59.548 37.9514 59.472C38.0434 59.396 38.1274 59.288 38.2034 59.148L38.3174 59.196C38.2734 59.336 38.1994 59.476 38.0954 59.616C37.9954 59.752 37.8654 59.864 37.7054 59.952C37.5454 60.04 37.3574 60.084 37.1414 60.084C36.8694 60.084 36.6294 60.024 36.4214 59.904C36.2134 59.784 36.0514 59.606 35.9354 59.37C35.8194 59.13 35.7614 58.838 35.7614 58.494C35.7614 58.13 35.8214 57.824 35.9414 57.576C36.0654 57.328 36.2354 57.14 36.4514 57.012C36.6674 56.88 36.9134 56.814 37.1894 56.814ZM39.6307 60.042C39.4587 60.042 39.3127 60.01 39.1927 59.946C39.0727 59.878 38.9827 59.788 38.9227 59.676C38.8627 59.56 38.8327 59.432 38.8327 59.292C38.8327 59.12 38.8727 58.98 38.9527 58.872C39.0327 58.76 39.1347 58.672 39.2587 58.608C39.3867 58.54 39.5207 58.484 39.6607 58.44C39.8007 58.392 39.9327 58.348 40.0567 58.308C40.1807 58.264 40.2827 58.214 40.3627 58.158C40.4427 58.102 40.4827 58.028 40.4827 57.936V57.498C40.4827 57.37 40.4627 57.266 40.4227 57.186C40.3867 57.102 40.3307 57.04 40.2547 57C40.1827 56.956 40.0907 56.934 39.9787 56.934C39.8947 56.934 39.8067 56.946 39.7147 56.97C39.6227 56.994 39.5467 57.04 39.4867 57.108C39.5907 57.136 39.6707 57.188 39.7267 57.264C39.7867 57.34 39.8167 57.432 39.8167 57.54C39.8167 57.664 39.7747 57.762 39.6907 57.834C39.6107 57.902 39.5087 57.936 39.3847 57.936C39.2527 57.936 39.1527 57.894 39.0847 57.81C39.0167 57.726 38.9827 57.628 38.9827 57.516C38.9827 57.404 39.0107 57.312 39.0667 57.24C39.1227 57.164 39.2007 57.096 39.3007 57.036C39.4007 56.968 39.5287 56.914 39.6847 56.874C39.8407 56.834 40.0107 56.814 40.1947 56.814C40.3707 56.814 40.5267 56.834 40.6627 56.874C40.7987 56.91 40.9147 56.976 41.0107 57.072C41.1067 57.164 41.1687 57.278 41.1967 57.414C41.2247 57.55 41.2387 57.716 41.2387 57.912V59.556C41.2387 59.656 41.2507 59.728 41.2747 59.772C41.2987 59.812 41.3367 59.832 41.3887 59.832C41.4287 59.832 41.4667 59.822 41.5027 59.802C41.5387 59.782 41.5787 59.754 41.6227 59.718L41.6887 59.82C41.6007 59.888 41.5087 59.942 41.4127 59.982C41.3167 60.022 41.2007 60.042 41.0647 60.042C40.9247 60.042 40.8127 60.022 40.7287 59.982C40.6487 59.942 40.5887 59.884 40.5487 59.808C40.5127 59.732 40.4927 59.642 40.4887 59.538C40.3927 59.698 40.2747 59.822 40.1347 59.91C39.9947 59.998 39.8267 60.042 39.6307 60.042ZM39.9907 59.706C40.0867 59.706 40.1747 59.68 40.2547 59.628C40.3387 59.576 40.4147 59.498 40.4827 59.394V58.182C40.4427 58.242 40.3847 58.296 40.3087 58.344C40.2367 58.392 40.1587 58.44 40.0747 58.488C39.9907 58.536 39.9107 58.592 39.8347 58.656C39.7627 58.716 39.7007 58.792 39.6487 58.884C39.6007 58.972 39.5767 59.086 39.5767 59.226C39.5767 59.382 39.6147 59.502 39.6907 59.586C39.7667 59.666 39.8667 59.706 39.9907 59.706ZM44.1052 56.814C44.2732 56.814 44.4072 56.836 44.5072 56.88C44.6112 56.924 44.6952 56.98 44.7592 57.048C44.8312 57.124 44.8812 57.222 44.9092 57.342C44.9412 57.462 44.9572 57.624 44.9572 57.828V59.442C44.9572 59.61 44.9872 59.724 45.0472 59.784C45.1112 59.844 45.2172 59.874 45.3652 59.874V60C45.2932 59.996 45.1812 59.992 45.0292 59.988C44.8812 59.98 44.7372 59.976 44.5972 59.976C44.4492 59.976 44.3052 59.98 44.1652 59.988C44.0252 59.992 43.9212 59.996 43.8532 60V59.874C43.9812 59.874 44.0712 59.844 44.1232 59.784C44.1752 59.724 44.2012 59.61 44.2012 59.442V57.624C44.2012 57.516 44.1912 57.42 44.1712 57.336C44.1512 57.248 44.1112 57.18 44.0512 57.132C43.9912 57.08 43.9052 57.054 43.7932 57.054C43.6612 57.054 43.5432 57.09 43.4392 57.162C43.3392 57.234 43.2592 57.334 43.1992 57.462C43.1432 57.586 43.1152 57.726 43.1152 57.882V59.442C43.1152 59.61 43.1412 59.724 43.1932 59.784C43.2452 59.844 43.3352 59.874 43.4632 59.874V60C43.3952 59.996 43.2932 59.992 43.1572 59.988C43.0212 59.98 42.8832 59.976 42.7432 59.976C42.5952 59.976 42.4452 59.98 42.2932 59.988C42.1412 59.992 42.0272 59.996 41.9512 60V59.874C42.0992 59.874 42.2032 59.844 42.2632 59.784C42.3272 59.724 42.3592 59.61 42.3592 59.442V57.552C42.3592 57.372 42.3292 57.24 42.2692 57.156C42.2132 57.068 42.1072 57.024 41.9512 57.024V56.898C42.0792 56.91 42.2032 56.916 42.3232 56.916C42.4712 56.916 42.6112 56.91 42.7432 56.898C42.8792 56.882 43.0032 56.86 43.1152 56.832V57.432C43.2152 57.204 43.3532 57.044 43.5292 56.952C43.7052 56.86 43.8972 56.814 44.1052 56.814ZM46.8375 56.814C47.0055 56.814 47.1495 56.838 47.2695 56.886C47.3895 56.934 47.4775 56.976 47.5335 57.012C47.6695 57.112 47.7515 57.048 47.7795 56.82H47.9115C47.9035 56.936 47.8975 57.074 47.8935 57.234C47.8895 57.39 47.8875 57.6 47.8875 57.864H47.7555C47.7355 57.716 47.6975 57.572 47.6415 57.432C47.5855 57.292 47.5035 57.176 47.3955 57.084C47.2875 56.988 47.1455 56.94 46.9695 56.94C46.8455 56.94 46.7415 56.976 46.6575 57.048C46.5775 57.12 46.5375 57.222 46.5375 57.354C46.5375 57.474 46.5735 57.58 46.6455 57.672C46.7175 57.76 46.8095 57.844 46.9215 57.924C47.0375 58 47.1575 58.084 47.2815 58.176C47.4255 58.272 47.5535 58.37 47.6655 58.47C47.7775 58.566 47.8675 58.674 47.9355 58.794C48.0035 58.91 48.0375 59.048 48.0375 59.208C48.0375 59.392 47.9855 59.55 47.8815 59.682C47.7815 59.81 47.6475 59.91 47.4795 59.982C47.3155 60.05 47.1335 60.084 46.9335 60.084C46.8255 60.084 46.7275 60.074 46.6395 60.054C46.5515 60.034 46.4735 60.008 46.4055 59.976C46.3535 59.948 46.3055 59.922 46.2615 59.898C46.2215 59.874 46.1795 59.854 46.1355 59.838C46.0955 59.818 46.0595 59.826 46.0275 59.862C45.9995 59.898 45.9775 59.958 45.9615 60.042H45.8295C45.8375 59.914 45.8435 59.758 45.8475 59.574C45.8515 59.39 45.8535 59.146 45.8535 58.842H45.9855C46.0135 59.062 46.0555 59.256 46.1115 59.424C46.1715 59.588 46.2575 59.718 46.3695 59.814C46.4815 59.906 46.6255 59.952 46.8015 59.952C46.8775 59.952 46.9495 59.936 47.0175 59.904C47.0895 59.872 47.1475 59.822 47.1915 59.754C47.2395 59.686 47.2635 59.594 47.2635 59.478C47.2635 59.302 47.2035 59.156 47.0835 59.04C46.9635 58.924 46.8135 58.8 46.6335 58.668C46.4975 58.568 46.3695 58.47 46.2495 58.374C46.1335 58.278 46.0375 58.17 45.9615 58.05C45.8895 57.93 45.8535 57.788 45.8535 57.624C45.8535 57.444 45.8995 57.296 45.9915 57.18C46.0835 57.06 46.2035 56.97 46.3515 56.91C46.5035 56.846 46.6655 56.814 46.8375 56.814ZM51.06 55.302V57.426C51.16 57.202 51.298 57.044 51.474 56.952C51.654 56.86 51.848 56.814 52.056 56.814C52.22 56.814 52.354 56.836 52.458 56.88C52.562 56.924 52.646 56.98 52.71 57.048C52.778 57.124 52.826 57.222 52.854 57.342C52.886 57.462 52.902 57.624 52.902 57.828V59.442C52.902 59.61 52.932 59.724 52.992 59.784C53.056 59.844 53.162 59.874 53.31 59.874V60C53.238 59.996 53.128 59.992 52.98 59.988C52.832 59.98 52.686 59.976 52.542 59.976C52.398 59.976 52.256 59.98 52.116 59.988C51.976 59.992 51.87 59.996 51.798 60V59.874C51.926 59.874 52.016 59.844 52.068 59.784C52.12 59.724 52.146 59.61 52.146 59.442V57.624C52.146 57.516 52.136 57.42 52.116 57.336C52.096 57.248 52.056 57.18 51.996 57.132C51.94 57.08 51.854 57.054 51.738 57.054C51.61 57.054 51.494 57.09 51.39 57.162C51.29 57.23 51.21 57.328 51.15 57.456C51.09 57.58 51.06 57.722 51.06 57.882V59.442C51.06 59.61 51.086 59.724 51.138 59.784C51.194 59.844 51.284 59.874 51.408 59.874V60C51.34 59.996 51.238 59.992 51.102 59.988C50.97 59.98 50.832 59.976 50.688 59.976C50.544 59.976 50.394 59.98 50.238 59.988C50.086 59.992 49.972 59.996 49.896 60V59.874C50.044 59.874 50.148 59.844 50.208 59.784C50.272 59.724 50.304 59.61 50.304 59.442V56.022C50.304 55.842 50.274 55.71 50.214 55.626C50.158 55.538 50.052 55.494 49.896 55.494V55.368C50.024 55.38 50.148 55.386 50.268 55.386C50.42 55.386 50.562 55.38 50.694 55.368C50.826 55.352 50.948 55.33 51.06 55.302ZM54.3813 55.368C54.5253 55.368 54.6433 55.408 54.7353 55.488C54.8273 55.568 54.8733 55.674 54.8733 55.806C54.8733 55.938 54.8273 56.044 54.7353 56.124C54.6433 56.204 54.5253 56.244 54.3813 56.244C54.2373 56.244 54.1193 56.204 54.0273 56.124C53.9353 56.044 53.8893 55.938 53.8893 55.806C53.8893 55.674 53.9353 55.568 54.0273 55.488C54.1193 55.408 54.2373 55.368 54.3813 55.368ZM54.8013 56.832V59.442C54.8013 59.61 54.8313 59.724 54.8913 59.784C54.9553 59.844 55.0613 59.874 55.2093 59.874V60C55.1373 59.996 55.0273 59.992 54.8793 59.988C54.7313 59.98 54.5813 59.976 54.4293 59.976C54.2813 59.976 54.1313 59.98 53.9793 59.988C53.8273 59.992 53.7133 59.996 53.6373 60V59.874C53.7853 59.874 53.8893 59.844 53.9493 59.784C54.0133 59.724 54.0453 59.61 54.0453 59.442V57.558C54.0453 57.374 54.0153 57.24 53.9553 57.156C53.8993 57.068 53.7933 57.024 53.6373 57.024V56.898C53.7653 56.91 53.8893 56.916 54.0093 56.916C54.1573 56.916 54.2973 56.91 54.4293 56.898C54.5653 56.882 54.6893 56.86 54.8013 56.832ZM56.713 61.128C56.477 61.128 56.263 61.106 56.071 61.062C55.879 61.018 55.727 60.952 55.615 60.864C55.503 60.78 55.447 60.672 55.447 60.54C55.447 60.412 55.503 60.298 55.615 60.198C55.727 60.098 55.891 60.022 56.107 59.97L56.149 60.066C56.073 60.11 56.015 60.17 55.975 60.246C55.935 60.322 55.915 60.402 55.915 60.486C55.915 60.658 55.993 60.79 56.149 60.882C56.309 60.978 56.521 61.026 56.785 61.026C56.965 61.026 57.131 61.002 57.283 60.954C57.435 60.906 57.557 60.832 57.649 60.732C57.741 60.632 57.787 60.508 57.787 60.36C57.787 60.236 57.741 60.132 57.649 60.048C57.561 59.964 57.383 59.922 57.115 59.922H56.719C56.571 59.922 56.435 59.906 56.311 59.874C56.191 59.842 56.095 59.79 56.023 59.718C55.951 59.646 55.915 59.546 55.915 59.418C55.915 59.262 55.979 59.122 56.107 58.998C56.235 58.87 56.435 58.746 56.707 58.626L56.773 58.68C56.673 58.732 56.583 58.788 56.503 58.848C56.427 58.908 56.389 58.984 56.389 59.076C56.389 59.204 56.477 59.268 56.653 59.268H57.331C57.539 59.268 57.723 59.294 57.883 59.346C58.047 59.398 58.177 59.48 58.273 59.592C58.369 59.704 58.417 59.852 58.417 60.036C58.417 60.228 58.355 60.406 58.231 60.57C58.107 60.738 57.919 60.872 57.667 60.972C57.419 61.076 57.101 61.128 56.713 61.128ZM56.767 58.722C56.551 58.722 56.355 58.69 56.179 58.626C56.007 58.558 55.871 58.454 55.771 58.314C55.671 58.17 55.621 57.988 55.621 57.768C55.621 57.548 55.671 57.368 55.771 57.228C55.871 57.088 56.007 56.984 56.179 56.916C56.355 56.848 56.551 56.814 56.767 56.814C56.987 56.814 57.183 56.848 57.355 56.916C57.527 56.984 57.663 57.088 57.763 57.228C57.863 57.368 57.913 57.548 57.913 57.768C57.913 57.988 57.863 58.17 57.763 58.314C57.663 58.454 57.527 58.558 57.355 58.626C57.183 58.69 56.987 58.722 56.767 58.722ZM56.767 58.614C56.887 58.614 56.981 58.554 57.049 58.434C57.121 58.31 57.157 58.088 57.157 57.768C57.157 57.448 57.121 57.228 57.049 57.108C56.981 56.984 56.887 56.922 56.767 56.922C56.647 56.922 56.551 56.984 56.479 57.108C56.411 57.228 56.377 57.448 56.377 57.768C56.377 58.088 56.411 58.31 56.479 58.434C56.551 58.554 56.647 58.614 56.767 58.614ZM57.673 57.324L57.559 57.282C57.619 57.134 57.717 57.01 57.853 56.91C57.989 56.806 58.133 56.754 58.285 56.754C58.401 56.754 58.491 56.786 58.555 56.85C58.623 56.914 58.657 57.004 58.657 57.12C58.657 57.24 58.625 57.328 58.561 57.384C58.497 57.44 58.427 57.468 58.351 57.468C58.283 57.468 58.221 57.446 58.165 57.402C58.109 57.354 58.077 57.282 58.069 57.186C58.061 57.086 58.093 56.962 58.165 56.814L58.225 56.838C58.069 56.898 57.953 56.964 57.877 57.036C57.801 57.108 57.733 57.204 57.673 57.324ZM60.0546 55.302V57.426C60.1546 57.202 60.2926 57.044 60.4686 56.952C60.6486 56.86 60.8426 56.814 61.0506 56.814C61.2146 56.814 61.3486 56.836 61.4526 56.88C61.5566 56.924 61.6406 56.98 61.7046 57.048C61.7726 57.124 61.8206 57.222 61.8486 57.342C61.8806 57.462 61.8966 57.624 61.8966 57.828V59.442C61.8966 59.61 61.9266 59.724 61.9866 59.784C62.0506 59.844 62.1566 59.874 62.3046 59.874V60C62.2326 59.996 62.1226 59.992 61.9746 59.988C61.8266 59.98 61.6806 59.976 61.5366 59.976C61.3926 59.976 61.2506 59.98 61.1106 59.988C60.9706 59.992 60.8646 59.996 60.7926 60V59.874C60.9206 59.874 61.0106 59.844 61.0626 59.784C61.1146 59.724 61.1406 59.61 61.1406 59.442V57.624C61.1406 57.516 61.1306 57.42 61.1106 57.336C61.0906 57.248 61.0506 57.18 60.9906 57.132C60.9346 57.08 60.8486 57.054 60.7326 57.054C60.6046 57.054 60.4886 57.09 60.3846 57.162C60.2846 57.23 60.2046 57.328 60.1446 57.456C60.0846 57.58 60.0546 57.722 60.0546 57.882V59.442C60.0546 59.61 60.0806 59.724 60.1326 59.784C60.1886 59.844 60.2786 59.874 60.4026 59.874V60C60.3346 59.996 60.2326 59.992 60.0966 59.988C59.9646 59.98 59.8266 59.976 59.6826 59.976C59.5386 59.976 59.3886 59.98 59.2326 59.988C59.0806 59.992 58.9666 59.996 58.8906 60V59.874C59.0386 59.874 59.1426 59.844 59.2026 59.784C59.2666 59.724 59.2986 59.61 59.2986 59.442V56.022C59.2986 55.842 59.2686 55.71 59.2086 55.626C59.1526 55.538 59.0466 55.494 58.8906 55.494V55.368C59.0186 55.38 59.1426 55.386 59.2626 55.386C59.4146 55.386 59.5566 55.38 59.6886 55.368C59.8206 55.352 59.9426 55.33 60.0546 55.302ZM65.5495 56.814C65.7535 56.814 65.9255 56.85 66.0655 56.922C66.2095 56.99 66.3295 57.11 66.4255 57.282H66.3295C66.2615 57.166 66.1735 57.082 66.0655 57.03C65.9575 56.974 65.8395 56.946 65.7115 56.946C65.4995 56.946 65.3355 57.07 65.2195 57.318C65.1035 57.566 65.0455 57.944 65.0455 58.452C65.0455 58.784 65.0715 59.054 65.1235 59.262C65.1755 59.47 65.2515 59.62 65.3515 59.712C65.4515 59.804 65.5675 59.85 65.6995 59.85C65.8475 59.85 65.9795 59.786 66.0955 59.658C66.2155 59.526 66.2835 59.338 66.2995 59.094L66.3415 59.262C66.2935 59.526 66.1915 59.73 66.0355 59.874C65.8835 60.014 65.6975 60.084 65.4775 60.084C65.2495 60.084 65.0415 60.026 64.8535 59.91C64.6655 59.794 64.5175 59.614 64.4095 59.37C64.3015 59.126 64.2475 58.818 64.2475 58.446C64.2475 58.082 64.3035 57.78 64.4155 57.54C64.5275 57.296 64.6815 57.114 64.8775 56.994C65.0735 56.874 65.2975 56.814 65.5495 56.814ZM66.9775 56.802L67.0735 56.856C67.0575 56.908 67.0455 56.964 67.0375 57.024C67.0335 57.08 67.0315 57.136 67.0315 57.192V60.564C67.0315 60.716 67.0595 60.82 67.1155 60.876C67.1715 60.932 67.2675 60.96 67.4035 60.96V61.086C67.3315 61.082 67.2275 61.076 67.0915 61.068C66.9595 61.064 66.8235 61.062 66.6835 61.062C66.4915 61.062 66.3075 61.064 66.1315 61.068C65.9555 61.076 65.8195 61.082 65.7235 61.086V60.96C65.8955 60.96 66.0295 60.928 66.1255 60.864C66.2255 60.804 66.2755 60.684 66.2755 60.504V57.144C66.3595 57.132 66.4435 57.11 66.5275 57.078C66.6155 57.046 66.6975 57.006 66.7735 56.958C66.8535 56.91 66.9215 56.858 66.9775 56.802ZM70.6142 56.832V59.352C70.6142 59.532 70.6442 59.666 70.7042 59.754C70.7642 59.838 70.8702 59.88 71.0222 59.88V60.006C70.8982 59.994 70.7742 59.988 70.6502 59.988C70.5022 59.988 70.3602 59.994 70.2242 60.006C70.0922 60.018 69.9702 60.04 69.8582 60.072V59.472C69.7582 59.692 69.6202 59.85 69.4442 59.946C69.2722 60.038 69.0862 60.084 68.8862 60.084C68.7302 60.084 68.5982 60.062 68.4902 60.018C68.3862 59.978 68.3022 59.922 68.2382 59.85C68.1702 59.774 68.1222 59.674 68.0942 59.55C68.0662 59.426 68.0522 59.266 68.0522 59.07V57.552C68.0522 57.372 68.0222 57.24 67.9622 57.156C67.9062 57.068 67.8002 57.024 67.6442 57.024V56.898C67.7722 56.91 67.8962 56.916 68.0162 56.916C68.1642 56.916 68.3042 56.91 68.4362 56.898C68.5722 56.882 68.6962 56.86 68.8082 56.832V59.28C68.8082 59.388 68.8162 59.484 68.8322 59.568C68.8522 59.652 68.8902 59.72 68.9462 59.772C69.0022 59.82 69.0862 59.844 69.1982 59.844C69.3222 59.844 69.4342 59.808 69.5342 59.736C69.6342 59.664 69.7122 59.566 69.7682 59.442C69.8282 59.318 69.8582 59.178 69.8582 59.022V57.552C69.8582 57.372 69.8282 57.24 69.7682 57.156C69.7122 57.068 69.6062 57.024 69.4502 57.024V56.898C69.5782 56.91 69.7022 56.916 69.8222 56.916C69.9702 56.916 70.1102 56.91 70.2422 56.898C70.3782 56.882 70.5022 56.86 70.6142 56.832ZM72.2203 60.042C72.0483 60.042 71.9023 60.01 71.7823 59.946C71.6623 59.878 71.5723 59.788 71.5123 59.676C71.4523 59.56 71.4223 59.432 71.4223 59.292C71.4223 59.12 71.4623 58.98 71.5423 58.872C71.6223 58.76 71.7243 58.672 71.8483 58.608C71.9763 58.54 72.1103 58.484 72.2503 58.44C72.3903 58.392 72.5223 58.348 72.6463 58.308C72.7703 58.264 72.8723 58.214 72.9523 58.158C73.0323 58.102 73.0723 58.028 73.0723 57.936V57.498C73.0723 57.37 73.0523 57.266 73.0123 57.186C72.9763 57.102 72.9203 57.04 72.8443 57C72.7723 56.956 72.6803 56.934 72.5683 56.934C72.4843 56.934 72.3963 56.946 72.3043 56.97C72.2123 56.994 72.1363 57.04 72.0763 57.108C72.1803 57.136 72.2603 57.188 72.3163 57.264C72.3763 57.34 72.4063 57.432 72.4063 57.54C72.4063 57.664 72.3643 57.762 72.2803 57.834C72.2003 57.902 72.0983 57.936 71.9743 57.936C71.8423 57.936 71.7423 57.894 71.6743 57.81C71.6063 57.726 71.5723 57.628 71.5723 57.516C71.5723 57.404 71.6003 57.312 71.6563 57.24C71.7123 57.164 71.7903 57.096 71.8903 57.036C71.9903 56.968 72.1183 56.914 72.2743 56.874C72.4303 56.834 72.6003 56.814 72.7843 56.814C72.9603 56.814 73.1163 56.834 73.2523 56.874C73.3883 56.91 73.5043 56.976 73.6003 57.072C73.6963 57.164 73.7583 57.278 73.7863 57.414C73.8143 57.55 73.8283 57.716 73.8283 57.912V59.556C73.8283 59.656 73.8403 59.728 73.8643 59.772C73.8883 59.812 73.9263 59.832 73.9783 59.832C74.0183 59.832 74.0563 59.822 74.0923 59.802C74.1283 59.782 74.1683 59.754 74.2123 59.718L74.2783 59.82C74.1903 59.888 74.0983 59.942 74.0023 59.982C73.9063 60.022 73.7903 60.042 73.6543 60.042C73.5143 60.042 73.4023 60.022 73.3183 59.982C73.2383 59.942 73.1783 59.884 73.1383 59.808C73.1023 59.732 73.0823 59.642 73.0783 59.538C72.9823 59.698 72.8643 59.822 72.7243 59.91C72.5843 59.998 72.4163 60.042 72.2203 60.042ZM72.5803 59.706C72.6763 59.706 72.7643 59.68 72.8443 59.628C72.9283 59.576 73.0043 59.498 73.0723 59.394V58.182C73.0323 58.242 72.9743 58.296 72.8983 58.344C72.8263 58.392 72.7483 58.44 72.6643 58.488C72.5803 58.536 72.5003 58.592 72.4243 58.656C72.3523 58.716 72.2903 58.792 72.2383 58.884C72.1903 58.972 72.1663 59.086 72.1663 59.226C72.1663 59.382 72.2043 59.502 72.2803 59.586C72.3563 59.666 72.4563 59.706 72.5803 59.706ZM75.6688 55.302V59.442C75.6688 59.61 75.6988 59.724 75.7588 59.784C75.8228 59.844 75.9288 59.874 76.0768 59.874V60C76.0048 59.996 75.8948 59.992 75.7468 59.988C75.6028 59.98 75.4548 59.976 75.3028 59.976C75.1548 59.976 75.0028 59.98 74.8468 59.988C74.6948 59.992 74.5808 59.996 74.5048 60V59.874C74.6528 59.874 74.7568 59.844 74.8168 59.784C74.8808 59.724 74.9128 59.61 74.9128 59.442V56.022C74.9128 55.842 74.8848 55.71 74.8288 55.626C74.7728 55.538 74.6648 55.494 74.5048 55.494V55.368C74.6328 55.38 74.7568 55.386 74.8768 55.386C75.0288 55.386 75.1708 55.38 75.3028 55.368C75.4348 55.352 75.5568 55.33 75.6688 55.302ZM77.1912 55.368C77.3352 55.368 77.4532 55.408 77.5452 55.488C77.6372 55.568 77.6832 55.674 77.6832 55.806C77.6832 55.938 77.6372 56.044 77.5452 56.124C77.4532 56.204 77.3352 56.244 77.1912 56.244C77.0472 56.244 76.9292 56.204 76.8372 56.124C76.7452 56.044 76.6992 55.938 76.6992 55.806C76.6992 55.674 76.7452 55.568 76.8372 55.488C76.9292 55.408 77.0472 55.368 77.1912 55.368ZM77.6112 56.832V59.442C77.6112 59.61 77.6412 59.724 77.7012 59.784C77.7652 59.844 77.8712 59.874 78.0192 59.874V60C77.9472 59.996 77.8372 59.992 77.6892 59.988C77.5412 59.98 77.3912 59.976 77.2392 59.976C77.0912 59.976 76.9412 59.98 76.7892 59.988C76.6372 59.992 76.5232 59.996 76.4472 60V59.874C76.5952 59.874 76.6992 59.844 76.7592 59.784C76.8232 59.724 76.8552 59.61 76.8552 59.442V57.558C76.8552 57.374 76.8252 57.24 76.7652 57.156C76.7092 57.068 76.6032 57.024 76.4472 57.024V56.898C76.5752 56.91 76.6992 56.916 76.8192 56.916C76.9672 56.916 77.1072 56.91 77.2392 56.898C77.3752 56.882 77.4992 56.86 77.6112 56.832ZM79.5169 55.914V56.904H80.2849V57.024H79.5169V59.412C79.5169 59.556 79.5429 59.658 79.5949 59.718C79.6469 59.778 79.7209 59.808 79.8169 59.808C79.9089 59.808 79.9929 59.774 80.0689 59.706C80.1449 59.634 80.2129 59.516 80.2729 59.352L80.3809 59.4C80.3209 59.596 80.2269 59.76 80.0989 59.892C79.9749 60.02 79.7989 60.084 79.5709 60.084C79.4349 60.084 79.3189 60.066 79.2229 60.03C79.1309 59.998 79.0509 59.95 78.9829 59.886C78.8949 59.794 78.8349 59.684 78.8029 59.556C78.7749 59.428 78.7609 59.258 78.7609 59.046V57.024H78.2329V56.904H78.7609V56.07C78.9049 56.066 79.0389 56.052 79.1629 56.028C79.2869 56.004 79.4049 55.966 79.5169 55.914ZM83.4622 56.898V57.024C83.3862 57.04 83.3142 57.082 83.2462 57.15C83.1822 57.218 83.1202 57.338 83.0602 57.51L82.1722 59.946L81.9862 60.228L80.7502 57.36C80.6742 57.208 80.6022 57.114 80.5342 57.078C80.4662 57.042 80.4102 57.024 80.3662 57.024V56.898C80.4822 56.91 80.6022 56.92 80.7262 56.928C80.8542 56.932 80.9822 56.934 81.1102 56.934C81.2582 56.934 81.4002 56.93 81.5362 56.922C81.6762 56.914 81.8062 56.906 81.9262 56.898V57.024C81.8342 57.024 81.7522 57.03 81.6802 57.042C81.6082 57.054 81.5602 57.088 81.5362 57.144C81.5162 57.196 81.5322 57.288 81.5842 57.42L82.3342 59.25L82.2862 59.274L82.8142 57.846C82.8822 57.658 82.9102 57.506 82.8982 57.39C82.8862 57.274 82.8422 57.186 82.7662 57.126C82.6902 57.066 82.5862 57.032 82.4542 57.024V56.898C82.5182 56.902 82.5822 56.906 82.6462 56.91C82.7102 56.914 82.7722 56.918 82.8322 56.922C82.8922 56.922 82.9502 56.922 83.0062 56.922C83.0902 56.922 83.1722 56.92 83.2522 56.916C83.3362 56.912 83.4062 56.906 83.4622 56.898ZM82.1722 59.946L81.9442 60.552C81.9082 60.652 81.8682 60.736 81.8242 60.804C81.7842 60.876 81.7382 60.934 81.6862 60.978C81.6262 61.03 81.5522 61.068 81.4642 61.092C81.3802 61.116 81.2862 61.128 81.1822 61.128C81.0902 61.128 81.0002 61.112 80.9122 61.08C80.8282 61.048 80.7562 61 80.6962 60.936C80.6402 60.872 80.6122 60.788 80.6122 60.684C80.6122 60.572 80.6502 60.482 80.7262 60.414C80.8022 60.346 80.9062 60.312 81.0382 60.312C81.1542 60.312 81.2482 60.34 81.3202 60.396C81.3962 60.456 81.4342 60.544 81.4342 60.66C81.4342 60.736 81.4122 60.804 81.3682 60.864C81.3242 60.924 81.2622 60.97 81.1822 61.002C81.2022 61.006 81.2202 61.008 81.2362 61.008C81.2562 61.012 81.2722 61.014 81.2842 61.014C81.4002 61.014 81.5042 60.976 81.5962 60.9C81.6882 60.824 81.7622 60.704 81.8182 60.54L82.0342 59.946H82.1722ZM84.1325 59.208C84.2685 59.208 84.3805 59.248 84.4685 59.328C84.5565 59.408 84.6005 59.514 84.6005 59.646C84.6005 59.778 84.5565 59.884 84.4685 59.964C84.3805 60.044 84.2685 60.084 84.1325 60.084C83.9925 60.084 83.8785 60.044 83.7905 59.964C83.7065 59.884 83.6645 59.778 83.6645 59.646C83.6645 59.514 83.7065 59.408 83.7905 59.328C83.8785 59.248 83.9925 59.208 84.1325 59.208Z" fill="black"/>
<path d="M20.662 63.368V63.482H20.272V68.972H20.662V69.086H19.516V63.368H20.662ZM21.2982 63.752C21.3982 63.756 21.5262 63.76 21.6822 63.764C21.8382 63.768 21.9942 63.77 22.1502 63.77C22.3462 63.77 22.5322 63.768 22.7082 63.764C22.8842 63.76 23.0082 63.758 23.0802 63.758C23.5522 63.758 23.9042 63.846 24.1362 64.022C24.3722 64.198 24.4902 64.424 24.4902 64.7C24.4902 64.84 24.4522 64.98 24.3762 65.12C24.3042 65.26 24.1862 65.386 24.0222 65.498C23.8622 65.61 23.6522 65.694 23.3922 65.75V65.762C23.7442 65.794 24.0222 65.866 24.2262 65.978C24.4342 66.086 24.5822 66.216 24.6702 66.368C24.7582 66.516 24.8022 66.672 24.8022 66.836C24.8022 67.08 24.7382 67.29 24.6102 67.466C24.4862 67.638 24.3062 67.77 24.0702 67.862C23.8342 67.954 23.5502 68 23.2182 68C23.1302 68 22.9962 67.998 22.8162 67.994C22.6362 67.986 22.4182 67.982 22.1622 67.982C21.9982 67.982 21.8382 67.984 21.6822 67.988C21.5262 67.988 21.3982 67.992 21.2982 68V67.88C21.4302 67.872 21.5282 67.856 21.5922 67.832C21.6602 67.808 21.7042 67.76 21.7242 67.688C21.7482 67.616 21.7602 67.508 21.7602 67.364V64.388C21.7602 64.24 21.7482 64.132 21.7242 64.064C21.7042 63.992 21.6602 63.944 21.5922 63.92C21.5282 63.892 21.4302 63.876 21.2982 63.872V63.752ZM22.9782 63.872C22.8142 63.872 22.7062 63.906 22.6542 63.974C22.6062 64.042 22.5822 64.18 22.5822 64.388V67.364C22.5822 67.504 22.5942 67.61 22.6182 67.682C22.6422 67.754 22.6842 67.802 22.7442 67.826C22.8042 67.85 22.8922 67.862 23.0082 67.862C23.3362 67.862 23.5722 67.772 23.7162 67.592C23.8642 67.408 23.9382 67.148 23.9382 66.812C23.9382 66.504 23.8582 66.266 23.6982 66.098C23.5422 65.93 23.2822 65.846 22.9182 65.846H22.3722C22.3722 65.846 22.3722 65.83 22.3722 65.798C22.3722 65.762 22.3722 65.744 22.3722 65.744H22.8882C23.0922 65.744 23.2502 65.7 23.3622 65.612C23.4742 65.52 23.5502 65.4 23.5902 65.252C23.6302 65.1 23.6502 64.938 23.6502 64.766C23.6502 64.47 23.5982 64.248 23.4942 64.1C23.3902 63.948 23.2182 63.872 22.9782 63.872ZM27.2342 64.814C27.3582 64.814 27.4602 64.84 27.5402 64.892C27.6242 64.944 27.6862 65.01 27.7262 65.09C27.7662 65.17 27.7862 65.254 27.7862 65.342C27.7862 65.474 27.7462 65.584 27.6662 65.672C27.5902 65.76 27.4882 65.804 27.3602 65.804C27.2402 65.804 27.1422 65.772 27.0662 65.708C26.9902 65.644 26.9522 65.556 26.9522 65.444C26.9522 65.344 26.9762 65.26 27.0242 65.192C27.0762 65.124 27.1342 65.07 27.1982 65.03C27.1542 65.006 27.1042 64.998 27.0482 65.006C26.9522 65.014 26.8642 65.048 26.7842 65.108C26.7042 65.168 26.6362 65.242 26.5802 65.33C26.5242 65.418 26.4802 65.512 26.4482 65.612C26.4202 65.712 26.4062 65.808 26.4062 65.9V67.382C26.4062 67.578 26.4562 67.71 26.5562 67.778C26.6562 67.842 26.8022 67.874 26.9942 67.874V68C26.9022 67.996 26.7682 67.992 26.5922 67.988C26.4202 67.98 26.2402 67.976 26.0522 67.976C25.8962 67.976 25.7402 67.98 25.5842 67.988C25.4322 67.992 25.3182 67.996 25.2422 68V67.874C25.3902 67.874 25.4942 67.844 25.5542 67.784C25.6182 67.724 25.6502 67.61 25.6502 67.442V65.552C25.6502 65.372 25.6202 65.24 25.5602 65.156C25.5042 65.068 25.3982 65.024 25.2422 65.024V64.898C25.3702 64.91 25.4942 64.916 25.6142 64.916C25.7622 64.916 25.9022 64.91 26.0342 64.898C26.1702 64.882 26.2942 64.86 26.4062 64.832V65.456C26.4542 65.344 26.5162 65.24 26.5922 65.144C26.6722 65.048 26.7662 64.97 26.8742 64.91C26.9862 64.846 27.1062 64.814 27.2342 64.814ZM28.8302 63.368C28.9742 63.368 29.0922 63.408 29.1842 63.488C29.2762 63.568 29.3222 63.674 29.3222 63.806C29.3222 63.938 29.2762 64.044 29.1842 64.124C29.0922 64.204 28.9742 64.244 28.8302 64.244C28.6862 64.244 28.5682 64.204 28.4762 64.124C28.3842 64.044 28.3382 63.938 28.3382 63.806C28.3382 63.674 28.3842 63.568 28.4762 63.488C28.5682 63.408 28.6862 63.368 28.8302 63.368ZM29.2502 64.832V67.442C29.2502 67.61 29.2802 67.724 29.3402 67.784C29.4042 67.844 29.5102 67.874 29.6582 67.874V68C29.5862 67.996 29.4762 67.992 29.3282 67.988C29.1802 67.98 29.0302 67.976 28.8782 67.976C28.7302 67.976 28.5802 67.98 28.4282 67.988C28.2762 67.992 28.1622 67.996 28.0862 68V67.874C28.2342 67.874 28.3382 67.844 28.3982 67.784C28.4622 67.724 28.4942 67.61 28.4942 67.442V65.558C28.4942 65.374 28.4642 65.24 28.4042 65.156C28.3482 65.068 28.2422 65.024 28.0862 65.024V64.898C28.2142 64.91 28.3382 64.916 28.4582 64.916C28.6062 64.916 28.7462 64.91 28.8782 64.898C29.0142 64.882 29.1382 64.86 29.2502 64.832ZM31.1559 63.914V64.904H31.9239V65.024H31.1559V67.412C31.1559 67.556 31.1819 67.658 31.2339 67.718C31.2859 67.778 31.3599 67.808 31.4559 67.808C31.5479 67.808 31.6319 67.774 31.7079 67.706C31.7839 67.634 31.8519 67.516 31.9119 67.352L32.0199 67.4C31.9599 67.596 31.8659 67.76 31.7379 67.892C31.6139 68.02 31.4379 68.084 31.2099 68.084C31.0739 68.084 30.9579 68.066 30.8619 68.03C30.7699 67.998 30.6899 67.95 30.6219 67.886C30.5339 67.794 30.4739 67.684 30.4419 67.556C30.4139 67.428 30.3999 67.258 30.3999 67.046V65.024H29.8719V64.904H30.3999V64.07C30.5439 64.066 30.6779 64.052 30.8019 64.028C30.9259 64.004 31.0439 63.966 31.1559 63.914ZM32.9652 63.368C33.1092 63.368 33.2272 63.408 33.3192 63.488C33.4112 63.568 33.4572 63.674 33.4572 63.806C33.4572 63.938 33.4112 64.044 33.3192 64.124C33.2272 64.204 33.1092 64.244 32.9652 64.244C32.8212 64.244 32.7032 64.204 32.6112 64.124C32.5192 64.044 32.4732 63.938 32.4732 63.806C32.4732 63.674 32.5192 63.568 32.6112 63.488C32.7032 63.408 32.8212 63.368 32.9652 63.368ZM33.3852 64.832V67.442C33.3852 67.61 33.4152 67.724 33.4752 67.784C33.5392 67.844 33.6452 67.874 33.7932 67.874V68C33.7212 67.996 33.6112 67.992 33.4632 67.988C33.3152 67.98 33.1652 67.976 33.0132 67.976C32.8652 67.976 32.7152 67.98 32.5632 67.988C32.4112 67.992 32.2972 67.996 32.2212 68V67.874C32.3692 67.874 32.4732 67.844 32.5332 67.784C32.5972 67.724 32.6292 67.61 32.6292 67.442V65.558C32.6292 65.374 32.5992 65.24 32.5392 65.156C32.4832 65.068 32.3772 65.024 32.2212 65.024V64.898C32.3492 64.91 32.4732 64.916 32.5932 64.916C32.7412 64.916 32.8812 64.91 33.0132 64.898C33.1492 64.882 33.2732 64.86 33.3852 64.832ZM35.3029 64.814C35.4709 64.814 35.6149 64.838 35.7349 64.886C35.8549 64.934 35.9429 64.976 35.9989 65.012C36.1349 65.112 36.2169 65.048 36.2449 64.82H36.3769C36.3689 64.936 36.3629 65.074 36.3589 65.234C36.3549 65.39 36.3529 65.6 36.3529 65.864H36.2209C36.2009 65.716 36.1629 65.572 36.1069 65.432C36.0509 65.292 35.9689 65.176 35.8609 65.084C35.7529 64.988 35.6109 64.94 35.4349 64.94C35.3109 64.94 35.2069 64.976 35.1229 65.048C35.0429 65.12 35.0029 65.222 35.0029 65.354C35.0029 65.474 35.0389 65.58 35.1109 65.672C35.1829 65.76 35.2749 65.844 35.3869 65.924C35.5029 66 35.6229 66.084 35.7469 66.176C35.8909 66.272 36.0189 66.37 36.1309 66.47C36.2429 66.566 36.3329 66.674 36.4009 66.794C36.4689 66.91 36.5029 67.048 36.5029 67.208C36.5029 67.392 36.4509 67.55 36.3469 67.682C36.2469 67.81 36.1129 67.91 35.9449 67.982C35.7809 68.05 35.5989 68.084 35.3989 68.084C35.2909 68.084 35.1929 68.074 35.1049 68.054C35.0169 68.034 34.9389 68.008 34.8709 67.976C34.8189 67.948 34.7709 67.922 34.7269 67.898C34.6869 67.874 34.6449 67.854 34.6009 67.838C34.5609 67.818 34.5249 67.826 34.4929 67.862C34.4649 67.898 34.4429 67.958 34.4269 68.042H34.2949C34.3029 67.914 34.3089 67.758 34.3129 67.574C34.3169 67.39 34.3189 67.146 34.3189 66.842H34.4509C34.4789 67.062 34.5209 67.256 34.5769 67.424C34.6369 67.588 34.7229 67.718 34.8349 67.814C34.9469 67.906 35.0909 67.952 35.2669 67.952C35.3429 67.952 35.4149 67.936 35.4829 67.904C35.5549 67.872 35.6129 67.822 35.6569 67.754C35.7049 67.686 35.7289 67.594 35.7289 67.478C35.7289 67.302 35.6689 67.156 35.5489 67.04C35.4289 66.924 35.2789 66.8 35.0989 66.668C34.9629 66.568 34.8349 66.47 34.7149 66.374C34.5989 66.278 34.5029 66.17 34.4269 66.05C34.3549 65.93 34.3189 65.788 34.3189 65.624C34.3189 65.444 34.3649 65.296 34.4569 65.18C34.5489 65.06 34.6689 64.97 34.8169 64.91C34.9689 64.846 35.1309 64.814 35.3029 64.814ZM38.1111 63.302V65.426C38.2111 65.202 38.3491 65.044 38.5251 64.952C38.7051 64.86 38.8991 64.814 39.1071 64.814C39.2711 64.814 39.4051 64.836 39.5091 64.88C39.6131 64.924 39.6971 64.98 39.7611 65.048C39.8291 65.124 39.8771 65.222 39.9051 65.342C39.9371 65.462 39.9531 65.624 39.9531 65.828V67.442C39.9531 67.61 39.9831 67.724 40.0431 67.784C40.1071 67.844 40.2131 67.874 40.3611 67.874V68C40.2891 67.996 40.1791 67.992 40.0311 67.988C39.8831 67.98 39.7371 67.976 39.5931 67.976C39.4491 67.976 39.3071 67.98 39.1671 67.988C39.0271 67.992 38.9211 67.996 38.8491 68V67.874C38.9771 67.874 39.0671 67.844 39.1191 67.784C39.1711 67.724 39.1971 67.61 39.1971 67.442V65.624C39.1971 65.516 39.1871 65.42 39.1671 65.336C39.1471 65.248 39.1071 65.18 39.0471 65.132C38.9911 65.08 38.9051 65.054 38.7891 65.054C38.6611 65.054 38.5451 65.09 38.4411 65.162C38.3411 65.23 38.2611 65.328 38.2011 65.456C38.1411 65.58 38.1111 65.722 38.1111 65.882V67.442C38.1111 67.61 38.1371 67.724 38.1891 67.784C38.2451 67.844 38.3351 67.874 38.4591 67.874V68C38.3911 67.996 38.2891 67.992 38.1531 67.988C38.0211 67.98 37.8831 67.976 37.7391 67.976C37.5951 67.976 37.4451 67.98 37.2891 67.988C37.1371 67.992 37.0231 67.996 36.9471 68V67.874C37.0951 67.874 37.1991 67.844 37.2591 67.784C37.3231 67.724 37.3551 67.61 37.3551 67.442V64.022C37.3551 63.842 37.3251 63.71 37.2651 63.626C37.2091 63.538 37.1031 63.494 36.9471 63.494V63.368C37.0751 63.38 37.1991 63.386 37.3191 63.386C37.4711 63.386 37.6131 63.38 37.7451 63.368C37.8771 63.352 37.9991 63.33 38.1111 63.302ZM41.3125 67.208C41.4045 67.208 41.4825 67.228 41.5465 67.268C41.6145 67.304 41.6705 67.352 41.7145 67.412C41.7585 67.476 41.7885 67.55 41.8045 67.634C41.8245 67.718 41.8345 67.8 41.8345 67.88C41.8345 68.076 41.7825 68.258 41.6785 68.426C41.5785 68.594 41.4225 68.728 41.2105 68.828L41.1565 68.72C41.2725 68.668 41.3725 68.59 41.4565 68.486C41.5445 68.386 41.5945 68.28 41.6065 68.168C41.6225 68.096 41.6225 68.028 41.6065 67.964C41.5265 68.044 41.4225 68.084 41.2945 68.084C41.1705 68.084 41.0665 68.046 40.9825 67.97C40.8985 67.894 40.8565 67.786 40.8565 67.646C40.8565 67.518 40.8985 67.414 40.9825 67.334C41.0705 67.25 41.1805 67.208 41.3125 67.208ZM45.4575 63.308C45.5895 63.308 45.7035 63.326 45.7995 63.362C45.8995 63.394 45.9855 63.438 46.0575 63.494C46.1175 63.542 46.1655 63.602 46.2015 63.674C46.2415 63.746 46.2615 63.826 46.2615 63.914C46.2615 64.022 46.2235 64.114 46.1475 64.19C46.0755 64.266 45.9835 64.304 45.8715 64.304C45.7515 64.304 45.6515 64.27 45.5715 64.202C45.4955 64.13 45.4575 64.032 45.4575 63.908C45.4575 63.812 45.4835 63.73 45.5355 63.662C45.5915 63.59 45.6695 63.54 45.7695 63.512C45.7575 63.484 45.7315 63.46 45.6915 63.44C45.6515 63.42 45.5975 63.41 45.5295 63.41C45.4495 63.41 45.3795 63.426 45.3195 63.458C45.2635 63.49 45.2175 63.534 45.1815 63.59C45.1415 63.658 45.1135 63.758 45.0975 63.89C45.0815 64.022 45.0735 64.222 45.0735 64.49V64.904H45.7155V65.024H45.0735V67.382C45.0735 67.578 45.1255 67.71 45.2295 67.778C45.3375 67.842 45.4815 67.874 45.6615 67.874V68C45.5615 67.996 45.4215 67.992 45.2415 67.988C45.0615 67.98 44.8695 67.976 44.6655 67.976C44.5215 67.976 44.3775 67.98 44.2335 67.988C44.0895 67.992 43.9815 67.996 43.9095 68V67.874C44.0575 67.874 44.1615 67.844 44.2215 67.784C44.2855 67.724 44.3175 67.61 44.3175 67.442V65.024H43.8855V64.904H44.3175C44.3175 64.668 44.3295 64.472 44.3535 64.316C44.3775 64.156 44.4135 64.02 44.4615 63.908C44.5135 63.796 44.5835 63.696 44.6715 63.608C44.7555 63.52 44.8655 63.448 45.0015 63.392C45.1415 63.336 45.2935 63.308 45.4575 63.308ZM47.4864 64.814C47.7624 64.814 48.0064 64.87 48.2184 64.982C48.4344 65.09 48.6044 65.264 48.7284 65.504C48.8564 65.744 48.9204 66.06 48.9204 66.452C48.9204 66.844 48.8564 67.16 48.7284 67.4C48.6044 67.64 48.4344 67.814 48.2184 67.922C48.0064 68.03 47.7624 68.084 47.4864 68.084C47.2104 68.084 46.9644 68.03 46.7484 67.922C46.5324 67.814 46.3624 67.64 46.2384 67.4C46.1144 67.16 46.0524 66.844 46.0524 66.452C46.0524 66.06 46.1144 65.744 46.2384 65.504C46.3624 65.264 46.5324 65.09 46.7484 64.982C46.9644 64.87 47.2104 64.814 47.4864 64.814ZM47.4864 64.934C47.2984 64.934 47.1444 65.054 47.0244 65.294C46.9084 65.53 46.8504 65.916 46.8504 66.452C46.8504 66.988 46.9084 67.374 47.0244 67.61C47.1444 67.846 47.2984 67.964 47.4864 67.964C47.6704 67.964 47.8224 67.846 47.9424 67.61C48.0624 67.374 48.1224 66.988 48.1224 66.452C48.1224 65.916 48.0624 65.53 47.9424 65.294C47.8224 65.054 47.6704 64.934 47.4864 64.934ZM51.396 64.814C51.52 64.814 51.622 64.84 51.702 64.892C51.786 64.944 51.848 65.01 51.888 65.09C51.928 65.17 51.948 65.254 51.948 65.342C51.948 65.474 51.908 65.584 51.828 65.672C51.752 65.76 51.65 65.804 51.522 65.804C51.402 65.804 51.304 65.772 51.228 65.708C51.152 65.644 51.114 65.556 51.114 65.444C51.114 65.344 51.138 65.26 51.186 65.192C51.238 65.124 51.296 65.07 51.36 65.03C51.316 65.006 51.266 64.998 51.21 65.006C51.114 65.014 51.026 65.048 50.946 65.108C50.866 65.168 50.798 65.242 50.742 65.33C50.686 65.418 50.642 65.512 50.61 65.612C50.582 65.712 50.568 65.808 50.568 65.9V67.382C50.568 67.578 50.618 67.71 50.718 67.778C50.818 67.842 50.964 67.874 51.156 67.874V68C51.064 67.996 50.93 67.992 50.754 67.988C50.582 67.98 50.402 67.976 50.214 67.976C50.058 67.976 49.902 67.98 49.746 67.988C49.594 67.992 49.48 67.996 49.404 68V67.874C49.552 67.874 49.656 67.844 49.716 67.784C49.78 67.724 49.812 67.61 49.812 67.442V65.552C49.812 65.372 49.782 65.24 49.722 65.156C49.666 65.068 49.56 65.024 49.404 65.024V64.898C49.532 64.91 49.656 64.916 49.776 64.916C49.924 64.916 50.064 64.91 50.196 64.898C50.332 64.882 50.456 64.86 50.568 64.832V65.456C50.616 65.344 50.678 65.24 50.754 65.144C50.834 65.048 50.928 64.97 51.036 64.91C51.148 64.846 51.268 64.814 51.396 64.814ZM54.3599 64.814C54.5159 64.814 54.6459 64.836 54.7499 64.88C54.8579 64.924 54.9419 64.98 55.0019 65.048C55.0739 65.124 55.1239 65.226 55.1519 65.354C55.1799 65.478 55.1939 65.636 55.1939 65.828V67.442C55.1939 67.61 55.2219 67.724 55.2779 67.784C55.3379 67.844 55.4379 67.874 55.5779 67.874V68C55.5059 67.996 55.3979 67.992 55.2539 67.988C55.1099 67.98 54.9699 67.976 54.8339 67.976C54.6899 67.976 54.5499 67.98 54.4139 67.988C54.2819 67.992 54.1819 67.996 54.1139 68V67.874C54.2299 67.874 54.3119 67.844 54.3599 67.784C54.4119 67.724 54.4379 67.61 54.4379 67.442V65.624C54.4379 65.516 54.4299 65.42 54.4139 65.336C54.3979 65.248 54.3639 65.18 54.3119 65.132C54.2599 65.08 54.1799 65.054 54.0719 65.054C53.9479 65.054 53.8359 65.09 53.7359 65.162C53.6359 65.234 53.5559 65.334 53.4959 65.462C53.4399 65.586 53.4119 65.726 53.4119 65.882V67.442C53.4119 67.61 53.4359 67.724 53.4839 67.784C53.5319 67.844 53.6159 67.874 53.7359 67.874V68C53.6679 67.996 53.5679 67.992 53.4359 67.988C53.3079 67.98 53.1759 67.976 53.0399 67.976C52.8919 67.976 52.7419 67.98 52.5899 67.988C52.4379 67.992 52.3239 67.996 52.2479 68V67.874C52.3959 67.874 52.4999 67.844 52.5599 67.784C52.6239 67.724 52.6559 67.61 52.6559 67.442V65.552C52.6559 65.372 52.6259 65.24 52.5659 65.156C52.5099 65.068 52.4039 65.024 52.2479 65.024V64.898C52.3759 64.91 52.4999 64.916 52.6199 64.916C52.7679 64.916 52.9079 64.91 53.0399 64.898C53.1759 64.882 53.2999 64.86 53.4119 64.832V65.432C53.5119 65.212 53.6459 65.054 53.8139 64.958C53.9819 64.862 54.1639 64.814 54.3599 64.814ZM56.1659 64.814C56.3219 64.814 56.4519 64.836 56.5559 64.88C56.6639 64.924 56.7479 64.98 56.8079 65.048C56.8799 65.124 56.9299 65.226 56.9579 65.354C56.9859 65.478 56.9999 65.636 56.9999 65.828V67.442C56.9999 67.61 57.0299 67.724 57.0899 67.784C57.1539 67.844 57.2599 67.874 57.4079 67.874V68C57.3359 67.996 57.2239 67.992 57.0719 67.988C56.9239 67.98 56.7799 67.976 56.6399 67.976C56.4959 67.976 56.3559 67.98 56.2199 67.988C56.0879 67.992 55.9879 67.996 55.9199 68V67.874C56.0359 67.874 56.1179 67.844 56.1659 67.784C56.2179 67.724 56.2439 67.61 56.2439 67.442V65.624C56.2439 65.516 56.2339 65.42 56.2139 65.336C56.1979 65.248 56.1619 65.18 56.1059 65.132C56.0499 65.08 55.9659 65.054 55.8539 65.054C55.7299 65.054 55.6179 65.092 55.5179 65.168C55.4179 65.244 55.3379 65.346 55.2779 65.474C55.2219 65.598 55.1919 65.738 55.1879 65.894L55.1579 65.462C55.2659 65.214 55.4099 65.044 55.5899 64.952C55.7699 64.86 55.9619 64.814 56.1659 64.814ZM58.5684 68.042C58.3964 68.042 58.2504 68.01 58.1304 67.946C58.0104 67.878 57.9204 67.788 57.8604 67.676C57.8004 67.56 57.7704 67.432 57.7704 67.292C57.7704 67.12 57.8104 66.98 57.8904 66.872C57.9704 66.76 58.0724 66.672 58.1964 66.608C58.3244 66.54 58.4584 66.484 58.5984 66.44C58.7384 66.392 58.8704 66.348 58.9944 66.308C59.1184 66.264 59.2204 66.214 59.3004 66.158C59.3804 66.102 59.4204 66.028 59.4204 65.936V65.498C59.4204 65.37 59.4004 65.266 59.3604 65.186C59.3244 65.102 59.2684 65.04 59.1924 65C59.1204 64.956 59.0284 64.934 58.9164 64.934C58.8324 64.934 58.7444 64.946 58.6524 64.97C58.5604 64.994 58.4844 65.04 58.4244 65.108C58.5284 65.136 58.6084 65.188 58.6644 65.264C58.7244 65.34 58.7544 65.432 58.7544 65.54C58.7544 65.664 58.7124 65.762 58.6284 65.834C58.5484 65.902 58.4464 65.936 58.3224 65.936C58.1904 65.936 58.0904 65.894 58.0224 65.81C57.9544 65.726 57.9204 65.628 57.9204 65.516C57.9204 65.404 57.9484 65.312 58.0044 65.24C58.0604 65.164 58.1384 65.096 58.2384 65.036C58.3384 64.968 58.4664 64.914 58.6224 64.874C58.7784 64.834 58.9484 64.814 59.1324 64.814C59.3084 64.814 59.4644 64.834 59.6004 64.874C59.7364 64.91 59.8524 64.976 59.9484 65.072C60.0444 65.164 60.1064 65.278 60.1344 65.414C60.1624 65.55 60.1764 65.716 60.1764 65.912V67.556C60.1764 67.656 60.1884 67.728 60.2124 67.772C60.2364 67.812 60.2744 67.832 60.3264 67.832C60.3664 67.832 60.4044 67.822 60.4404 67.802C60.4764 67.782 60.5164 67.754 60.5604 67.718L60.6264 67.82C60.5384 67.888 60.4464 67.942 60.3504 67.982C60.2544 68.022 60.1384 68.042 60.0024 68.042C59.8624 68.042 59.7504 68.022 59.6664 67.982C59.5864 67.942 59.5264 67.884 59.4864 67.808C59.4504 67.732 59.4304 67.642 59.4264 67.538C59.3304 67.698 59.2124 67.822 59.0724 67.91C58.9324 67.998 58.7644 68.042 58.5684 68.042ZM58.9284 67.706C59.0244 67.706 59.1124 67.68 59.1924 67.628C59.2764 67.576 59.3524 67.498 59.4204 67.394V66.182C59.3804 66.242 59.3224 66.296 59.2464 66.344C59.1744 66.392 59.0964 66.44 59.0124 66.488C58.9284 66.536 58.8484 66.592 58.7724 66.656C58.7004 66.716 58.6384 66.792 58.5864 66.884C58.5384 66.972 58.5144 67.086 58.5144 67.226C58.5144 67.382 58.5524 67.502 58.6284 67.586C58.7044 67.666 58.8044 67.706 58.9284 67.706ZM62.0168 63.302V67.442C62.0168 67.61 62.0468 67.724 62.1068 67.784C62.1708 67.844 62.2768 67.874 62.4248 67.874V68C62.3528 67.996 62.2428 67.992 62.0948 67.988C61.9508 67.98 61.8028 67.976 61.6508 67.976C61.5028 67.976 61.3508 67.98 61.1948 67.988C61.0428 67.992 60.9288 67.996 60.8528 68V67.874C61.0008 67.874 61.1048 67.844 61.1648 67.784C61.2288 67.724 61.2608 67.61 61.2608 67.442V64.022C61.2608 63.842 61.2328 63.71 61.1768 63.626C61.1208 63.538 61.0128 63.494 60.8528 63.494V63.368C60.9808 63.38 61.1048 63.386 61.2248 63.386C61.3768 63.386 61.5188 63.38 61.6508 63.368C61.7828 63.352 61.9048 63.33 62.0168 63.302ZM62.8552 63.368H64.0012V69.086H62.8552V68.972H63.2452V63.482H62.8552V63.368Z" fill="black"/>
</svg>
