<svg width="990" height="83" viewBox="0 0 990 83" fill="none" xmlns="http://www.w3.org/2000/svg">
<path d="M13.888 83H3.008C1.216 83 0.320001 82.104 0.320001 80.312V3.384C0.320001 1.592 1.216 0.695999 3.008 0.695999H13.888C15.68 0.695999 16.576 1.592 16.576 3.384V33.464C16.576 34.4027 17.088 34.872 18.112 34.872H39.744C40.6827 34.872 41.152 34.4027 41.152 33.464V3.384C41.152 1.592 42.048 0.695999 43.84 0.695999H54.72C56.512 0.695999 57.408 1.592 57.408 3.384V80.312C57.408 82.104 56.512 83 54.72 83H43.84C42.048 83 41.152 82.104 41.152 80.312V50.36C41.152 49.4213 40.6827 48.952 39.744 48.952H18.112C17.088 48.952 16.576 49.4213 16.576 50.36V80.312C16.576 82.104 15.68 83 13.888 83ZM89.43 68.92H98.518C101.249 68.92 103.169 68.3653 104.278 67.256C105.473 66.0613 106.07 64.0987 106.07 61.368V22.328C106.07 19.5973 105.473 17.6773 104.278 16.568C103.169 15.3733 101.249 14.776 98.518 14.776H89.43C86.6993 14.776 84.7793 15.3733 83.67 16.568C82.5607 17.6773 82.006 19.5973 82.006 22.328V61.368C82.006 64.0987 82.5607 66.0613 83.67 67.256C84.7793 68.3653 86.6993 68.92 89.43 68.92ZM101.206 83H86.87C80.1287 83 74.9233 81.208 71.254 77.624C67.5847 74.04 65.75 68.8773 65.75 62.136V21.56C65.75 14.8187 67.5847 9.656 71.254 6.072C74.9233 2.488 80.1287 0.695999 86.87 0.695999H101.206C107.947 0.695999 113.153 2.488 116.822 6.072C120.491 9.656 122.326 14.8187 122.326 21.56V62.136C122.326 68.8773 120.491 74.04 116.822 77.624C113.153 81.208 107.947 83 101.206 83ZM175.415 83H133.303C131.511 83 130.615 82.104 130.615 80.312V3.384C130.615 1.592 131.511 0.695999 133.303 0.695999H144.183C145.975 0.695999 146.871 1.592 146.871 3.384V67.384C146.871 68.3227 147.383 68.792 148.407 68.792H175.415C177.122 68.792 177.975 69.7307 177.975 71.608V80.312C177.975 82.104 177.122 83 175.415 83ZM198.739 68.92H212.691C215.422 68.92 217.342 68.3653 218.451 67.256C219.646 66.0613 220.243 64.0987 220.243 61.368V22.328C220.243 19.5973 219.646 17.6773 218.451 16.568C217.342 15.3733 215.422 14.776 212.691 14.776H198.739C197.8 14.776 197.331 15.2453 197.331 16.184V67.512C197.331 68.4507 197.8 68.92 198.739 68.92ZM181.075 80.312V3.384C181.075 1.592 181.971 0.695999 183.763 0.695999H215.379C222.035 0.695999 227.198 2.53067 230.867 6.2C234.622 9.784 236.499 14.904 236.499 21.56V62.136C236.499 68.792 234.622 73.9547 230.867 77.624C227.198 81.208 222.035 83 215.379 83H183.763C181.971 83 181.075 82.104 181.075 80.312ZM288.27 68.92H297.358C300.089 68.92 302.009 68.3653 303.118 67.256C304.313 66.0613 304.91 64.0987 304.91 61.368V22.328C304.91 19.5973 304.313 17.6773 303.118 16.568C302.009 15.3733 300.089 14.776 297.358 14.776H288.27C285.539 14.776 283.619 15.3733 282.51 16.568C281.401 17.6773 280.846 19.5973 280.846 22.328V61.368C280.846 64.0987 281.401 66.0613 282.51 67.256C283.619 68.3653 285.539 68.92 288.27 68.92ZM300.046 83H285.71C278.969 83 273.763 81.208 270.094 77.624C266.425 74.04 264.59 68.8773 264.59 62.136V21.56C264.59 14.8187 266.425 9.656 270.094 6.072C273.763 2.488 278.969 0.695999 285.71 0.695999H300.046C306.787 0.695999 311.993 2.488 315.662 6.072C319.331 9.656 321.166 14.8187 321.166 21.56V62.136C321.166 68.8773 319.331 74.04 315.662 77.624C311.993 81.208 306.787 83 300.046 83ZM342.767 83H332.143C330.351 83 329.455 82.104 329.455 80.312V3.384C329.455 1.592 330.351 0.695999 332.143 0.695999H341.743C343.535 0.695999 344.73 1.29333 345.327 2.488L371.183 51H371.695V3.384C371.695 1.592 372.591 0.695999 374.383 0.695999H385.007C386.799 0.695999 387.695 1.592 387.695 3.384V80.312C387.695 82.104 386.799 83 385.007 83H375.663C373.786 83 372.42 82.1467 371.567 80.44L345.967 32.824H345.455V80.312C345.455 82.104 344.559 83 342.767 83ZM443.847 83H433.095C431.218 83 430.279 82.104 430.279 80.312V16.184C430.279 15.2453 429.81 14.776 428.871 14.776H414.279C412.487 14.776 411.591 13.88 411.591 12.088V3.384C411.591 1.592 412.487 0.695999 414.279 0.695999H462.663C464.455 0.695999 465.351 1.592 465.351 3.384V12.088C465.351 13.88 464.455 14.776 462.663 14.776H448.071C447.047 14.776 446.535 15.2453 446.535 16.184V80.312C446.535 82.104 445.639 83 443.847 83ZM490.485 68.92H499.573C502.304 68.92 504.224 68.3653 505.333 67.256C506.528 66.0613 507.125 64.0987 507.125 61.368V22.328C507.125 19.5973 506.528 17.6773 505.333 16.568C504.224 15.3733 502.304 14.776 499.573 14.776H490.485C487.754 14.776 485.834 15.3733 484.725 16.568C483.616 17.6773 483.061 19.5973 483.061 22.328V61.368C483.061 64.0987 483.616 66.0613 484.725 67.256C485.834 68.3653 487.754 68.92 490.485 68.92ZM502.261 83H487.925C481.184 83 475.978 81.208 472.309 77.624C468.64 74.04 466.805 68.8773 466.805 62.136V21.56C466.805 14.8187 468.64 9.656 472.309 6.072C475.978 2.488 481.184 0.695999 487.925 0.695999H502.261C509.002 0.695999 514.208 2.488 517.877 6.072C521.546 9.656 523.381 14.8187 523.381 21.56V62.136C523.381 68.8773 521.546 74.04 517.877 77.624C514.208 81.208 509.002 83 502.261 83ZM578.227 83H567.475C565.598 83 564.659 82.104 564.659 80.312V16.184C564.659 15.2453 564.19 14.776 563.251 14.776H548.659C546.867 14.776 545.971 13.88 545.971 12.088V3.384C545.971 1.592 546.867 0.695999 548.659 0.695999H597.043C598.835 0.695999 599.731 1.592 599.731 3.384V12.088C599.731 13.88 598.835 14.776 597.043 14.776H582.451C581.427 14.776 580.915 15.2453 580.915 16.184V80.312C580.915 82.104 580.019 83 578.227 83ZM616.033 83H605.153C603.361 83 602.465 82.104 602.465 80.312V3.384C602.465 1.592 603.361 0.695999 605.153 0.695999H616.033C617.825 0.695999 618.721 1.592 618.721 3.384V33.464C618.721 34.4027 619.233 34.872 620.257 34.872H641.889C642.828 34.872 643.297 34.4027 643.297 33.464V3.384C643.297 1.592 644.193 0.695999 645.985 0.695999H656.865C658.657 0.695999 659.553 1.592 659.553 3.384V80.312C659.553 82.104 658.657 83 656.865 83H645.985C644.193 83 643.297 82.104 643.297 80.312V50.36C643.297 49.4213 642.828 48.952 641.889 48.952H620.257C619.233 48.952 618.721 49.4213 618.721 50.36V80.312C618.721 82.104 617.825 83 616.033 83ZM713.719 83H671.863C670.071 83 669.175 82.104 669.175 80.312V3.384C669.175 1.592 670.071 0.695999 671.863 0.695999H713.719C715.426 0.695999 716.279 1.592 716.279 3.384V12.088C716.279 13.88 715.426 14.776 713.719 14.776H686.967C685.943 14.776 685.431 15.2453 685.431 16.184V32.824C685.431 33.7627 685.943 34.232 686.967 34.232H708.855C710.647 34.232 711.543 35.128 711.543 36.92V45.624C711.543 47.416 710.647 48.312 708.855 48.312H686.967C685.943 48.312 685.431 48.7813 685.431 49.72V67.512C685.431 68.4507 685.943 68.92 686.967 68.92H713.719C715.426 68.92 716.279 69.816 716.279 71.608V80.312C716.279 82.104 715.426 83 713.719 83ZM777.878 83H764.31C757.569 83 752.363 81.208 748.694 77.624C745.025 74.04 743.19 68.8773 743.19 62.136V21.56C743.19 14.8187 745.025 9.656 748.694 6.072C752.363 2.488 757.569 0.695999 764.31 0.695999H777.878C784.534 0.695999 789.697 2.53067 793.366 6.2C797.035 9.784 798.87 14.904 798.87 21.56V25.4C798.87 27.2773 797.974 28.216 796.182 28.216H785.302C783.51 28.216 782.614 27.2773 782.614 25.4V22.328C782.614 19.5973 782.059 17.6773 780.95 16.568C779.841 15.3733 777.921 14.776 775.19 14.776H766.87C764.225 14.776 762.305 15.3733 761.11 16.568C760.001 17.6773 759.446 19.5973 759.446 22.328V61.368C759.446 64.0987 760.001 66.0613 761.11 67.256C762.305 68.3653 764.225 68.92 766.87 68.92H775.19C777.921 68.92 779.841 68.3653 780.95 67.256C782.059 66.0613 782.614 64.0987 782.614 61.368V53.304C782.614 52.3653 782.145 51.896 781.206 51.896H773.526C771.734 51.896 770.838 51 770.838 49.208V40.504C770.838 38.712 771.734 37.816 773.526 37.816H795.926C797.889 37.816 798.87 38.7973 798.87 40.76V62.136C798.87 68.792 797.035 73.9547 793.366 77.624C789.697 81.208 784.534 83 777.878 83ZM829.58 68.92H838.668C841.399 68.92 843.319 68.3653 844.428 67.256C845.623 66.0613 846.22 64.0987 846.22 61.368V22.328C846.22 19.5973 845.623 17.6773 844.428 16.568C843.319 15.3733 841.399 14.776 838.668 14.776H829.58C826.849 14.776 824.929 15.3733 823.82 16.568C822.711 17.6773 822.156 19.5973 822.156 22.328V61.368C822.156 64.0987 822.711 66.0613 823.82 67.256C824.929 68.3653 826.849 68.92 829.58 68.92ZM841.356 83H827.02C820.279 83 815.073 81.208 811.404 77.624C807.735 74.04 805.9 68.8773 805.9 62.136V21.56C805.9 14.8187 807.735 9.656 811.404 6.072C815.073 2.488 820.279 0.695999 827.02 0.695999H841.356C848.097 0.695999 853.303 2.488 856.972 6.072C860.641 9.656 862.476 14.8187 862.476 21.56V62.136C862.476 68.8773 860.641 74.04 856.972 77.624C853.303 81.208 848.097 83 841.356 83ZM893.165 68.92H902.253C904.984 68.92 906.904 68.3653 908.013 67.256C909.208 66.0613 909.805 64.0987 909.805 61.368V22.328C909.805 19.5973 909.208 17.6773 908.013 16.568C906.904 15.3733 904.984 14.776 902.253 14.776H893.165C890.434 14.776 888.514 15.3733 887.405 16.568C886.296 17.6773 885.741 19.5973 885.741 22.328V61.368C885.741 64.0987 886.296 66.0613 887.405 67.256C888.514 68.3653 890.434 68.92 893.165 68.92ZM904.941 83H890.605C883.864 83 878.658 81.208 874.989 77.624C871.32 74.04 869.485 68.8773 869.485 62.136V21.56C869.485 14.8187 871.32 9.656 874.989 6.072C878.658 2.488 883.864 0.695999 890.605 0.695999H904.941C911.682 0.695999 916.888 2.488 920.557 6.072C924.226 9.656 926.061 14.8187 926.061 21.56V62.136C926.061 68.8773 924.226 74.04 920.557 77.624C916.888 81.208 911.682 83 904.941 83ZM952.014 68.92H965.966C968.697 68.92 970.617 68.3653 971.726 67.256C972.921 66.0613 973.518 64.0987 973.518 61.368V22.328C973.518 19.5973 972.921 17.6773 971.726 16.568C970.617 15.3733 968.697 14.776 965.966 14.776H952.014C951.075 14.776 950.606 15.2453 950.606 16.184V67.512C950.606 68.4507 951.075 68.92 952.014 68.92ZM934.35 80.312V3.384C934.35 1.592 935.246 0.695999 937.038 0.695999H968.654C975.31 0.695999 980.473 2.53067 984.142 6.2C987.897 9.784 989.774 14.904 989.774 21.56V62.136C989.774 68.792 987.897 73.9547 984.142 77.624C980.473 81.208 975.31 83 968.654 83H937.038C935.246 83 934.35 82.104 934.35 80.312Z" fill="white"/>
</svg>
