<svg width="142" height="145" viewBox="0 0 142 145" fill="none" xmlns="http://www.w3.org/2000/svg">
<path d="M67.68 12.296H33.504V28.424H60.48V39.08H33.504V65H20.256V1.64H67.68V12.296Z" fill="black"/>
<path d="M126.496 47.528C125.28 51.624 123.36 55.048 120.736 57.8C118.112 60.552 115.008 62.6 111.424 63.944C107.84 65.288 103.904 65.96 99.616 65.96C93.344 65.96 87.904 64.648 83.296 62.024C78.752 59.4 75.232 55.656 72.736 50.792C70.304 45.928 69.088 40.104 69.088 33.32C69.088 26.536 70.304 20.712 72.736 15.848C75.232 10.984 78.752 7.24 83.296 4.616C87.904 1.992 93.28 0.679998 99.424 0.679998C103.776 0.679998 107.712 1.288 111.232 2.504C114.752 3.656 117.728 5.448 120.16 7.88C122.656 10.312 124.48 13.384 125.632 17.096L113.632 22.184C112.544 18.344 110.88 15.624 108.64 14.024C106.4 12.36 103.52 11.528 100 11.528C96.544 11.528 93.504 12.36 90.88 14.024C88.32 15.688 86.336 18.152 84.928 21.416C83.52 24.616 82.816 28.584 82.816 33.32C82.816 37.992 83.456 41.96 84.736 45.224C86.08 48.488 88.032 50.952 90.592 52.616C93.152 54.28 96.288 55.112 100 55.112C103.456 55.112 106.432 54.184 108.928 52.328C111.488 50.472 113.28 47.656 114.304 43.88L126.496 47.528Z" fill="black"/>
<path d="M51.59 89.92C51.5633 90.2067 51.5433 90.4833 51.53 90.75C51.5233 91.0167 51.52 91.22 51.52 91.36C51.52 91.5133 51.5233 91.6567 51.53 91.79C51.5367 91.9233 51.5433 92.04 51.55 92.14H51.32C51.2467 91.64 51.1467 91.2467 51.02 90.96C50.8933 90.6667 50.7233 90.46 50.51 90.34C50.2967 90.2133 50.0133 90.15 49.66 90.15H49.23C49.03 90.15 48.8767 90.1667 48.77 90.2C48.6633 90.2333 48.59 90.3033 48.55 90.41C48.5167 90.5167 48.5 90.68 48.5 90.9V95.9C48.5 96.1533 48.5267 96.3433 48.58 96.47C48.6333 96.5967 48.7367 96.68 48.89 96.72C49.0433 96.76 49.2633 96.7833 49.55 96.79V97C49.3567 96.9867 49.1067 96.98 48.8 96.98C48.4933 96.9733 48.1767 96.97 47.85 96.97C47.57 96.97 47.3 96.9733 47.04 96.98C46.78 96.98 46.5533 96.9867 46.36 97V96.8C46.58 96.7867 46.7433 96.76 46.85 96.72C46.9633 96.68 47.0367 96.6 47.07 96.48C47.11 96.36 47.13 96.18 47.13 95.94V90.98C47.13 90.7333 47.11 90.5533 47.07 90.44C47.0367 90.32 46.9633 90.24 46.85 90.2C46.7433 90.1533 46.58 90.1267 46.36 90.12V89.92C46.6267 89.9267 46.9067 89.9333 47.2 89.94C47.5 89.94 47.7933 89.9433 48.08 89.95C48.3733 89.95 48.6433 89.95 48.89 89.95C49.1433 89.95 49.3467 89.95 49.5 89.95C49.8067 89.95 50.1533 89.95 50.54 89.95C50.9333 89.9433 51.2833 89.9333 51.59 89.92ZM50.08 93.4C50.08 93.4 50.08 93.4333 50.08 93.5C50.08 93.5667 50.08 93.6 50.08 93.6H48.2C48.2 93.6 48.2 93.5667 48.2 93.5C48.2 93.4333 48.2 93.4 48.2 93.4H50.08ZM50.31 92.08C50.2833 92.46 50.27 92.75 50.27 92.95C50.2767 93.15 50.28 93.3333 50.28 93.5C50.28 93.6667 50.2833 93.85 50.29 94.05C50.2967 94.25 50.3133 94.54 50.34 94.92H50.11C50.0833 94.6933 50.0333 94.48 49.96 94.28C49.8867 94.0733 49.7733 93.91 49.62 93.79C49.4733 93.6633 49.26 93.6 48.98 93.6V93.4C49.1867 93.4 49.3567 93.3567 49.49 93.27C49.6233 93.1833 49.7267 93.0733 49.8 92.94C49.88 92.8 49.94 92.6567 49.98 92.51C50.0267 92.3567 50.06 92.2133 50.08 92.08H50.31ZM53.4996 89.28C53.7396 89.28 53.9363 89.3467 54.0896 89.48C54.2429 89.6133 54.3196 89.79 54.3196 90.01C54.3196 90.23 54.2429 90.4067 54.0896 90.54C53.9363 90.6733 53.7396 90.74 53.4996 90.74C53.2596 90.74 53.0629 90.6733 52.9096 90.54C52.7563 90.4067 52.6796 90.23 52.6796 90.01C52.6796 89.79 52.7563 89.6133 52.9096 89.48C53.0629 89.3467 53.2596 89.28 53.4996 89.28ZM54.1996 91.72V96.07C54.1996 96.35 54.2496 96.54 54.3496 96.64C54.4563 96.74 54.6329 96.79 54.8796 96.79V97C54.7596 96.9933 54.5763 96.9867 54.3296 96.98C54.0829 96.9667 53.8329 96.96 53.5796 96.96C53.3329 96.96 53.0829 96.9667 52.8296 96.98C52.5763 96.9867 52.3863 96.9933 52.2596 97V96.79C52.5063 96.79 52.6796 96.74 52.7796 96.64C52.8863 96.54 52.9396 96.35 52.9396 96.07V92.93C52.9396 92.6233 52.8896 92.4 52.7896 92.26C52.6963 92.1133 52.5196 92.04 52.2596 92.04V91.83C52.4729 91.85 52.6796 91.86 52.8796 91.86C53.1263 91.86 53.3596 91.85 53.5796 91.83C53.8063 91.8033 54.0129 91.7667 54.1996 91.72ZM59.0758 91.69C59.3558 91.69 59.5791 91.7267 59.7458 91.8C59.9191 91.8733 60.0591 91.9667 60.1658 92.08C60.2858 92.2067 60.3691 92.37 60.4158 92.57C60.4691 92.77 60.4958 93.04 60.4958 93.38V96.07C60.4958 96.35 60.5458 96.54 60.6458 96.64C60.7524 96.74 60.9291 96.79 61.1758 96.79V97C61.0558 96.9933 60.8691 96.9867 60.6158 96.98C60.3691 96.9667 60.1291 96.96 59.8958 96.96C59.6491 96.96 59.4091 96.9667 59.1758 96.98C58.9424 96.9867 58.7691 96.9933 58.6558 97V96.79C58.8691 96.79 59.0191 96.74 59.1058 96.64C59.1924 96.54 59.2358 96.35 59.2358 96.07V93.04C59.2358 92.86 59.2191 92.7 59.1858 92.56C59.1524 92.4133 59.0858 92.3 58.9858 92.22C58.8858 92.1333 58.7424 92.09 58.5558 92.09C58.3358 92.09 58.1391 92.15 57.9658 92.27C57.7991 92.39 57.6658 92.5567 57.5658 92.77C57.4724 92.9767 57.4258 93.21 57.4258 93.47V96.07C57.4258 96.35 57.4691 96.54 57.5558 96.64C57.6424 96.74 57.7924 96.79 58.0058 96.79V97C57.8924 96.9933 57.7224 96.9867 57.4958 96.98C57.2691 96.9667 57.0391 96.96 56.8058 96.96C56.5591 96.96 56.3091 96.9667 56.0558 96.98C55.8024 96.9867 55.6124 96.9933 55.4858 97V96.79C55.7324 96.79 55.9058 96.74 56.0058 96.64C56.1124 96.54 56.1658 96.35 56.1658 96.07V92.92C56.1658 92.62 56.1158 92.4 56.0158 92.26C55.9224 92.1133 55.7458 92.04 55.4858 92.04V91.83C55.6991 91.85 55.9058 91.86 56.1058 91.86C56.3524 91.86 56.5858 91.85 56.8058 91.83C57.0324 91.8033 57.2391 91.7667 57.4258 91.72V92.72C57.5924 92.34 57.8224 92.0733 58.1158 91.92C58.4091 91.7667 58.7291 91.69 59.0758 91.69ZM64.2398 91.69C64.8264 91.69 65.2864 91.8667 65.6198 92.22C65.9531 92.5733 66.1198 93.1367 66.1198 93.91H62.7498L62.7398 93.72H64.9598C64.9731 93.3933 64.9531 93.0933 64.8998 92.82C64.8464 92.54 64.7598 92.3167 64.6398 92.15C64.5264 91.9833 64.3764 91.9 64.1898 91.9C63.9364 91.9 63.7164 92.05 63.5298 92.35C63.3431 92.6433 63.2264 93.1267 63.1798 93.8L63.2198 93.86C63.2064 93.9467 63.1964 94.04 63.1898 94.14C63.1898 94.24 63.1898 94.34 63.1898 94.44C63.1898 94.9 63.2564 95.28 63.3898 95.58C63.5231 95.88 63.6964 96.1 63.9098 96.24C64.1231 96.38 64.3431 96.45 64.5698 96.45C64.7231 96.45 64.8798 96.4267 65.0398 96.38C65.1998 96.3333 65.3564 96.2467 65.5098 96.12C65.6631 95.9933 65.8031 95.8133 65.9298 95.58L66.1198 95.66C66.0464 95.8933 65.9231 96.1267 65.7498 96.36C65.5831 96.5867 65.3664 96.7733 65.0998 96.92C64.8331 97.0667 64.5198 97.14 64.1598 97.14C63.7064 97.14 63.3064 97.04 62.9598 96.84C62.6131 96.64 62.3431 96.3433 62.1498 95.95C61.9564 95.55 61.8598 95.0633 61.8598 94.49C61.8598 93.8833 61.9598 93.3733 62.1598 92.96C62.3664 92.5467 62.6498 92.2333 63.0098 92.02C63.3698 91.8 63.7798 91.69 64.2398 91.69ZM73.0812 89.78C73.5212 89.78 73.8812 89.8467 74.1612 89.98C74.4478 90.1067 74.7012 90.2567 74.9212 90.43C75.0545 90.53 75.1545 90.5433 75.2212 90.47C75.2945 90.39 75.3445 90.2067 75.3712 89.92H75.6012C75.5878 90.1733 75.5778 90.4833 75.5712 90.85C75.5645 91.2167 75.5612 91.7 75.5612 92.3H75.3312C75.2912 92 75.2478 91.75 75.2012 91.55C75.1545 91.3433 75.0878 91.1667 75.0012 91.02C74.9212 90.8733 74.8078 90.7333 74.6612 90.6C74.4812 90.4 74.2645 90.2533 74.0112 90.16C73.7645 90.06 73.5045 90.01 73.2312 90.01C72.8845 90.01 72.5812 90.1033 72.3212 90.29C72.0678 90.47 71.8545 90.72 71.6812 91.04C71.5145 91.3533 71.3878 91.72 71.3012 92.14C71.2212 92.56 71.1812 93.0067 71.1812 93.48C71.1812 93.9667 71.2245 94.42 71.3112 94.84C71.4045 95.2533 71.5378 95.6167 71.7112 95.93C71.8912 96.2367 72.1112 96.4767 72.3712 96.65C72.6378 96.8233 72.9445 96.91 73.2912 96.91C73.5378 96.91 73.7912 96.8633 74.0512 96.77C74.3112 96.6767 74.5245 96.5333 74.6912 96.34C74.9112 96.14 75.0612 95.9033 75.1412 95.63C75.2212 95.35 75.2845 94.98 75.3312 94.52H75.5612C75.5612 95.1467 75.5645 95.6533 75.5712 96.04C75.5778 96.42 75.5878 96.74 75.6012 97H75.3712C75.3445 96.7133 75.2978 96.5333 75.2312 96.46C75.1712 96.3867 75.0678 96.3967 74.9212 96.49C74.6745 96.6633 74.4112 96.8167 74.1312 96.95C73.8578 97.0767 73.5045 97.14 73.0712 97.14C72.3912 97.14 71.7945 96.9967 71.2812 96.71C70.7678 96.4233 70.3678 96.01 70.0812 95.47C69.8012 94.93 69.6612 94.28 69.6612 93.52C69.6612 92.7733 69.8078 92.12 70.1012 91.56C70.3945 91 70.7978 90.5633 71.3112 90.25C71.8245 89.9367 72.4145 89.78 73.0812 89.78ZM79.9331 91.69C80.1398 91.69 80.3098 91.7333 80.4431 91.82C80.5831 91.9067 80.6865 92.0167 80.7531 92.15C80.8198 92.2833 80.8531 92.4233 80.8531 92.57C80.8531 92.79 80.7865 92.9733 80.6531 93.12C80.5265 93.2667 80.3565 93.34 80.1431 93.34C79.9431 93.34 79.7798 93.2867 79.6531 93.18C79.5265 93.0733 79.4631 92.9267 79.4631 92.74C79.4631 92.5733 79.5031 92.4333 79.5831 92.32C79.6698 92.2067 79.7665 92.1167 79.8731 92.05C79.7998 92.01 79.7165 91.9967 79.6231 92.01C79.4631 92.0233 79.3165 92.08 79.1831 92.18C79.0498 92.28 78.9365 92.4033 78.8431 92.55C78.7498 92.6967 78.6765 92.8533 78.6231 93.02C78.5765 93.1867 78.5531 93.3467 78.5531 93.5V95.97C78.5531 96.2967 78.6365 96.5167 78.8031 96.63C78.9698 96.7367 79.2131 96.79 79.5331 96.79V97C79.3798 96.9933 79.1565 96.9867 78.8631 96.98C78.5765 96.9667 78.2765 96.96 77.9631 96.96C77.7031 96.96 77.4431 96.9667 77.1831 96.98C76.9298 96.9867 76.7398 96.9933 76.6131 97V96.79C76.8598 96.79 77.0331 96.74 77.1331 96.64C77.2398 96.54 77.2931 96.35 77.2931 96.07V92.92C77.2931 92.62 77.2431 92.4 77.1431 92.26C77.0498 92.1133 76.8731 92.04 76.6131 92.04V91.83C76.8265 91.85 77.0331 91.86 77.2331 91.86C77.4798 91.86 77.7131 91.85 77.9331 91.83C78.1598 91.8033 78.3665 91.7667 78.5531 91.72V92.76C78.6331 92.5733 78.7365 92.4 78.8631 92.24C78.9965 92.08 79.1531 91.95 79.3331 91.85C79.5198 91.7433 79.7198 91.69 79.9331 91.69ZM82.743 97.07C82.4563 97.07 82.213 97.0167 82.013 96.91C81.813 96.7967 81.663 96.6467 81.563 96.46C81.463 96.2667 81.413 96.0533 81.413 95.82C81.413 95.5333 81.4796 95.3 81.613 95.12C81.7463 94.9333 81.9163 94.7867 82.123 94.68C82.3363 94.5667 82.5596 94.4733 82.793 94.4C83.0263 94.32 83.2463 94.2467 83.453 94.18C83.6596 94.1067 83.8296 94.0233 83.963 93.93C84.0963 93.8367 84.163 93.7133 84.163 93.56V92.83C84.163 92.6167 84.1296 92.4433 84.063 92.31C84.003 92.17 83.9096 92.0667 83.783 92C83.663 91.9267 83.5096 91.89 83.323 91.89C83.183 91.89 83.0363 91.91 82.883 91.95C82.7296 91.99 82.603 92.0667 82.503 92.18C82.6763 92.2267 82.8096 92.3133 82.903 92.44C83.003 92.5667 83.053 92.72 83.053 92.9C83.053 93.1067 82.983 93.27 82.843 93.39C82.7096 93.5033 82.5396 93.56 82.333 93.56C82.113 93.56 81.9463 93.49 81.833 93.35C81.7196 93.21 81.663 93.0467 81.663 92.86C81.663 92.6733 81.7096 92.52 81.803 92.4C81.8963 92.2733 82.0263 92.16 82.193 92.06C82.3596 91.9467 82.573 91.8567 82.833 91.79C83.093 91.7233 83.3763 91.69 83.683 91.69C83.9763 91.69 84.2363 91.7233 84.463 91.79C84.6896 91.85 84.883 91.96 85.043 92.12C85.203 92.2733 85.3063 92.4633 85.353 92.69C85.3996 92.9167 85.423 93.1933 85.423 93.52V96.26C85.423 96.4267 85.443 96.5467 85.483 96.62C85.523 96.6867 85.5863 96.72 85.673 96.72C85.7396 96.72 85.803 96.7033 85.863 96.67C85.923 96.6367 85.9896 96.59 86.063 96.53L86.173 96.7C86.0263 96.8133 85.873 96.9033 85.713 96.97C85.553 97.0367 85.3596 97.07 85.133 97.07C84.8996 97.07 84.713 97.0367 84.573 96.97C84.4396 96.9033 84.3396 96.8067 84.273 96.68C84.213 96.5533 84.1796 96.4033 84.173 96.23C84.013 96.4967 83.8163 96.7033 83.583 96.85C83.3496 96.9967 83.0696 97.07 82.743 97.07ZM83.343 96.51C83.503 96.51 83.6496 96.4667 83.783 96.38C83.923 96.2933 84.0496 96.1633 84.163 95.99V93.97C84.0963 94.07 83.9996 94.16 83.873 94.24C83.753 94.32 83.623 94.4 83.483 94.48C83.343 94.56 83.2096 94.6533 83.083 94.76C82.963 94.86 82.8596 94.9867 82.773 95.14C82.693 95.2867 82.653 95.4767 82.653 95.71C82.653 95.97 82.7163 96.17 82.843 96.31C82.9696 96.4433 83.1363 96.51 83.343 96.51ZM89.1904 89.18C89.4104 89.18 89.6004 89.21 89.7604 89.27C89.9271 89.3233 90.0704 89.3967 90.1904 89.49C90.2904 89.57 90.3704 89.67 90.4304 89.79C90.4971 89.91 90.5304 90.0433 90.5304 90.19C90.5304 90.37 90.4671 90.5233 90.3404 90.65C90.2204 90.7767 90.0671 90.84 89.8804 90.84C89.6804 90.84 89.5137 90.7833 89.3804 90.67C89.2537 90.55 89.1904 90.3867 89.1904 90.18C89.1904 90.02 89.2337 89.8833 89.3204 89.77C89.4137 89.65 89.5437 89.5667 89.7104 89.52C89.6904 89.4733 89.6471 89.4333 89.5804 89.4C89.5137 89.3667 89.4237 89.35 89.3104 89.35C89.1771 89.35 89.0604 89.3767 88.9604 89.43C88.8671 89.4833 88.7904 89.5567 88.7304 89.65C88.6637 89.7633 88.6171 89.93 88.5904 90.15C88.5637 90.37 88.5504 90.7033 88.5504 91.15V91.84H89.6204V92.04H88.5504V95.97C88.5504 96.2967 88.6371 96.5167 88.8104 96.63C88.9904 96.7367 89.2304 96.79 89.5304 96.79V97C89.3637 96.9933 89.1304 96.9867 88.8304 96.98C88.5304 96.9667 88.2104 96.96 87.8704 96.96C87.6304 96.96 87.3904 96.9667 87.1504 96.98C86.9104 96.9867 86.7304 96.9933 86.6104 97V96.79C86.8571 96.79 87.0304 96.74 87.1304 96.64C87.2371 96.54 87.2904 96.35 87.2904 96.07V92.04H86.5704V91.84H87.2904C87.2904 91.4467 87.3104 91.12 87.3504 90.86C87.3904 90.5933 87.4504 90.3667 87.5304 90.18C87.6171 89.9933 87.7337 89.8267 87.8804 89.68C88.0204 89.5333 88.2037 89.4133 88.4304 89.32C88.6637 89.2267 88.9171 89.18 89.1904 89.18ZM92.0977 90.19V91.84H93.3777V92.04H92.0977V96.02C92.0977 96.26 92.141 96.43 92.2277 96.53C92.3143 96.63 92.4377 96.68 92.5977 96.68C92.751 96.68 92.891 96.6233 93.0177 96.51C93.1443 96.39 93.2577 96.1933 93.3577 95.92L93.5377 96C93.4377 96.3267 93.281 96.6 93.0677 96.82C92.861 97.0333 92.5677 97.14 92.1877 97.14C91.961 97.14 91.7677 97.11 91.6077 97.05C91.4543 96.9967 91.321 96.9167 91.2077 96.81C91.061 96.6567 90.961 96.4733 90.9077 96.26C90.861 96.0467 90.8377 95.7633 90.8377 95.41V92.04H89.9577V91.84H90.8377V90.45C91.0777 90.4433 91.301 90.42 91.5077 90.38C91.7143 90.34 91.911 90.2767 92.0977 90.19Z" fill="black"/>
<path d="M35.77 101.28V101.47H35.12V110.62H35.77V110.81H33.86V101.28H35.77ZM44.4271 101.92C44.4004 102.207 44.3804 102.483 44.3671 102.75C44.3604 103.017 44.3571 103.22 44.3571 103.36C44.3571 103.513 44.3604 103.657 44.3671 103.79C44.3738 103.923 44.3804 104.04 44.3871 104.14H44.1571C44.0838 103.64 43.9838 103.247 43.8571 102.96C43.7304 102.667 43.5604 102.46 43.3471 102.34C43.1338 102.213 42.8504 102.15 42.4971 102.15H42.0671C41.8671 102.15 41.7138 102.167 41.6071 102.2C41.5004 102.233 41.4271 102.303 41.3871 102.41C41.3538 102.517 41.3371 102.68 41.3371 102.9V107.9C41.3371 108.153 41.3638 108.343 41.4171 108.47C41.4704 108.597 41.5738 108.68 41.7271 108.72C41.8804 108.76 42.1004 108.783 42.3871 108.79V109C42.1938 108.987 41.9438 108.98 41.6371 108.98C41.3304 108.973 41.0138 108.97 40.6871 108.97C40.4071 108.97 40.1371 108.973 39.8771 108.98C39.6171 108.98 39.3904 108.987 39.1971 109V108.8C39.4171 108.787 39.5804 108.76 39.6871 108.72C39.8004 108.68 39.8738 108.6 39.9071 108.48C39.9471 108.36 39.9671 108.18 39.9671 107.94V102.98C39.9671 102.733 39.9471 102.553 39.9071 102.44C39.8738 102.32 39.8004 102.24 39.6871 102.2C39.5804 102.153 39.4171 102.127 39.1971 102.12V101.92C39.4638 101.927 39.7438 101.933 40.0371 101.94C40.3371 101.94 40.6304 101.943 40.9171 101.95C41.2104 101.95 41.4804 101.95 41.7271 101.95C41.9804 101.95 42.1838 101.95 42.3371 101.95C42.6438 101.95 42.9904 101.95 43.3771 101.95C43.7704 101.943 44.1204 101.933 44.4271 101.92ZM42.9171 105.4C42.9171 105.4 42.9171 105.433 42.9171 105.5C42.9171 105.567 42.9171 105.6 42.9171 105.6H41.0371C41.0371 105.6 41.0371 105.567 41.0371 105.5C41.0371 105.433 41.0371 105.4 41.0371 105.4H42.9171ZM43.1471 104.08C43.1204 104.46 43.1071 104.75 43.1071 104.95C43.1138 105.15 43.1171 105.333 43.1171 105.5C43.1171 105.667 43.1204 105.85 43.1271 106.05C43.1338 106.25 43.1504 106.54 43.1771 106.92H42.9471C42.9204 106.693 42.8704 106.48 42.7971 106.28C42.7238 106.073 42.6104 105.91 42.4571 105.79C42.3104 105.663 42.0971 105.6 41.8171 105.6V105.4C42.0238 105.4 42.1938 105.357 42.3271 105.27C42.4604 105.183 42.5638 105.073 42.6371 104.94C42.7171 104.8 42.7771 104.657 42.8171 104.51C42.8638 104.357 42.8971 104.213 42.9171 104.08H43.1471ZM46.3367 101.28C46.5767 101.28 46.7734 101.347 46.9267 101.48C47.0801 101.613 47.1567 101.79 47.1567 102.01C47.1567 102.23 47.0801 102.407 46.9267 102.54C46.7734 102.673 46.5767 102.74 46.3367 102.74C46.0967 102.74 45.9001 102.673 45.7467 102.54C45.5934 102.407 45.5167 102.23 45.5167 102.01C45.5167 101.79 45.5934 101.613 45.7467 101.48C45.9001 101.347 46.0967 101.28 46.3367 101.28ZM47.0367 103.72V108.07C47.0367 108.35 47.0867 108.54 47.1867 108.64C47.2934 108.74 47.4701 108.79 47.7167 108.79V109C47.5967 108.993 47.4134 108.987 47.1667 108.98C46.9201 108.967 46.6701 108.96 46.4167 108.96C46.1701 108.96 45.9201 108.967 45.6667 108.98C45.4134 108.987 45.2234 108.993 45.0967 109V108.79C45.3434 108.79 45.5167 108.74 45.6167 108.64C45.7234 108.54 45.7767 108.35 45.7767 108.07V104.93C45.7767 104.623 45.7267 104.4 45.6267 104.26C45.5334 104.113 45.3567 104.04 45.0967 104.04V103.83C45.3101 103.85 45.5167 103.86 45.7167 103.86C45.9634 103.86 46.1967 103.85 46.4167 103.83C46.6434 103.803 46.8501 103.767 47.0367 103.72ZM51.9129 103.69C52.1929 103.69 52.4162 103.727 52.5829 103.8C52.7562 103.873 52.8962 103.967 53.0029 104.08C53.1229 104.207 53.2062 104.37 53.2529 104.57C53.3062 104.77 53.3329 105.04 53.3329 105.38V108.07C53.3329 108.35 53.3829 108.54 53.4829 108.64C53.5896 108.74 53.7662 108.79 54.0129 108.79V109C53.8929 108.993 53.7062 108.987 53.4529 108.98C53.2062 108.967 52.9662 108.96 52.7329 108.96C52.4862 108.96 52.2462 108.967 52.0129 108.98C51.7796 108.987 51.6062 108.993 51.4929 109V108.79C51.7062 108.79 51.8562 108.74 51.9429 108.64C52.0296 108.54 52.0729 108.35 52.0729 108.07V105.04C52.0729 104.86 52.0562 104.7 52.0229 104.56C51.9896 104.413 51.9229 104.3 51.8229 104.22C51.7229 104.133 51.5796 104.09 51.3929 104.09C51.1729 104.09 50.9762 104.15 50.8029 104.27C50.6362 104.39 50.5029 104.557 50.4029 104.77C50.3096 104.977 50.2629 105.21 50.2629 105.47V108.07C50.2629 108.35 50.3062 108.54 50.3929 108.64C50.4796 108.74 50.6296 108.79 50.8429 108.79V109C50.7296 108.993 50.5596 108.987 50.3329 108.98C50.1062 108.967 49.8762 108.96 49.6429 108.96C49.3962 108.96 49.1462 108.967 48.8929 108.98C48.6396 108.987 48.4496 108.993 48.3229 109V108.79C48.5696 108.79 48.7429 108.74 48.8429 108.64C48.9496 108.54 49.0029 108.35 49.0029 108.07V104.92C49.0029 104.62 48.9529 104.4 48.8529 104.26C48.7596 104.113 48.5829 104.04 48.3229 104.04V103.83C48.5362 103.85 48.7429 103.86 48.9429 103.86C49.1896 103.86 49.4229 103.85 49.6429 103.83C49.8696 103.803 50.0762 103.767 50.2629 103.72V104.72C50.4296 104.34 50.6596 104.073 50.9529 103.92C51.2462 103.767 51.5662 103.69 51.9129 103.69ZM57.0769 103.69C57.6635 103.69 58.1235 103.867 58.4569 104.22C58.7902 104.573 58.9569 105.137 58.9569 105.91H55.5869L55.5769 105.72H57.7969C57.8102 105.393 57.7902 105.093 57.7369 104.82C57.6835 104.54 57.5969 104.317 57.4769 104.15C57.3635 103.983 57.2135 103.9 57.0269 103.9C56.7735 103.9 56.5535 104.05 56.3669 104.35C56.1802 104.643 56.0635 105.127 56.0169 105.8L56.0569 105.86C56.0435 105.947 56.0335 106.04 56.0269 106.14C56.0269 106.24 56.0269 106.34 56.0269 106.44C56.0269 106.9 56.0935 107.28 56.2269 107.58C56.3602 107.88 56.5335 108.1 56.7469 108.24C56.9602 108.38 57.1802 108.45 57.4069 108.45C57.5602 108.45 57.7169 108.427 57.8769 108.38C58.0369 108.333 58.1935 108.247 58.3469 108.12C58.5002 107.993 58.6402 107.813 58.7669 107.58L58.9569 107.66C58.8835 107.893 58.7602 108.127 58.5869 108.36C58.4202 108.587 58.2035 108.773 57.9369 108.92C57.6702 109.067 57.3569 109.14 56.9969 109.14C56.5435 109.14 56.1435 109.04 55.7969 108.84C55.4502 108.64 55.1802 108.343 54.9869 107.95C54.7935 107.55 54.6969 107.063 54.6969 106.49C54.6969 105.883 54.7969 105.373 54.9969 104.96C55.2035 104.547 55.4869 104.233 55.8469 104.02C56.2069 103.8 56.6169 103.69 57.0769 103.69ZM62.3983 101.28H64.3083V110.81H62.3983V110.62H63.0483V101.47H62.3983V101.28ZM68.1028 101.28V101.47H67.4528V110.62H68.1028V110.81H66.1928V101.28H68.1028ZM75.0499 101.78C75.4899 101.78 75.8499 101.847 76.1299 101.98C76.4166 102.107 76.6699 102.257 76.8899 102.43C77.0233 102.53 77.1233 102.543 77.1899 102.47C77.2633 102.39 77.3133 102.207 77.3399 101.92H77.5699C77.5566 102.173 77.5466 102.483 77.5399 102.85C77.5333 103.217 77.5299 103.7 77.5299 104.3H77.2999C77.2599 104 77.2166 103.75 77.1699 103.55C77.1233 103.343 77.0566 103.167 76.9699 103.02C76.8899 102.873 76.7766 102.733 76.6299 102.6C76.4499 102.4 76.2333 102.253 75.9799 102.16C75.7333 102.06 75.4733 102.01 75.1999 102.01C74.8533 102.01 74.5499 102.103 74.2899 102.29C74.0366 102.47 73.8233 102.72 73.6499 103.04C73.4833 103.353 73.3566 103.72 73.2699 104.14C73.1899 104.56 73.1499 105.007 73.1499 105.48C73.1499 105.967 73.1933 106.42 73.2799 106.84C73.3733 107.253 73.5066 107.617 73.6799 107.93C73.8599 108.237 74.0799 108.477 74.3399 108.65C74.6066 108.823 74.9133 108.91 75.2599 108.91C75.5066 108.91 75.7599 108.863 76.0199 108.77C76.2799 108.677 76.4933 108.533 76.6599 108.34C76.8799 108.14 77.0299 107.903 77.1099 107.63C77.1899 107.35 77.2533 106.98 77.2999 106.52H77.5299C77.5299 107.147 77.5333 107.653 77.5399 108.04C77.5466 108.42 77.5566 108.74 77.5699 109H77.3399C77.3133 108.713 77.2666 108.533 77.1999 108.46C77.1399 108.387 77.0366 108.397 76.8899 108.49C76.6433 108.663 76.3799 108.817 76.0999 108.95C75.8266 109.077 75.4733 109.14 75.0399 109.14C74.3599 109.14 73.7633 108.997 73.2499 108.71C72.7366 108.423 72.3366 108.01 72.0499 107.47C71.7699 106.93 71.6299 106.28 71.6299 105.52C71.6299 104.773 71.7766 104.12 72.0699 103.56C72.3633 103 72.7666 102.563 73.2799 102.25C73.7933 101.937 74.3833 101.78 75.0499 101.78ZM81.9019 103.69C82.1085 103.69 82.2785 103.733 82.4119 103.82C82.5519 103.907 82.6552 104.017 82.7219 104.15C82.7885 104.283 82.8219 104.423 82.8219 104.57C82.8219 104.79 82.7552 104.973 82.6219 105.12C82.4952 105.267 82.3252 105.34 82.1119 105.34C81.9119 105.34 81.7485 105.287 81.6219 105.18C81.4952 105.073 81.4319 104.927 81.4319 104.74C81.4319 104.573 81.4719 104.433 81.5519 104.32C81.6385 104.207 81.7352 104.117 81.8419 104.05C81.7685 104.01 81.6852 103.997 81.5919 104.01C81.4319 104.023 81.2852 104.08 81.1519 104.18C81.0185 104.28 80.9052 104.403 80.8119 104.55C80.7185 104.697 80.6452 104.853 80.5919 105.02C80.5452 105.187 80.5219 105.347 80.5219 105.5V107.97C80.5219 108.297 80.6052 108.517 80.7719 108.63C80.9385 108.737 81.1819 108.79 81.5019 108.79V109C81.3485 108.993 81.1252 108.987 80.8319 108.98C80.5452 108.967 80.2452 108.96 79.9319 108.96C79.6719 108.96 79.4119 108.967 79.1519 108.98C78.8985 108.987 78.7085 108.993 78.5819 109V108.79C78.8285 108.79 79.0019 108.74 79.1019 108.64C79.2085 108.54 79.2619 108.35 79.2619 108.07V104.92C79.2619 104.62 79.2119 104.4 79.1119 104.26C79.0185 104.113 78.8419 104.04 78.5819 104.04V103.83C78.7952 103.85 79.0019 103.86 79.2019 103.86C79.4485 103.86 79.6819 103.85 79.9019 103.83C80.1285 103.803 80.3352 103.767 80.5219 103.72V104.76C80.6019 104.573 80.7052 104.4 80.8319 104.24C80.9652 104.08 81.1219 103.95 81.3019 103.85C81.4885 103.743 81.6885 103.69 81.9019 103.69ZM84.7117 109.07C84.4251 109.07 84.1817 109.017 83.9817 108.91C83.7817 108.797 83.6317 108.647 83.5317 108.46C83.4317 108.267 83.3817 108.053 83.3817 107.82C83.3817 107.533 83.4484 107.3 83.5817 107.12C83.7151 106.933 83.8851 106.787 84.0917 106.68C84.3051 106.567 84.5284 106.473 84.7617 106.4C84.9951 106.32 85.2151 106.247 85.4217 106.18C85.6284 106.107 85.7984 106.023 85.9317 105.93C86.0651 105.837 86.1317 105.713 86.1317 105.56V104.83C86.1317 104.617 86.0984 104.443 86.0317 104.31C85.9717 104.17 85.8784 104.067 85.7517 104C85.6317 103.927 85.4784 103.89 85.2917 103.89C85.1517 103.89 85.0051 103.91 84.8517 103.95C84.6984 103.99 84.5717 104.067 84.4717 104.18C84.6451 104.227 84.7784 104.313 84.8717 104.44C84.9717 104.567 85.0217 104.72 85.0217 104.9C85.0217 105.107 84.9517 105.27 84.8117 105.39C84.6784 105.503 84.5084 105.56 84.3017 105.56C84.0817 105.56 83.9151 105.49 83.8017 105.35C83.6884 105.21 83.6317 105.047 83.6317 104.86C83.6317 104.673 83.6784 104.52 83.7717 104.4C83.8651 104.273 83.9951 104.16 84.1617 104.06C84.3284 103.947 84.5417 103.857 84.8017 103.79C85.0617 103.723 85.3451 103.69 85.6517 103.69C85.9451 103.69 86.2051 103.723 86.4317 103.79C86.6584 103.85 86.8517 103.96 87.0117 104.12C87.1717 104.273 87.2751 104.463 87.3217 104.69C87.3684 104.917 87.3917 105.193 87.3917 105.52V108.26C87.3917 108.427 87.4117 108.547 87.4517 108.62C87.4917 108.687 87.5551 108.72 87.6417 108.72C87.7084 108.72 87.7717 108.703 87.8317 108.67C87.8917 108.637 87.9584 108.59 88.0317 108.53L88.1417 108.7C87.9951 108.813 87.8417 108.903 87.6817 108.97C87.5217 109.037 87.3284 109.07 87.1017 109.07C86.8684 109.07 86.6817 109.037 86.5417 108.97C86.4084 108.903 86.3084 108.807 86.2417 108.68C86.1817 108.553 86.1484 108.403 86.1417 108.23C85.9817 108.497 85.7851 108.703 85.5517 108.85C85.3184 108.997 85.0384 109.07 84.7117 109.07ZM85.3117 108.51C85.4717 108.51 85.6184 108.467 85.7517 108.38C85.8917 108.293 86.0184 108.163 86.1317 107.99V105.97C86.0651 106.07 85.9684 106.16 85.8417 106.24C85.7217 106.32 85.5917 106.4 85.4517 106.48C85.3117 106.56 85.1784 106.653 85.0517 106.76C84.9317 106.86 84.8284 106.987 84.7417 107.14C84.6617 107.287 84.6217 107.477 84.6217 107.71C84.6217 107.97 84.6851 108.17 84.8117 108.31C84.9384 108.443 85.1051 108.51 85.3117 108.51ZM90.4491 101.17V104.71C90.6158 104.337 90.8458 104.073 91.1391 103.92C91.4391 103.767 91.7625 103.69 92.1091 103.69C92.3825 103.69 92.6058 103.727 92.7791 103.8C92.9525 103.873 93.0925 103.967 93.1991 104.08C93.3125 104.207 93.3925 104.37 93.4391 104.57C93.4925 104.77 93.5191 105.04 93.5191 105.38V108.07C93.5191 108.35 93.5691 108.54 93.6691 108.64C93.7758 108.74 93.9525 108.79 94.1991 108.79V109C94.0791 108.993 93.8958 108.987 93.6491 108.98C93.4025 108.967 93.1591 108.96 92.9191 108.96C92.6791 108.96 92.4425 108.967 92.2091 108.98C91.9758 108.987 91.7991 108.993 91.6791 109V108.79C91.8925 108.79 92.0425 108.74 92.1291 108.64C92.2158 108.54 92.2591 108.35 92.2591 108.07V105.04C92.2591 104.86 92.2425 104.7 92.2091 104.56C92.1758 104.413 92.1091 104.3 92.0091 104.22C91.9158 104.133 91.7725 104.09 91.5791 104.09C91.3658 104.09 91.1725 104.15 90.9991 104.27C90.8325 104.383 90.6991 104.547 90.5991 104.76C90.4991 104.967 90.4491 105.203 90.4491 105.47V108.07C90.4491 108.35 90.4925 108.54 90.5791 108.64C90.6725 108.74 90.8225 108.79 91.0291 108.79V109C90.9158 108.993 90.7458 108.987 90.5191 108.98C90.2991 108.967 90.0691 108.96 89.8291 108.96C89.5891 108.96 89.3391 108.967 89.0791 108.98C88.8258 108.987 88.6358 108.993 88.5091 109V108.79C88.7558 108.79 88.9291 108.74 89.0291 108.64C89.1358 108.54 89.1891 108.35 89.1891 108.07V102.37C89.1891 102.07 89.1391 101.85 89.0391 101.71C88.9458 101.563 88.7691 101.49 88.5091 101.49V101.28C88.7225 101.3 88.9291 101.31 89.1291 101.31C89.3825 101.31 89.6191 101.3 89.8391 101.28C90.0591 101.253 90.2625 101.217 90.4491 101.17ZM97.3248 101.18C97.5448 101.18 97.7348 101.21 97.8948 101.27C98.0614 101.323 98.2048 101.397 98.3248 101.49C98.4248 101.57 98.5048 101.67 98.5648 101.79C98.6314 101.91 98.6648 102.043 98.6648 102.19C98.6648 102.37 98.6014 102.523 98.4748 102.65C98.3548 102.777 98.2014 102.84 98.0148 102.84C97.8148 102.84 97.6481 102.783 97.5148 102.67C97.3881 102.55 97.3248 102.387 97.3248 102.18C97.3248 102.02 97.3681 101.883 97.4548 101.77C97.5481 101.65 97.6781 101.567 97.8448 101.52C97.8248 101.473 97.7814 101.433 97.7148 101.4C97.6481 101.367 97.5581 101.35 97.4448 101.35C97.3114 101.35 97.1948 101.377 97.0948 101.43C97.0014 101.483 96.9248 101.557 96.8648 101.65C96.7981 101.763 96.7514 101.93 96.7248 102.15C96.6981 102.37 96.6848 102.703 96.6848 103.15V103.84H97.7548V104.04H96.6848V107.97C96.6848 108.297 96.7714 108.517 96.9448 108.63C97.1248 108.737 97.3648 108.79 97.6648 108.79V109C97.4981 108.993 97.2648 108.987 96.9648 108.98C96.6648 108.967 96.3448 108.96 96.0048 108.96C95.7648 108.96 95.5248 108.967 95.2848 108.98C95.0448 108.987 94.8648 108.993 94.7448 109V108.79C94.9914 108.79 95.1648 108.74 95.2648 108.64C95.3714 108.54 95.4248 108.35 95.4248 108.07V104.04H94.7048V103.84H95.4248C95.4248 103.447 95.4448 103.12 95.4848 102.86C95.5248 102.593 95.5848 102.367 95.6648 102.18C95.7514 101.993 95.8681 101.827 96.0148 101.68C96.1548 101.533 96.3381 101.413 96.5648 101.32C96.7981 101.227 97.0514 101.18 97.3248 101.18ZM100.232 102.19V103.84H101.512V104.04H100.232V108.02C100.232 108.26 100.275 108.43 100.362 108.53C100.449 108.63 100.572 108.68 100.732 108.68C100.885 108.68 101.025 108.623 101.152 108.51C101.279 108.39 101.392 108.193 101.492 107.92L101.672 108C101.572 108.327 101.415 108.6 101.202 108.82C100.995 109.033 100.702 109.14 100.322 109.14C100.095 109.14 99.902 109.11 99.742 109.05C99.5887 108.997 99.4554 108.917 99.342 108.81C99.1954 108.657 99.0954 108.473 99.042 108.26C98.9954 108.047 98.972 107.763 98.972 107.41V104.04H98.092V103.84H98.972V102.45C99.212 102.443 99.4354 102.42 99.642 102.38C99.8487 102.34 100.045 102.277 100.232 102.19ZM104.553 101.28H106.463V110.81H104.553V110.62H105.203V101.47H104.553V101.28Z" fill="black"/>
<path d="M5.59 122.92C5.56333 123.207 5.54333 123.483 5.53 123.75C5.52333 124.017 5.52 124.22 5.52 124.36C5.52 124.513 5.52333 124.657 5.53 124.79C5.53667 124.923 5.54333 125.04 5.55 125.14H5.32C5.24667 124.64 5.14667 124.247 5.02 123.96C4.89333 123.667 4.72333 123.46 4.51 123.34C4.29667 123.213 4.01333 123.15 3.66 123.15H3.23C3.03 123.15 2.87667 123.167 2.77 123.2C2.66333 123.233 2.59 123.303 2.55 123.41C2.51667 123.517 2.5 123.68 2.5 123.9V128.9C2.5 129.153 2.52667 129.343 2.58 129.47C2.63333 129.597 2.73667 129.68 2.89 129.72C3.04333 129.76 3.26333 129.783 3.55 129.79V130C3.35667 129.987 3.10667 129.98 2.8 129.98C2.49333 129.973 2.17667 129.97 1.85 129.97C1.57 129.97 1.3 129.973 1.04 129.98C0.78 129.98 0.553333 129.987 0.36 130V129.8C0.58 129.787 0.743333 129.76 0.85 129.72C0.963333 129.68 1.03667 129.6 1.07 129.48C1.11 129.36 1.13 129.18 1.13 128.94V123.98C1.13 123.733 1.11 123.553 1.07 123.44C1.03667 123.32 0.963333 123.24 0.85 123.2C0.743333 123.153 0.58 123.127 0.36 123.12V122.92C0.626667 122.927 0.906667 122.933 1.2 122.94C1.5 122.94 1.79333 122.943 2.08 122.95C2.37333 122.95 2.64333 122.95 2.89 122.95C3.14333 122.95 3.34667 122.95 3.5 122.95C3.80667 122.95 4.15333 122.95 4.54 122.95C4.93333 122.943 5.28333 122.933 5.59 122.92ZM4.08 126.4C4.08 126.4 4.08 126.433 4.08 126.5C4.08 126.567 4.08 126.6 4.08 126.6H2.2C2.2 126.6 2.2 126.567 2.2 126.5C2.2 126.433 2.2 126.4 2.2 126.4H4.08ZM4.31 125.08C4.28333 125.46 4.27 125.75 4.27 125.95C4.27667 126.15 4.28 126.333 4.28 126.5C4.28 126.667 4.28333 126.85 4.29 127.05C4.29667 127.25 4.31333 127.54 4.34 127.92H4.11C4.08333 127.693 4.03333 127.48 3.96 127.28C3.88667 127.073 3.77333 126.91 3.62 126.79C3.47333 126.663 3.26 126.6 2.98 126.6V126.4C3.18667 126.4 3.35667 126.357 3.49 126.27C3.62333 126.183 3.72667 126.073 3.8 125.94C3.88 125.8 3.94 125.657 3.98 125.51C4.02667 125.357 4.06 125.213 4.08 125.08H4.31ZM7.49961 122.28C7.73961 122.28 7.93628 122.347 8.08961 122.48C8.24294 122.613 8.31961 122.79 8.31961 123.01C8.31961 123.23 8.24294 123.407 8.08961 123.54C7.93628 123.673 7.73961 123.74 7.49961 123.74C7.25961 123.74 7.06294 123.673 6.90961 123.54C6.75628 123.407 6.67961 123.23 6.67961 123.01C6.67961 122.79 6.75628 122.613 6.90961 122.48C7.06294 122.347 7.25961 122.28 7.49961 122.28ZM8.19961 124.72V129.07C8.19961 129.35 8.24961 129.54 8.34961 129.64C8.45628 129.74 8.63294 129.79 8.87961 129.79V130C8.75961 129.993 8.57628 129.987 8.32961 129.98C8.08294 129.967 7.83294 129.96 7.57961 129.96C7.33294 129.96 7.08294 129.967 6.82961 129.98C6.57628 129.987 6.38628 129.993 6.25961 130V129.79C6.50628 129.79 6.67961 129.74 6.77961 129.64C6.88628 129.54 6.93961 129.35 6.93961 129.07V125.93C6.93961 125.623 6.88961 125.4 6.78961 125.26C6.69628 125.113 6.51961 125.04 6.25961 125.04V124.83C6.47294 124.85 6.67961 124.86 6.87961 124.86C7.12628 124.86 7.35961 124.85 7.57961 124.83C7.80628 124.803 8.01294 124.767 8.19961 124.72ZM13.0758 124.69C13.3558 124.69 13.5791 124.727 13.7458 124.8C13.9191 124.873 14.0591 124.967 14.1658 125.08C14.2858 125.207 14.3691 125.37 14.4158 125.57C14.4691 125.77 14.4958 126.04 14.4958 126.38V129.07C14.4958 129.35 14.5458 129.54 14.6458 129.64C14.7524 129.74 14.9291 129.79 15.1758 129.79V130C15.0558 129.993 14.8691 129.987 14.6158 129.98C14.3691 129.967 14.1291 129.96 13.8958 129.96C13.6491 129.96 13.4091 129.967 13.1758 129.98C12.9424 129.987 12.7691 129.993 12.6558 130V129.79C12.8691 129.79 13.0191 129.74 13.1058 129.64C13.1924 129.54 13.2358 129.35 13.2358 129.07V126.04C13.2358 125.86 13.2191 125.7 13.1858 125.56C13.1524 125.413 13.0858 125.3 12.9858 125.22C12.8858 125.133 12.7424 125.09 12.5558 125.09C12.3358 125.09 12.1391 125.15 11.9658 125.27C11.7991 125.39 11.6658 125.557 11.5658 125.77C11.4724 125.977 11.4258 126.21 11.4258 126.47V129.07C11.4258 129.35 11.4691 129.54 11.5558 129.64C11.6424 129.74 11.7924 129.79 12.0058 129.79V130C11.8924 129.993 11.7224 129.987 11.4958 129.98C11.2691 129.967 11.0391 129.96 10.8058 129.96C10.5591 129.96 10.3091 129.967 10.0558 129.98C9.80245 129.987 9.61245 129.993 9.48578 130V129.79C9.73245 129.79 9.90578 129.74 10.0058 129.64C10.1124 129.54 10.1658 129.35 10.1658 129.07V125.92C10.1658 125.62 10.1158 125.4 10.0158 125.26C9.92245 125.113 9.74578 125.04 9.48578 125.04V124.83C9.69911 124.85 9.90578 124.86 10.1058 124.86C10.3524 124.86 10.5858 124.85 10.8058 124.83C11.0324 124.803 11.2391 124.767 11.4258 124.72V125.72C11.5924 125.34 11.8224 125.073 12.1158 124.92C12.4091 124.767 12.7291 124.69 13.0758 124.69ZM18.2398 124.69C18.8264 124.69 19.2864 124.867 19.6198 125.22C19.9531 125.573 20.1198 126.137 20.1198 126.91H16.7498L16.7398 126.72H18.9598C18.9731 126.393 18.9531 126.093 18.8998 125.82C18.8464 125.54 18.7598 125.317 18.6398 125.15C18.5264 124.983 18.3764 124.9 18.1898 124.9C17.9364 124.9 17.7164 125.05 17.5298 125.35C17.3431 125.643 17.2264 126.127 17.1798 126.8L17.2198 126.86C17.2064 126.947 17.1964 127.04 17.1898 127.14C17.1898 127.24 17.1898 127.34 17.1898 127.44C17.1898 127.9 17.2564 128.28 17.3898 128.58C17.5231 128.88 17.6964 129.1 17.9098 129.24C18.1231 129.38 18.3431 129.45 18.5698 129.45C18.7231 129.45 18.8798 129.427 19.0398 129.38C19.1998 129.333 19.3564 129.247 19.5098 129.12C19.6631 128.993 19.8031 128.813 19.9298 128.58L20.1198 128.66C20.0464 128.893 19.9231 129.127 19.7498 129.36C19.5831 129.587 19.3664 129.773 19.0998 129.92C18.8331 130.067 18.5198 130.14 18.1598 130.14C17.7064 130.14 17.3064 130.04 16.9598 129.84C16.6131 129.64 16.3431 129.343 16.1498 128.95C15.9564 128.55 15.8598 128.063 15.8598 127.49C15.8598 126.883 15.9598 126.373 16.1598 125.96C16.3664 125.547 16.6498 125.233 17.0098 125.02C17.3698 124.8 17.7798 124.69 18.2398 124.69ZM27.0812 122.78C27.5212 122.78 27.8812 122.847 28.1612 122.98C28.4478 123.107 28.7012 123.257 28.9212 123.43C29.0545 123.53 29.1545 123.543 29.2212 123.47C29.2945 123.39 29.3445 123.207 29.3712 122.92H29.6012C29.5878 123.173 29.5778 123.483 29.5712 123.85C29.5645 124.217 29.5612 124.7 29.5612 125.3H29.3312C29.2912 125 29.2478 124.75 29.2012 124.55C29.1545 124.343 29.0878 124.167 29.0012 124.02C28.9212 123.873 28.8078 123.733 28.6612 123.6C28.4812 123.4 28.2645 123.253 28.0112 123.16C27.7645 123.06 27.5045 123.01 27.2312 123.01C26.8845 123.01 26.5812 123.103 26.3212 123.29C26.0678 123.47 25.8545 123.72 25.6812 124.04C25.5145 124.353 25.3878 124.72 25.3012 125.14C25.2212 125.56 25.1812 126.007 25.1812 126.48C25.1812 126.967 25.2245 127.42 25.3112 127.84C25.4045 128.253 25.5378 128.617 25.7112 128.93C25.8912 129.237 26.1112 129.477 26.3712 129.65C26.6378 129.823 26.9445 129.91 27.2912 129.91C27.5378 129.91 27.7912 129.863 28.0512 129.77C28.3112 129.677 28.5245 129.533 28.6912 129.34C28.9112 129.14 29.0612 128.903 29.1412 128.63C29.2212 128.35 29.2845 127.98 29.3312 127.52H29.5612C29.5612 128.147 29.5645 128.653 29.5712 129.04C29.5778 129.42 29.5878 129.74 29.6012 130H29.3712C29.3445 129.713 29.2978 129.533 29.2312 129.46C29.1712 129.387 29.0678 129.397 28.9212 129.49C28.6745 129.663 28.4112 129.817 28.1312 129.95C27.8578 130.077 27.5045 130.14 27.0712 130.14C26.3912 130.14 25.7945 129.997 25.2812 129.71C24.7678 129.423 24.3678 129.01 24.0812 128.47C23.8012 127.93 23.6612 127.28 23.6612 126.52C23.6612 125.773 23.8078 125.12 24.1012 124.56C24.3945 124 24.7978 123.563 25.3112 123.25C25.8245 122.937 26.4145 122.78 27.0812 122.78ZM33.9331 124.69C34.1398 124.69 34.3098 124.733 34.4431 124.82C34.5831 124.907 34.6865 125.017 34.7531 125.15C34.8198 125.283 34.8531 125.423 34.8531 125.57C34.8531 125.79 34.7865 125.973 34.6531 126.12C34.5265 126.267 34.3565 126.34 34.1431 126.34C33.9431 126.34 33.7798 126.287 33.6531 126.18C33.5265 126.073 33.4631 125.927 33.4631 125.74C33.4631 125.573 33.5031 125.433 33.5831 125.32C33.6698 125.207 33.7665 125.117 33.8731 125.05C33.7998 125.01 33.7165 124.997 33.6231 125.01C33.4631 125.023 33.3165 125.08 33.1831 125.18C33.0498 125.28 32.9365 125.403 32.8431 125.55C32.7498 125.697 32.6765 125.853 32.6231 126.02C32.5765 126.187 32.5531 126.347 32.5531 126.5V128.97C32.5531 129.297 32.6365 129.517 32.8031 129.63C32.9698 129.737 33.2131 129.79 33.5331 129.79V130C33.3798 129.993 33.1565 129.987 32.8631 129.98C32.5765 129.967 32.2765 129.96 31.9631 129.96C31.7031 129.96 31.4431 129.967 31.1831 129.98C30.9298 129.987 30.7398 129.993 30.6131 130V129.79C30.8598 129.79 31.0331 129.74 31.1331 129.64C31.2398 129.54 31.2931 129.35 31.2931 129.07V125.92C31.2931 125.62 31.2431 125.4 31.1431 125.26C31.0498 125.113 30.8731 125.04 30.6131 125.04V124.83C30.8265 124.85 31.0331 124.86 31.2331 124.86C31.4798 124.86 31.7131 124.85 31.9331 124.83C32.1598 124.803 32.3665 124.767 32.5531 124.72V125.76C32.6331 125.573 32.7365 125.4 32.8631 125.24C32.9965 125.08 33.1531 124.95 33.3331 124.85C33.5198 124.743 33.7198 124.69 33.9331 124.69ZM36.743 130.07C36.4563 130.07 36.213 130.017 36.013 129.91C35.813 129.797 35.663 129.647 35.563 129.46C35.463 129.267 35.413 129.053 35.413 128.82C35.413 128.533 35.4796 128.3 35.613 128.12C35.7463 127.933 35.9163 127.787 36.123 127.68C36.3363 127.567 36.5596 127.473 36.793 127.4C37.0263 127.32 37.2463 127.247 37.453 127.18C37.6596 127.107 37.8296 127.023 37.963 126.93C38.0963 126.837 38.163 126.713 38.163 126.56V125.83C38.163 125.617 38.1296 125.443 38.063 125.31C38.003 125.17 37.9096 125.067 37.783 125C37.663 124.927 37.5096 124.89 37.323 124.89C37.183 124.89 37.0363 124.91 36.883 124.95C36.7296 124.99 36.603 125.067 36.503 125.18C36.6763 125.227 36.8096 125.313 36.903 125.44C37.003 125.567 37.053 125.72 37.053 125.9C37.053 126.107 36.983 126.27 36.843 126.39C36.7096 126.503 36.5396 126.56 36.333 126.56C36.113 126.56 35.9463 126.49 35.833 126.35C35.7196 126.21 35.663 126.047 35.663 125.86C35.663 125.673 35.7096 125.52 35.803 125.4C35.8963 125.273 36.0263 125.16 36.193 125.06C36.3596 124.947 36.573 124.857 36.833 124.79C37.093 124.723 37.3763 124.69 37.683 124.69C37.9763 124.69 38.2363 124.723 38.463 124.79C38.6896 124.85 38.883 124.96 39.043 125.12C39.203 125.273 39.3063 125.463 39.353 125.69C39.3996 125.917 39.423 126.193 39.423 126.52V129.26C39.423 129.427 39.443 129.547 39.483 129.62C39.523 129.687 39.5863 129.72 39.673 129.72C39.7396 129.72 39.803 129.703 39.863 129.67C39.923 129.637 39.9896 129.59 40.063 129.53L40.173 129.7C40.0263 129.813 39.873 129.903 39.713 129.97C39.553 130.037 39.3596 130.07 39.133 130.07C38.8996 130.07 38.713 130.037 38.573 129.97C38.4396 129.903 38.3396 129.807 38.273 129.68C38.213 129.553 38.1796 129.403 38.173 129.23C38.013 129.497 37.8163 129.703 37.583 129.85C37.3496 129.997 37.0696 130.07 36.743 130.07ZM37.343 129.51C37.503 129.51 37.6496 129.467 37.783 129.38C37.923 129.293 38.0496 129.163 38.163 128.99V126.97C38.0963 127.07 37.9996 127.16 37.873 127.24C37.753 127.32 37.623 127.4 37.483 127.48C37.343 127.56 37.2096 127.653 37.083 127.76C36.963 127.86 36.8596 127.987 36.773 128.14C36.693 128.287 36.653 128.477 36.653 128.71C36.653 128.97 36.7163 129.17 36.843 129.31C36.9696 129.443 37.1363 129.51 37.343 129.51ZM43.1904 122.18C43.4104 122.18 43.6004 122.21 43.7604 122.27C43.9271 122.323 44.0704 122.397 44.1904 122.49C44.2904 122.57 44.3704 122.67 44.4304 122.79C44.4971 122.91 44.5304 123.043 44.5304 123.19C44.5304 123.37 44.4671 123.523 44.3404 123.65C44.2204 123.777 44.0671 123.84 43.8804 123.84C43.6804 123.84 43.5137 123.783 43.3804 123.67C43.2537 123.55 43.1904 123.387 43.1904 123.18C43.1904 123.02 43.2337 122.883 43.3204 122.77C43.4137 122.65 43.5437 122.567 43.7104 122.52C43.6904 122.473 43.6471 122.433 43.5804 122.4C43.5137 122.367 43.4237 122.35 43.3104 122.35C43.1771 122.35 43.0604 122.377 42.9604 122.43C42.8671 122.483 42.7904 122.557 42.7304 122.65C42.6637 122.763 42.6171 122.93 42.5904 123.15C42.5637 123.37 42.5504 123.703 42.5504 124.15V124.84H43.6204V125.04H42.5504V128.97C42.5504 129.297 42.6371 129.517 42.8104 129.63C42.9904 129.737 43.2304 129.79 43.5304 129.79V130C43.3637 129.993 43.1304 129.987 42.8304 129.98C42.5304 129.967 42.2104 129.96 41.8704 129.96C41.6304 129.96 41.3904 129.967 41.1504 129.98C40.9104 129.987 40.7304 129.993 40.6104 130V129.79C40.8571 129.79 41.0304 129.74 41.1304 129.64C41.2371 129.54 41.2904 129.35 41.2904 129.07V125.04H40.5704V124.84H41.2904C41.2904 124.447 41.3104 124.12 41.3504 123.86C41.3904 123.593 41.4504 123.367 41.5304 123.18C41.6171 122.993 41.7337 122.827 41.8804 122.68C42.0204 122.533 42.2037 122.413 42.4304 122.32C42.6637 122.227 42.9171 122.18 43.1904 122.18ZM46.0977 123.19V124.84H47.3777V125.04H46.0977V129.02C46.0977 129.26 46.141 129.43 46.2277 129.53C46.3143 129.63 46.4377 129.68 46.5977 129.68C46.751 129.68 46.891 129.623 47.0177 129.51C47.1443 129.39 47.2577 129.193 47.3577 128.92L47.5377 129C47.4377 129.327 47.281 129.6 47.0677 129.82C46.861 130.033 46.5677 130.14 46.1877 130.14C45.961 130.14 45.7677 130.11 45.6077 130.05C45.4543 129.997 45.321 129.917 45.2077 129.81C45.061 129.657 44.961 129.473 44.9077 129.26C44.861 129.047 44.8377 128.763 44.8377 128.41V125.04H43.9577V124.84H44.8377V123.45C45.0777 123.443 45.301 123.42 45.5077 123.38C45.7143 123.34 45.911 123.277 46.0977 123.19ZM53.8382 124.69C54.0982 124.69 54.3149 124.727 54.4882 124.8C54.6682 124.873 54.8082 124.967 54.9082 125.08C55.0282 125.207 55.1115 125.377 55.1582 125.59C55.2049 125.797 55.2282 126.06 55.2282 126.38V129.07C55.2282 129.35 55.2749 129.54 55.3682 129.64C55.4682 129.74 55.6349 129.79 55.8682 129.79V130C55.7482 129.993 55.5682 129.987 55.3282 129.98C55.0882 129.967 54.8549 129.96 54.6282 129.96C54.3882 129.96 54.1549 129.967 53.9282 129.98C53.7082 129.987 53.5415 129.993 53.4282 130V129.79C53.6215 129.79 53.7582 129.74 53.8382 129.64C53.9249 129.54 53.9682 129.35 53.9682 129.07V126.04C53.9682 125.86 53.9549 125.7 53.9282 125.56C53.9015 125.413 53.8449 125.3 53.7582 125.22C53.6715 125.133 53.5382 125.09 53.3582 125.09C53.1515 125.09 52.9649 125.15 52.7982 125.27C52.6315 125.39 52.4982 125.557 52.3982 125.77C52.3049 125.977 52.2582 126.21 52.2582 126.47V129.07C52.2582 129.35 52.2982 129.54 52.3782 129.64C52.4582 129.74 52.5982 129.79 52.7982 129.79V130C52.6849 129.993 52.5182 129.987 52.2982 129.98C52.0849 129.967 51.8649 129.96 51.6382 129.96C51.3915 129.96 51.1415 129.967 50.8882 129.98C50.6349 129.987 50.4449 129.993 50.3182 130V129.79C50.5649 129.79 50.7382 129.74 50.8382 129.64C50.9449 129.54 50.9982 129.35 50.9982 129.07V125.92C50.9982 125.62 50.9482 125.4 50.8482 125.26C50.7549 125.113 50.5782 125.04 50.3182 125.04V124.83C50.5315 124.85 50.7382 124.86 50.9382 124.86C51.1849 124.86 51.4182 124.85 51.6382 124.83C51.8649 124.803 52.0715 124.767 52.2582 124.72V125.72C52.4249 125.353 52.6482 125.09 52.9282 124.93C53.2082 124.77 53.5115 124.69 53.8382 124.69ZM56.8482 124.69C57.1082 124.69 57.3249 124.727 57.4982 124.8C57.6782 124.873 57.8182 124.967 57.9182 125.08C58.0382 125.207 58.1215 125.377 58.1682 125.59C58.2149 125.797 58.2382 126.06 58.2382 126.38V129.07C58.2382 129.35 58.2882 129.54 58.3882 129.64C58.4949 129.74 58.6715 129.79 58.9182 129.79V130C58.7982 129.993 58.6115 129.987 58.3582 129.98C58.1115 129.967 57.8715 129.96 57.6382 129.96C57.3982 129.96 57.1649 129.967 56.9382 129.98C56.7182 129.987 56.5515 129.993 56.4382 130V129.79C56.6315 129.79 56.7682 129.74 56.8482 129.64C56.9349 129.54 56.9782 129.35 56.9782 129.07V126.04C56.9782 125.86 56.9615 125.7 56.9282 125.56C56.9015 125.413 56.8415 125.3 56.7482 125.22C56.6549 125.133 56.5149 125.09 56.3282 125.09C56.1215 125.09 55.9349 125.153 55.7682 125.28C55.6015 125.407 55.4682 125.577 55.3682 125.79C55.2749 125.997 55.2249 126.23 55.2182 126.49L55.1682 125.77C55.3482 125.357 55.5882 125.073 55.8882 124.92C56.1882 124.767 56.5082 124.69 56.8482 124.69ZM61.9823 124.69C62.569 124.69 63.029 124.867 63.3623 125.22C63.6957 125.573 63.8623 126.137 63.8623 126.91H60.4923L60.4823 126.72H62.7023C62.7157 126.393 62.6957 126.093 62.6423 125.82C62.589 125.54 62.5023 125.317 62.3823 125.15C62.269 124.983 62.119 124.9 61.9323 124.9C61.679 124.9 61.459 125.05 61.2723 125.35C61.0857 125.643 60.969 126.127 60.9223 126.8L60.9623 126.86C60.949 126.947 60.939 127.04 60.9323 127.14C60.9323 127.24 60.9323 127.34 60.9323 127.44C60.9323 127.9 60.999 128.28 61.1323 128.58C61.2657 128.88 61.439 129.1 61.6523 129.24C61.8657 129.38 62.0857 129.45 62.3123 129.45C62.4657 129.45 62.6223 129.427 62.7823 129.38C62.9423 129.333 63.099 129.247 63.2523 129.12C63.4057 128.993 63.5457 128.813 63.6723 128.58L63.8623 128.66C63.789 128.893 63.6657 129.127 63.4923 129.36C63.3257 129.587 63.109 129.773 62.8423 129.92C62.5757 130.067 62.2623 130.14 61.9023 130.14C61.449 130.14 61.049 130.04 60.7023 129.84C60.3557 129.64 60.0857 129.343 59.8923 128.95C59.699 128.55 59.6023 128.063 59.6023 127.49C59.6023 126.883 59.7023 126.373 59.9023 125.96C60.109 125.547 60.3923 125.233 60.7523 125.02C61.1123 124.8 61.5223 124.69 61.9823 124.69ZM66.0512 130.07C65.7645 130.07 65.5212 130.017 65.3212 129.91C65.1212 129.797 64.9712 129.647 64.8712 129.46C64.7712 129.267 64.7212 129.053 64.7212 128.82C64.7212 128.533 64.7878 128.3 64.9212 128.12C65.0545 127.933 65.2245 127.787 65.4312 127.68C65.6445 127.567 65.8678 127.473 66.1012 127.4C66.3345 127.32 66.5545 127.247 66.7612 127.18C66.9678 127.107 67.1378 127.023 67.2712 126.93C67.4045 126.837 67.4712 126.713 67.4712 126.56V125.83C67.4712 125.617 67.4378 125.443 67.3712 125.31C67.3112 125.17 67.2178 125.067 67.0912 125C66.9712 124.927 66.8178 124.89 66.6312 124.89C66.4912 124.89 66.3445 124.91 66.1912 124.95C66.0378 124.99 65.9112 125.067 65.8112 125.18C65.9845 125.227 66.1178 125.313 66.2112 125.44C66.3112 125.567 66.3612 125.72 66.3612 125.9C66.3612 126.107 66.2912 126.27 66.1512 126.39C66.0178 126.503 65.8478 126.56 65.6412 126.56C65.4212 126.56 65.2545 126.49 65.1412 126.35C65.0278 126.21 64.9712 126.047 64.9712 125.86C64.9712 125.673 65.0178 125.52 65.1112 125.4C65.2045 125.273 65.3345 125.16 65.5012 125.06C65.6678 124.947 65.8812 124.857 66.1412 124.79C66.4012 124.723 66.6845 124.69 66.9912 124.69C67.2845 124.69 67.5445 124.723 67.7712 124.79C67.9978 124.85 68.1912 124.96 68.3512 125.12C68.5112 125.273 68.6145 125.463 68.6612 125.69C68.7078 125.917 68.7312 126.193 68.7312 126.52V129.26C68.7312 129.427 68.7512 129.547 68.7912 129.62C68.8312 129.687 68.8945 129.72 68.9812 129.72C69.0478 129.72 69.1112 129.703 69.1712 129.67C69.2312 129.637 69.2978 129.59 69.3712 129.53L69.4812 129.7C69.3345 129.813 69.1812 129.903 69.0212 129.97C68.8612 130.037 68.6678 130.07 68.4412 130.07C68.2078 130.07 68.0212 130.037 67.8812 129.97C67.7478 129.903 67.6478 129.807 67.5812 129.68C67.5212 129.553 67.4878 129.403 67.4812 129.23C67.3212 129.497 67.1245 129.703 66.8912 129.85C66.6578 129.997 66.3778 130.07 66.0512 130.07ZM66.6512 129.51C66.8112 129.51 66.9578 129.467 67.0912 129.38C67.2312 129.293 67.3578 129.163 67.4712 128.99V126.97C67.4045 127.07 67.3078 127.16 67.1812 127.24C67.0612 127.32 66.9312 127.4 66.7912 127.48C66.6512 127.56 66.5178 127.653 66.3912 127.76C66.2712 127.86 66.1678 127.987 66.0812 128.14C66.0012 128.287 65.9612 128.477 65.9612 128.71C65.9612 128.97 66.0245 129.17 66.1512 129.31C66.2778 129.443 66.4445 129.51 66.6512 129.51ZM73.5086 124.69C73.7886 124.69 74.0119 124.727 74.1786 124.8C74.3519 124.873 74.4919 124.967 74.5986 125.08C74.7186 125.207 74.8019 125.37 74.8486 125.57C74.9019 125.77 74.9286 126.04 74.9286 126.38V129.07C74.9286 129.35 74.9786 129.54 75.0786 129.64C75.1853 129.74 75.3619 129.79 75.6086 129.79V130C75.4886 129.993 75.3019 129.987 75.0486 129.98C74.8019 129.967 74.5619 129.96 74.3286 129.96C74.0819 129.96 73.8419 129.967 73.6086 129.98C73.3753 129.987 73.2019 129.993 73.0886 130V129.79C73.3019 129.79 73.4519 129.74 73.5386 129.64C73.6253 129.54 73.6686 129.35 73.6686 129.07V126.04C73.6686 125.86 73.6519 125.7 73.6186 125.56C73.5853 125.413 73.5186 125.3 73.4186 125.22C73.3186 125.133 73.1753 125.09 72.9886 125.09C72.7686 125.09 72.5719 125.15 72.3986 125.27C72.2319 125.39 72.0986 125.557 71.9986 125.77C71.9053 125.977 71.8586 126.21 71.8586 126.47V129.07C71.8586 129.35 71.9019 129.54 71.9886 129.64C72.0753 129.74 72.2253 129.79 72.4386 129.79V130C72.3253 129.993 72.1553 129.987 71.9286 129.98C71.7019 129.967 71.4719 129.96 71.2386 129.96C70.9919 129.96 70.7419 129.967 70.4886 129.98C70.2353 129.987 70.0453 129.993 69.9186 130V129.79C70.1653 129.79 70.3386 129.74 70.4386 129.64C70.5453 129.54 70.5986 129.35 70.5986 129.07V125.92C70.5986 125.62 70.5486 125.4 70.4486 125.26C70.3553 125.113 70.1786 125.04 69.9186 125.04V124.83C70.1319 124.85 70.3386 124.86 70.5386 124.86C70.7853 124.86 71.0186 124.85 71.2386 124.83C71.4653 124.803 71.6719 124.767 71.8586 124.72V125.72C72.0253 125.34 72.2553 125.073 72.5486 124.92C72.8419 124.767 73.1619 124.69 73.5086 124.69ZM78.0626 124.69C78.3426 124.69 78.5826 124.73 78.7826 124.81C78.9826 124.89 79.1292 124.96 79.2226 125.02C79.4492 125.187 79.5859 125.08 79.6326 124.7H79.8526C79.8392 124.893 79.8292 125.123 79.8226 125.39C79.8159 125.65 79.8126 126 79.8126 126.44H79.5926C79.5592 126.193 79.4959 125.953 79.4026 125.72C79.3092 125.487 79.1726 125.293 78.9926 125.14C78.8126 124.98 78.5759 124.9 78.2826 124.9C78.0759 124.9 77.9026 124.96 77.7626 125.08C77.6292 125.2 77.5626 125.37 77.5626 125.59C77.5626 125.79 77.6226 125.967 77.7426 126.12C77.8626 126.267 78.0159 126.407 78.2026 126.54C78.3959 126.667 78.5959 126.807 78.8026 126.96C79.0426 127.12 79.2559 127.283 79.4426 127.45C79.6292 127.61 79.7792 127.79 79.8926 127.99C80.0059 128.183 80.0626 128.413 80.0626 128.68C80.0626 128.987 79.9759 129.25 79.8026 129.47C79.6359 129.683 79.4126 129.85 79.1326 129.97C78.8592 130.083 78.5559 130.14 78.2226 130.14C78.0426 130.14 77.8792 130.123 77.7326 130.09C77.5859 130.057 77.4559 130.013 77.3426 129.96C77.2559 129.913 77.1759 129.87 77.1026 129.83C77.0359 129.79 76.9659 129.757 76.8926 129.73C76.8259 129.697 76.7659 129.71 76.7126 129.77C76.6659 129.83 76.6292 129.93 76.6026 130.07H76.3826C76.3959 129.857 76.4059 129.597 76.4126 129.29C76.4192 128.983 76.4226 128.577 76.4226 128.07H76.6426C76.6892 128.437 76.7592 128.76 76.8526 129.04C76.9526 129.313 77.0959 129.53 77.2826 129.69C77.4692 129.843 77.7092 129.92 78.0026 129.92C78.1292 129.92 78.2492 129.893 78.3626 129.84C78.4826 129.787 78.5792 129.703 78.6526 129.59C78.7326 129.477 78.7726 129.323 78.7726 129.13C78.7726 128.837 78.6726 128.593 78.4726 128.4C78.2726 128.207 78.0226 128 77.7226 127.78C77.4959 127.613 77.2826 127.45 77.0826 127.29C76.8892 127.13 76.7292 126.95 76.6026 126.75C76.4826 126.55 76.4226 126.313 76.4226 126.04C76.4226 125.74 76.4992 125.493 76.6526 125.3C76.8059 125.1 77.0059 124.95 77.2526 124.85C77.5059 124.743 77.7759 124.69 78.0626 124.69ZM85.0999 122.17V125.71C85.2666 125.337 85.4966 125.073 85.7899 124.92C86.0899 124.767 86.4133 124.69 86.7599 124.69C87.0333 124.69 87.2566 124.727 87.4299 124.8C87.6033 124.873 87.7433 124.967 87.8499 125.08C87.9633 125.207 88.0433 125.37 88.0899 125.57C88.1433 125.77 88.1699 126.04 88.1699 126.38V129.07C88.1699 129.35 88.2199 129.54 88.3199 129.64C88.4266 129.74 88.6033 129.79 88.8499 129.79V130C88.7299 129.993 88.5466 129.987 88.2999 129.98C88.0533 129.967 87.8099 129.96 87.5699 129.96C87.3299 129.96 87.0933 129.967 86.8599 129.98C86.6266 129.987 86.4499 129.993 86.3299 130V129.79C86.5433 129.79 86.6933 129.74 86.7799 129.64C86.8666 129.54 86.9099 129.35 86.9099 129.07V126.04C86.9099 125.86 86.8933 125.7 86.8599 125.56C86.8266 125.413 86.7599 125.3 86.6599 125.22C86.5666 125.133 86.4233 125.09 86.2299 125.09C86.0166 125.09 85.8233 125.15 85.6499 125.27C85.4833 125.383 85.3499 125.547 85.2499 125.76C85.1499 125.967 85.0999 126.203 85.0999 126.47V129.07C85.0999 129.35 85.1433 129.54 85.2299 129.64C85.3233 129.74 85.4733 129.79 85.6799 129.79V130C85.5666 129.993 85.3966 129.987 85.1699 129.98C84.9499 129.967 84.7199 129.96 84.4799 129.96C84.2399 129.96 83.9899 129.967 83.7299 129.98C83.4766 129.987 83.2866 129.993 83.1599 130V129.79C83.4066 129.79 83.5799 129.74 83.6799 129.64C83.7866 129.54 83.8399 129.35 83.8399 129.07V123.37C83.8399 123.07 83.7899 122.85 83.6899 122.71C83.5966 122.563 83.4199 122.49 83.1599 122.49V122.28C83.3733 122.3 83.5799 122.31 83.7799 122.31C84.0333 122.31 84.2699 122.3 84.4899 122.28C84.7099 122.253 84.9133 122.217 85.0999 122.17ZM90.6355 122.28C90.8755 122.28 91.0722 122.347 91.2255 122.48C91.3789 122.613 91.4555 122.79 91.4555 123.01C91.4555 123.23 91.3789 123.407 91.2255 123.54C91.0722 123.673 90.8755 123.74 90.6355 123.74C90.3955 123.74 90.1989 123.673 90.0455 123.54C89.8922 123.407 89.8155 123.23 89.8155 123.01C89.8155 122.79 89.8922 122.613 90.0455 122.48C90.1989 122.347 90.3955 122.28 90.6355 122.28ZM91.3355 124.72V129.07C91.3355 129.35 91.3855 129.54 91.4855 129.64C91.5922 129.74 91.7689 129.79 92.0155 129.79V130C91.8955 129.993 91.7122 129.987 91.4655 129.98C91.2189 129.967 90.9689 129.96 90.7155 129.96C90.4689 129.96 90.2189 129.967 89.9655 129.98C89.7122 129.987 89.5222 129.993 89.3955 130V129.79C89.6422 129.79 89.8155 129.74 89.9155 129.64C90.0222 129.54 90.0755 129.35 90.0755 129.07V125.93C90.0755 125.623 90.0255 125.4 89.9255 125.26C89.8322 125.113 89.6555 125.04 89.3955 125.04V124.83C89.6089 124.85 89.8155 124.86 90.0155 124.86C90.2622 124.86 90.4955 124.85 90.7155 124.83C90.9422 124.803 91.1489 124.767 91.3355 124.72ZM94.5217 131.88C94.1284 131.88 93.7717 131.843 93.4517 131.77C93.1317 131.697 92.8784 131.587 92.6917 131.44C92.5051 131.3 92.4117 131.12 92.4117 130.9C92.4117 130.687 92.5051 130.497 92.6917 130.33C92.8784 130.163 93.1517 130.037 93.5117 129.95L93.5817 130.11C93.4551 130.183 93.3584 130.283 93.2917 130.41C93.2251 130.537 93.1917 130.67 93.1917 130.81C93.1917 131.097 93.3217 131.317 93.5817 131.47C93.8484 131.63 94.2017 131.71 94.6417 131.71C94.9417 131.71 95.2184 131.67 95.4717 131.59C95.7251 131.51 95.9284 131.387 96.0817 131.22C96.2351 131.053 96.3117 130.847 96.3117 130.6C96.3117 130.393 96.2351 130.22 96.0817 130.08C95.9351 129.94 95.6384 129.87 95.1917 129.87H94.5317C94.2851 129.87 94.0584 129.843 93.8517 129.79C93.6517 129.737 93.4917 129.65 93.3717 129.53C93.2517 129.41 93.1917 129.243 93.1917 129.03C93.1917 128.77 93.2984 128.537 93.5117 128.33C93.7251 128.117 94.0584 127.91 94.5117 127.71L94.6217 127.8C94.4551 127.887 94.3051 127.98 94.1717 128.08C94.0451 128.18 93.9817 128.307 93.9817 128.46C93.9817 128.673 94.1284 128.78 94.4217 128.78H95.5517C95.8984 128.78 96.2051 128.823 96.4717 128.91C96.7451 128.997 96.9617 129.133 97.1217 129.32C97.2817 129.507 97.3617 129.753 97.3617 130.06C97.3617 130.38 97.2584 130.677 97.0517 130.95C96.8451 131.23 96.5317 131.453 96.1117 131.62C95.6984 131.793 95.1684 131.88 94.5217 131.88ZM94.6117 127.87C94.2517 127.87 93.9251 127.817 93.6317 127.71C93.3451 127.597 93.1184 127.423 92.9517 127.19C92.7851 126.95 92.7017 126.647 92.7017 126.28C92.7017 125.913 92.7851 125.613 92.9517 125.38C93.1184 125.147 93.3451 124.973 93.6317 124.86C93.9251 124.747 94.2517 124.69 94.6117 124.69C94.9784 124.69 95.3051 124.747 95.5917 124.86C95.8784 124.973 96.1051 125.147 96.2717 125.38C96.4384 125.613 96.5217 125.913 96.5217 126.28C96.5217 126.647 96.4384 126.95 96.2717 127.19C96.1051 127.423 95.8784 127.597 95.5917 127.71C95.3051 127.817 94.9784 127.87 94.6117 127.87ZM94.6117 127.69C94.8117 127.69 94.9684 127.59 95.0817 127.39C95.2017 127.183 95.2617 126.813 95.2617 126.28C95.2617 125.747 95.2017 125.38 95.0817 125.18C94.9684 124.973 94.8117 124.87 94.6117 124.87C94.4117 124.87 94.2517 124.973 94.1317 125.18C94.0184 125.38 93.9617 125.747 93.9617 126.28C93.9617 126.813 94.0184 127.183 94.1317 127.39C94.2517 127.59 94.4117 127.69 94.6117 127.69ZM96.1217 125.54L95.9317 125.47C96.0317 125.223 96.1951 125.017 96.4217 124.85C96.6484 124.677 96.8884 124.59 97.1417 124.59C97.3351 124.59 97.4851 124.643 97.5917 124.75C97.7051 124.857 97.7617 125.007 97.7617 125.2C97.7617 125.4 97.7084 125.547 97.6017 125.64C97.4951 125.733 97.3784 125.78 97.2517 125.78C97.1384 125.78 97.0351 125.743 96.9417 125.67C96.8484 125.59 96.7951 125.47 96.7817 125.31C96.7684 125.143 96.8217 124.937 96.9417 124.69L97.0417 124.73C96.7817 124.83 96.5884 124.94 96.4617 125.06C96.3351 125.18 96.2217 125.34 96.1217 125.54ZM100.091 122.17V125.71C100.258 125.337 100.488 125.073 100.781 124.92C101.081 124.767 101.404 124.69 101.751 124.69C102.024 124.69 102.248 124.727 102.421 124.8C102.594 124.873 102.734 124.967 102.841 125.08C102.954 125.207 103.034 125.37 103.081 125.57C103.134 125.77 103.161 126.04 103.161 126.38V129.07C103.161 129.35 103.211 129.54 103.311 129.64C103.418 129.74 103.594 129.79 103.841 129.79V130C103.721 129.993 103.538 129.987 103.291 129.98C103.044 129.967 102.801 129.96 102.561 129.96C102.321 129.96 102.084 129.967 101.851 129.98C101.618 129.987 101.441 129.993 101.321 130V129.79C101.534 129.79 101.684 129.74 101.771 129.64C101.858 129.54 101.901 129.35 101.901 129.07V126.04C101.901 125.86 101.884 125.7 101.851 125.56C101.818 125.413 101.751 125.3 101.651 125.22C101.558 125.133 101.414 125.09 101.221 125.09C101.008 125.09 100.814 125.15 100.641 125.27C100.474 125.383 100.341 125.547 100.241 125.76C100.141 125.967 100.091 126.203 100.091 126.47V129.07C100.091 129.35 100.134 129.54 100.221 129.64C100.314 129.74 100.464 129.79 100.671 129.79V130C100.558 129.993 100.388 129.987 100.161 129.98C99.9409 129.967 99.7109 129.96 99.4709 129.96C99.2309 129.96 98.9809 129.967 98.7209 129.98C98.4676 129.987 98.2776 129.993 98.1509 130V129.79C98.3976 129.79 98.5709 129.74 98.6709 129.64C98.7776 129.54 98.8309 129.35 98.8309 129.07V123.37C98.8309 123.07 98.7809 122.85 98.6809 122.71C98.5876 122.563 98.4109 122.49 98.1509 122.49V122.28C98.3643 122.3 98.5709 122.31 98.7709 122.31C99.0243 122.31 99.2609 122.3 99.4809 122.28C99.7009 122.253 99.9043 122.217 100.091 122.17ZM109.249 124.69C109.589 124.69 109.876 124.75 110.109 124.87C110.349 124.983 110.549 125.183 110.709 125.47H110.549C110.436 125.277 110.289 125.137 110.109 125.05C109.929 124.957 109.732 124.91 109.519 124.91C109.166 124.91 108.892 125.117 108.699 125.53C108.506 125.943 108.409 126.573 108.409 127.42C108.409 127.973 108.452 128.423 108.539 128.77C108.626 129.117 108.752 129.367 108.919 129.52C109.086 129.673 109.279 129.75 109.499 129.75C109.746 129.75 109.966 129.643 110.159 129.43C110.359 129.21 110.472 128.897 110.499 128.49L110.569 128.77C110.489 129.21 110.319 129.55 110.059 129.79C109.806 130.023 109.496 130.14 109.129 130.14C108.749 130.14 108.402 130.043 108.089 129.85C107.776 129.657 107.529 129.357 107.349 128.95C107.169 128.543 107.079 128.03 107.079 127.41C107.079 126.803 107.172 126.3 107.359 125.9C107.546 125.493 107.802 125.19 108.129 124.99C108.456 124.79 108.829 124.69 109.249 124.69ZM111.629 124.67L111.789 124.76C111.762 124.847 111.742 124.94 111.729 125.04C111.722 125.133 111.719 125.227 111.719 125.32V130.94C111.719 131.193 111.766 131.367 111.859 131.46C111.952 131.553 112.112 131.6 112.339 131.6V131.81C112.219 131.803 112.046 131.793 111.819 131.78C111.599 131.773 111.372 131.77 111.139 131.77C110.819 131.77 110.512 131.773 110.219 131.78C109.926 131.793 109.699 131.803 109.539 131.81V131.6C109.826 131.6 110.049 131.547 110.209 131.44C110.376 131.34 110.459 131.14 110.459 130.84V125.24C110.599 125.22 110.739 125.183 110.879 125.13C111.026 125.077 111.162 125.01 111.289 124.93C111.422 124.85 111.536 124.763 111.629 124.67ZM117.69 124.72V128.92C117.69 129.22 117.74 129.443 117.84 129.59C117.94 129.73 118.117 129.8 118.37 129.8V130.01C118.164 129.99 117.957 129.98 117.75 129.98C117.504 129.98 117.267 129.99 117.04 130.01C116.82 130.03 116.617 130.067 116.43 130.12V129.12C116.264 129.487 116.034 129.75 115.74 129.91C115.454 130.063 115.144 130.14 114.81 130.14C114.55 130.14 114.33 130.103 114.15 130.03C113.977 129.963 113.837 129.87 113.73 129.75C113.617 129.623 113.537 129.457 113.49 129.25C113.444 129.043 113.42 128.777 113.42 128.45V125.92C113.42 125.62 113.37 125.4 113.27 125.26C113.177 125.113 113 125.04 112.74 125.04V124.83C112.954 124.85 113.16 124.86 113.36 124.86C113.607 124.86 113.84 124.85 114.06 124.83C114.287 124.803 114.494 124.767 114.68 124.72V128.8C114.68 128.98 114.694 129.14 114.72 129.28C114.754 129.42 114.817 129.533 114.91 129.62C115.004 129.7 115.144 129.74 115.33 129.74C115.537 129.74 115.724 129.68 115.89 129.56C116.057 129.44 116.187 129.277 116.28 129.07C116.38 128.863 116.43 128.63 116.43 128.37V125.92C116.43 125.62 116.38 125.4 116.28 125.26C116.187 125.113 116.01 125.04 115.75 125.04V124.83C115.964 124.85 116.17 124.86 116.37 124.86C116.617 124.86 116.85 124.85 117.07 124.83C117.297 124.803 117.504 124.767 117.69 124.72ZM120.367 130.07C120.081 130.07 119.837 130.017 119.637 129.91C119.437 129.797 119.287 129.647 119.187 129.46C119.087 129.267 119.037 129.053 119.037 128.82C119.037 128.533 119.104 128.3 119.237 128.12C119.371 127.933 119.541 127.787 119.747 127.68C119.961 127.567 120.184 127.473 120.417 127.4C120.651 127.32 120.871 127.247 121.077 127.18C121.284 127.107 121.454 127.023 121.587 126.93C121.721 126.837 121.787 126.713 121.787 126.56V125.83C121.787 125.617 121.754 125.443 121.687 125.31C121.627 125.17 121.534 125.067 121.407 125C121.287 124.927 121.134 124.89 120.947 124.89C120.807 124.89 120.661 124.91 120.507 124.95C120.354 124.99 120.227 125.067 120.127 125.18C120.301 125.227 120.434 125.313 120.527 125.44C120.627 125.567 120.677 125.72 120.677 125.9C120.677 126.107 120.607 126.27 120.467 126.39C120.334 126.503 120.164 126.56 119.957 126.56C119.737 126.56 119.571 126.49 119.457 126.35C119.344 126.21 119.287 126.047 119.287 125.86C119.287 125.673 119.334 125.52 119.427 125.4C119.521 125.273 119.651 125.16 119.817 125.06C119.984 124.947 120.197 124.857 120.457 124.79C120.717 124.723 121.001 124.69 121.307 124.69C121.601 124.69 121.861 124.723 122.087 124.79C122.314 124.85 122.507 124.96 122.667 125.12C122.827 125.273 122.931 125.463 122.977 125.69C123.024 125.917 123.047 126.193 123.047 126.52V129.26C123.047 129.427 123.067 129.547 123.107 129.62C123.147 129.687 123.211 129.72 123.297 129.72C123.364 129.72 123.427 129.703 123.487 129.67C123.547 129.637 123.614 129.59 123.687 129.53L123.797 129.7C123.651 129.813 123.497 129.903 123.337 129.97C123.177 130.037 122.984 130.07 122.757 130.07C122.524 130.07 122.337 130.037 122.197 129.97C122.064 129.903 121.964 129.807 121.897 129.68C121.837 129.553 121.804 129.403 121.797 129.23C121.637 129.497 121.441 129.703 121.207 129.85C120.974 129.997 120.694 130.07 120.367 130.07ZM120.967 129.51C121.127 129.51 121.274 129.467 121.407 129.38C121.547 129.293 121.674 129.163 121.787 128.99V126.97C121.721 127.07 121.624 127.16 121.497 127.24C121.377 127.32 121.247 127.4 121.107 127.48C120.967 127.56 120.834 127.653 120.707 127.76C120.587 127.86 120.484 127.987 120.397 128.14C120.317 128.287 120.277 128.477 120.277 128.71C120.277 128.97 120.341 129.17 120.467 129.31C120.594 129.443 120.761 129.51 120.967 129.51ZM126.115 122.17V129.07C126.115 129.35 126.165 129.54 126.265 129.64C126.371 129.74 126.548 129.79 126.795 129.79V130C126.675 129.993 126.491 129.987 126.245 129.98C126.005 129.967 125.758 129.96 125.505 129.96C125.258 129.96 125.005 129.967 124.745 129.98C124.491 129.987 124.301 129.993 124.175 130V129.79C124.421 129.79 124.595 129.74 124.695 129.64C124.801 129.54 124.855 129.35 124.855 129.07V123.37C124.855 123.07 124.808 122.85 124.715 122.71C124.621 122.563 124.441 122.49 124.175 122.49V122.28C124.388 122.3 124.595 122.31 124.795 122.31C125.048 122.31 125.285 122.3 125.505 122.28C125.725 122.253 125.928 122.217 126.115 122.17ZM128.652 122.28C128.892 122.28 129.089 122.347 129.242 122.48C129.395 122.613 129.472 122.79 129.472 123.01C129.472 123.23 129.395 123.407 129.242 123.54C129.089 123.673 128.892 123.74 128.652 123.74C128.412 123.74 128.215 123.673 128.062 123.54C127.909 123.407 127.832 123.23 127.832 123.01C127.832 122.79 127.909 122.613 128.062 122.48C128.215 122.347 128.412 122.28 128.652 122.28ZM129.352 124.72V129.07C129.352 129.35 129.402 129.54 129.502 129.64C129.609 129.74 129.785 129.79 130.032 129.79V130C129.912 129.993 129.729 129.987 129.482 129.98C129.235 129.967 128.985 129.96 128.732 129.96C128.485 129.96 128.235 129.967 127.982 129.98C127.729 129.987 127.539 129.993 127.412 130V129.79C127.659 129.79 127.832 129.74 127.932 129.64C128.039 129.54 128.092 129.35 128.092 129.07V125.93C128.092 125.623 128.042 125.4 127.942 125.26C127.849 125.113 127.672 125.04 127.412 125.04V124.83C127.625 124.85 127.832 124.86 128.032 124.86C128.279 124.86 128.512 124.85 128.732 124.83C128.959 124.803 129.165 124.767 129.352 124.72ZM132.528 123.19V124.84H133.808V125.04H132.528V129.02C132.528 129.26 132.571 129.43 132.658 129.53C132.745 129.63 132.868 129.68 133.028 129.68C133.181 129.68 133.321 129.623 133.448 129.51C133.575 129.39 133.688 129.193 133.788 128.92L133.968 129C133.868 129.327 133.711 129.6 133.498 129.82C133.291 130.033 132.998 130.14 132.618 130.14C132.391 130.14 132.198 130.11 132.038 130.05C131.885 129.997 131.751 129.917 131.638 129.81C131.491 129.657 131.391 129.473 131.338 129.26C131.291 129.047 131.268 128.763 131.268 128.41V125.04H130.388V124.84H131.268V123.45C131.508 123.443 131.731 123.42 131.938 123.38C132.145 123.34 132.341 123.277 132.528 123.19ZM139.104 124.83V125.04C138.977 125.067 138.857 125.137 138.744 125.25C138.637 125.363 138.534 125.563 138.434 125.85L136.954 129.91L136.644 130.38L134.584 125.6C134.457 125.347 134.337 125.19 134.224 125.13C134.11 125.07 134.017 125.04 133.944 125.04V124.83C134.137 124.85 134.337 124.867 134.544 124.88C134.757 124.887 134.97 124.89 135.184 124.89C135.43 124.89 135.667 124.883 135.894 124.87C136.127 124.857 136.344 124.843 136.544 124.83V125.04C136.39 125.04 136.254 125.05 136.134 125.07C136.014 125.09 135.934 125.147 135.894 125.24C135.86 125.327 135.887 125.48 135.974 125.7L137.224 128.75L137.144 128.79L138.024 126.41C138.137 126.097 138.184 125.843 138.164 125.65C138.144 125.457 138.07 125.31 137.944 125.21C137.817 125.11 137.644 125.053 137.424 125.04V124.83C137.53 124.837 137.637 124.843 137.744 124.85C137.85 124.857 137.954 124.863 138.054 124.87C138.154 124.87 138.25 124.87 138.344 124.87C138.484 124.87 138.62 124.867 138.754 124.86C138.894 124.853 139.01 124.843 139.104 124.83ZM136.954 129.91L136.574 130.92C136.514 131.087 136.447 131.227 136.374 131.34C136.307 131.46 136.23 131.557 136.144 131.63C136.044 131.717 135.92 131.78 135.774 131.82C135.634 131.86 135.477 131.88 135.304 131.88C135.15 131.88 135 131.853 134.854 131.8C134.714 131.747 134.594 131.667 134.494 131.56C134.4 131.453 134.354 131.313 134.354 131.14C134.354 130.953 134.417 130.803 134.544 130.69C134.67 130.577 134.844 130.52 135.064 130.52C135.257 130.52 135.414 130.567 135.534 130.66C135.66 130.76 135.724 130.907 135.724 131.1C135.724 131.227 135.687 131.34 135.614 131.44C135.54 131.54 135.437 131.617 135.304 131.67C135.337 131.677 135.367 131.68 135.394 131.68C135.427 131.687 135.454 131.69 135.474 131.69C135.667 131.69 135.84 131.627 135.994 131.5C136.147 131.373 136.27 131.173 136.364 130.9L136.724 129.91H136.954ZM140.221 128.68C140.447 128.68 140.634 128.747 140.781 128.88C140.927 129.013 141.001 129.19 141.001 129.41C141.001 129.63 140.927 129.807 140.781 129.94C140.634 130.073 140.447 130.14 140.221 130.14C139.987 130.14 139.797 130.073 139.651 129.94C139.511 129.807 139.441 129.63 139.441 129.41C139.441 129.19 139.511 129.013 139.651 128.88C139.797 128.747 139.987 128.68 140.221 128.68Z" fill="black"/>
<path d="M34.77 135.28V135.47H34.12V144.62H34.77V144.81H32.86V135.28H34.77ZM35.8303 135.92C35.997 135.927 36.2103 135.933 36.4703 135.94C36.7303 135.947 36.9903 135.95 37.2503 135.95C37.577 135.95 37.887 135.947 38.1803 135.94C38.4736 135.933 38.6803 135.93 38.8003 135.93C39.587 135.93 40.1736 136.077 40.5603 136.37C40.9536 136.663 41.1503 137.04 41.1503 137.5C41.1503 137.733 41.087 137.967 40.9603 138.2C40.8403 138.433 40.6436 138.643 40.3703 138.83C40.1036 139.017 39.7536 139.157 39.3203 139.25V139.27C39.907 139.323 40.3703 139.443 40.7103 139.63C41.057 139.81 41.3036 140.027 41.4503 140.28C41.597 140.527 41.6703 140.787 41.6703 141.06C41.6703 141.467 41.5636 141.817 41.3503 142.11C41.1436 142.397 40.8436 142.617 40.4503 142.77C40.057 142.923 39.5836 143 39.0303 143C38.8836 143 38.6603 142.997 38.3603 142.99C38.0603 142.977 37.697 142.97 37.2703 142.97C36.997 142.97 36.7303 142.973 36.4703 142.98C36.2103 142.98 35.997 142.987 35.8303 143V142.8C36.0503 142.787 36.2136 142.76 36.3203 142.72C36.4336 142.68 36.507 142.6 36.5403 142.48C36.5803 142.36 36.6003 142.18 36.6003 141.94V136.98C36.6003 136.733 36.5803 136.553 36.5403 136.44C36.507 136.32 36.4336 136.24 36.3203 136.2C36.2136 136.153 36.0503 136.127 35.8303 136.12V135.92ZM38.6303 136.12C38.357 136.12 38.177 136.177 38.0903 136.29C38.0103 136.403 37.9703 136.633 37.9703 136.98V141.94C37.9703 142.173 37.9903 142.35 38.0303 142.47C38.0703 142.59 38.1403 142.67 38.2403 142.71C38.3403 142.75 38.487 142.77 38.6803 142.77C39.227 142.77 39.6203 142.62 39.8603 142.32C40.107 142.013 40.2303 141.58 40.2303 141.02C40.2303 140.507 40.097 140.11 39.8303 139.83C39.5703 139.55 39.137 139.41 38.5303 139.41H37.6203C37.6203 139.41 37.6203 139.383 37.6203 139.33C37.6203 139.27 37.6203 139.24 37.6203 139.24H38.4803C38.8203 139.24 39.0836 139.167 39.2703 139.02C39.457 138.867 39.5836 138.667 39.6503 138.42C39.717 138.167 39.7503 137.897 39.7503 137.61C39.7503 137.117 39.6636 136.747 39.4903 136.5C39.317 136.247 39.0303 136.12 38.6303 136.12ZM45.7238 137.69C45.9304 137.69 46.1004 137.733 46.2338 137.82C46.3738 137.907 46.4771 138.017 46.5438 138.15C46.6104 138.283 46.6438 138.423 46.6438 138.57C46.6438 138.79 46.5771 138.973 46.4438 139.12C46.3171 139.267 46.1471 139.34 45.9338 139.34C45.7338 139.34 45.5704 139.287 45.4438 139.18C45.3171 139.073 45.2538 138.927 45.2538 138.74C45.2538 138.573 45.2938 138.433 45.3738 138.32C45.4604 138.207 45.5571 138.117 45.6638 138.05C45.5904 138.01 45.5071 137.997 45.4138 138.01C45.2538 138.023 45.1071 138.08 44.9738 138.18C44.8404 138.28 44.7271 138.403 44.6338 138.55C44.5404 138.697 44.4671 138.853 44.4138 139.02C44.3671 139.187 44.3438 139.347 44.3438 139.5V141.97C44.3438 142.297 44.4271 142.517 44.5938 142.63C44.7604 142.737 45.0038 142.79 45.3238 142.79V143C45.1704 142.993 44.9471 142.987 44.6538 142.98C44.3671 142.967 44.0671 142.96 43.7538 142.96C43.4938 142.96 43.2338 142.967 42.9738 142.98C42.7204 142.987 42.5304 142.993 42.4038 143V142.79C42.6504 142.79 42.8238 142.74 42.9238 142.64C43.0304 142.54 43.0838 142.35 43.0838 142.07V138.92C43.0838 138.62 43.0338 138.4 42.9338 138.26C42.8404 138.113 42.6638 138.04 42.4038 138.04V137.83C42.6171 137.85 42.8238 137.86 43.0238 137.86C43.2704 137.86 43.5038 137.85 43.7238 137.83C43.9504 137.803 44.1571 137.767 44.3438 137.72V138.76C44.4238 138.573 44.5271 138.4 44.6538 138.24C44.7871 138.08 44.9438 137.95 45.1238 137.85C45.3104 137.743 45.5104 137.69 45.7238 137.69ZM48.3836 135.28C48.6236 135.28 48.8203 135.347 48.9736 135.48C49.1269 135.613 49.2036 135.79 49.2036 136.01C49.2036 136.23 49.1269 136.407 48.9736 136.54C48.8203 136.673 48.6236 136.74 48.3836 136.74C48.1436 136.74 47.9469 136.673 47.7936 136.54C47.6403 136.407 47.5636 136.23 47.5636 136.01C47.5636 135.79 47.6403 135.613 47.7936 135.48C47.9469 135.347 48.1436 135.28 48.3836 135.28ZM49.0836 137.72V142.07C49.0836 142.35 49.1336 142.54 49.2336 142.64C49.3403 142.74 49.5169 142.79 49.7636 142.79V143C49.6436 142.993 49.4603 142.987 49.2136 142.98C48.9669 142.967 48.7169 142.96 48.4636 142.96C48.2169 142.96 47.9669 142.967 47.7136 142.98C47.4603 142.987 47.2703 142.993 47.1436 143V142.79C47.3903 142.79 47.5636 142.74 47.6636 142.64C47.7703 142.54 47.8236 142.35 47.8236 142.07V138.93C47.8236 138.623 47.7736 138.4 47.6736 138.26C47.5803 138.113 47.4036 138.04 47.1436 138.04V137.83C47.3569 137.85 47.5636 137.86 47.7636 137.86C48.0103 137.86 48.2436 137.85 48.4636 137.83C48.6903 137.803 48.8969 137.767 49.0836 137.72ZM52.2598 136.19V137.84H53.5398V138.04H52.2598V142.02C52.2598 142.26 52.3031 142.43 52.3898 142.53C52.4764 142.63 52.5998 142.68 52.7598 142.68C52.9131 142.68 53.0531 142.623 53.1798 142.51C53.3064 142.39 53.4198 142.193 53.5198 141.92L53.6998 142C53.5998 142.327 53.4431 142.6 53.2298 142.82C53.0231 143.033 52.7298 143.14 52.3498 143.14C52.1231 143.14 51.9298 143.11 51.7698 143.05C51.6164 142.997 51.4831 142.917 51.3698 142.81C51.2231 142.657 51.1231 142.473 51.0698 142.26C51.0231 142.047 50.9998 141.763 50.9998 141.41V138.04H50.1198V137.84H50.9998V136.45C51.2398 136.443 51.4631 136.42 51.6698 136.38C51.8764 136.34 52.0731 136.277 52.2598 136.19ZM55.2754 135.28C55.5154 135.28 55.7121 135.347 55.8654 135.48C56.0187 135.613 56.0954 135.79 56.0954 136.01C56.0954 136.23 56.0187 136.407 55.8654 136.54C55.7121 136.673 55.5154 136.74 55.2754 136.74C55.0354 136.74 54.8387 136.673 54.6854 136.54C54.5321 136.407 54.4554 136.23 54.4554 136.01C54.4554 135.79 54.5321 135.613 54.6854 135.48C54.8387 135.347 55.0354 135.28 55.2754 135.28ZM55.9754 137.72V142.07C55.9754 142.35 56.0254 142.54 56.1254 142.64C56.2321 142.74 56.4087 142.79 56.6554 142.79V143C56.5354 142.993 56.3521 142.987 56.1054 142.98C55.8587 142.967 55.6087 142.96 55.3554 142.96C55.1087 142.96 54.8587 142.967 54.6054 142.98C54.3521 142.987 54.1621 142.993 54.0354 143V142.79C54.2821 142.79 54.4554 142.74 54.5554 142.64C54.6621 142.54 54.7154 142.35 54.7154 142.07V138.93C54.7154 138.623 54.6654 138.4 54.5654 138.26C54.4721 138.113 54.2954 138.04 54.0354 138.04V137.83C54.2487 137.85 54.4554 137.86 54.6554 137.86C54.9021 137.86 55.1354 137.85 55.3554 137.83C55.5821 137.803 55.7887 137.767 55.9754 137.72ZM59.1716 137.69C59.4516 137.69 59.6916 137.73 59.8916 137.81C60.0916 137.89 60.2382 137.96 60.3316 138.02C60.5582 138.187 60.6949 138.08 60.7416 137.7H60.9616C60.9482 137.893 60.9382 138.123 60.9316 138.39C60.9249 138.65 60.9216 139 60.9216 139.44H60.7016C60.6682 139.193 60.6049 138.953 60.5116 138.72C60.4182 138.487 60.2816 138.293 60.1016 138.14C59.9216 137.98 59.6849 137.9 59.3916 137.9C59.1849 137.9 59.0116 137.96 58.8716 138.08C58.7382 138.2 58.6716 138.37 58.6716 138.59C58.6716 138.79 58.7316 138.967 58.8516 139.12C58.9716 139.267 59.1249 139.407 59.3116 139.54C59.5049 139.667 59.7049 139.807 59.9116 139.96C60.1516 140.12 60.3649 140.283 60.5516 140.45C60.7382 140.61 60.8882 140.79 61.0016 140.99C61.1149 141.183 61.1716 141.413 61.1716 141.68C61.1716 141.987 61.0849 142.25 60.9116 142.47C60.7449 142.683 60.5216 142.85 60.2416 142.97C59.9682 143.083 59.6649 143.14 59.3316 143.14C59.1516 143.14 58.9882 143.123 58.8416 143.09C58.6949 143.057 58.5649 143.013 58.4516 142.96C58.3649 142.913 58.2849 142.87 58.2116 142.83C58.1449 142.79 58.0749 142.757 58.0016 142.73C57.9349 142.697 57.8749 142.71 57.8216 142.77C57.7749 142.83 57.7382 142.93 57.7116 143.07H57.4916C57.5049 142.857 57.5149 142.597 57.5216 142.29C57.5282 141.983 57.5316 141.577 57.5316 141.07H57.7516C57.7982 141.437 57.8682 141.76 57.9616 142.04C58.0616 142.313 58.2049 142.53 58.3916 142.69C58.5782 142.843 58.8182 142.92 59.1116 142.92C59.2382 142.92 59.3582 142.893 59.4716 142.84C59.5916 142.787 59.6882 142.703 59.7616 142.59C59.8416 142.477 59.8816 142.323 59.8816 142.13C59.8816 141.837 59.7816 141.593 59.5816 141.4C59.3816 141.207 59.1316 141 58.8316 140.78C58.6049 140.613 58.3916 140.45 58.1916 140.29C57.9982 140.13 57.8382 139.95 57.7116 139.75C57.5916 139.55 57.5316 139.313 57.5316 139.04C57.5316 138.74 57.6082 138.493 57.7616 138.3C57.9149 138.1 58.1149 137.95 58.3616 137.85C58.6149 137.743 58.8849 137.69 59.1716 137.69ZM63.8519 135.17V138.71C64.0185 138.337 64.2485 138.073 64.5419 137.92C64.8419 137.767 65.1652 137.69 65.5119 137.69C65.7852 137.69 66.0085 137.727 66.1819 137.8C66.3552 137.873 66.4952 137.967 66.6019 138.08C66.7152 138.207 66.7952 138.37 66.8419 138.57C66.8952 138.77 66.9219 139.04 66.9219 139.38V142.07C66.9219 142.35 66.9719 142.54 67.0719 142.64C67.1785 142.74 67.3552 142.79 67.6019 142.79V143C67.4819 142.993 67.2985 142.987 67.0519 142.98C66.8052 142.967 66.5619 142.96 66.3219 142.96C66.0819 142.96 65.8452 142.967 65.6119 142.98C65.3785 142.987 65.2019 142.993 65.0819 143V142.79C65.2952 142.79 65.4452 142.74 65.5319 142.64C65.6185 142.54 65.6619 142.35 65.6619 142.07V139.04C65.6619 138.86 65.6452 138.7 65.6119 138.56C65.5785 138.413 65.5119 138.3 65.4119 138.22C65.3185 138.133 65.1752 138.09 64.9819 138.09C64.7685 138.09 64.5752 138.15 64.4019 138.27C64.2352 138.383 64.1019 138.547 64.0019 138.76C63.9019 138.967 63.8519 139.203 63.8519 139.47V142.07C63.8519 142.35 63.8952 142.54 63.9819 142.64C64.0752 142.74 64.2252 142.79 64.4319 142.79V143C64.3185 142.993 64.1485 142.987 63.9219 142.98C63.7019 142.967 63.4719 142.96 63.2319 142.96C62.9919 142.96 62.7419 142.967 62.4819 142.98C62.2285 142.987 62.0385 142.993 61.9119 143V142.79C62.1585 142.79 62.3319 142.74 62.4319 142.64C62.5385 142.54 62.5919 142.35 62.5919 142.07V136.37C62.5919 136.07 62.5419 135.85 62.4419 135.71C62.3485 135.563 62.1719 135.49 61.9119 135.49V135.28C62.1252 135.3 62.3319 135.31 62.5319 135.31C62.7852 135.31 63.0219 135.3 63.2419 135.28C63.4619 135.253 63.6652 135.217 63.8519 135.17ZM69.1875 141.68C69.3408 141.68 69.4708 141.713 69.5775 141.78C69.6908 141.84 69.7842 141.92 69.8575 142.02C69.9308 142.127 69.9808 142.25 70.0075 142.39C70.0408 142.53 70.0575 142.667 70.0575 142.8C70.0575 143.127 69.9708 143.43 69.7975 143.71C69.6308 143.99 69.3708 144.213 69.0175 144.38L68.9275 144.2C69.1208 144.113 69.2875 143.983 69.4275 143.81C69.5742 143.643 69.6575 143.467 69.6775 143.28C69.7042 143.16 69.7042 143.047 69.6775 142.94C69.5442 143.073 69.3708 143.14 69.1575 143.14C68.9508 143.14 68.7775 143.077 68.6375 142.95C68.4975 142.823 68.4275 142.643 68.4275 142.41C68.4275 142.197 68.4975 142.023 68.6375 141.89C68.7842 141.75 68.9675 141.68 69.1875 141.68ZM76.0959 135.18C76.3159 135.18 76.5059 135.21 76.6659 135.27C76.8325 135.323 76.9759 135.397 77.0959 135.49C77.1959 135.57 77.2759 135.67 77.3359 135.79C77.4025 135.91 77.4359 136.043 77.4359 136.19C77.4359 136.37 77.3725 136.523 77.2459 136.65C77.1259 136.777 76.9725 136.84 76.7859 136.84C76.5859 136.84 76.4192 136.783 76.2859 136.67C76.1592 136.55 76.0959 136.387 76.0959 136.18C76.0959 136.02 76.1392 135.883 76.2259 135.77C76.3192 135.65 76.4492 135.567 76.6159 135.52C76.5959 135.473 76.5525 135.433 76.4859 135.4C76.4192 135.367 76.3292 135.35 76.2159 135.35C76.0825 135.35 75.9659 135.377 75.8659 135.43C75.7725 135.483 75.6959 135.557 75.6359 135.65C75.5692 135.763 75.5225 135.93 75.4959 136.15C75.4692 136.37 75.4559 136.703 75.4559 137.15V137.84H76.5259V138.04H75.4559V141.97C75.4559 142.297 75.5425 142.517 75.7159 142.63C75.8959 142.737 76.1359 142.79 76.4359 142.79V143C76.2692 142.993 76.0359 142.987 75.7359 142.98C75.4359 142.967 75.1159 142.96 74.7759 142.96C74.5359 142.96 74.2959 142.967 74.0559 142.98C73.8159 142.987 73.6359 142.993 73.5159 143V142.79C73.7625 142.79 73.9359 142.74 74.0359 142.64C74.1425 142.54 74.1959 142.35 74.1959 142.07V138.04H73.4759V137.84H74.1959C74.1959 137.447 74.2159 137.12 74.2559 136.86C74.2959 136.593 74.3559 136.367 74.4359 136.18C74.5225 135.993 74.6392 135.827 74.7859 135.68C74.9259 135.533 75.1092 135.413 75.3359 135.32C75.5692 135.227 75.8225 135.18 76.0959 135.18ZM79.4773 137.69C79.9373 137.69 80.344 137.783 80.6973 137.97C81.0573 138.15 81.3407 138.44 81.5473 138.84C81.7607 139.24 81.8673 139.767 81.8673 140.42C81.8673 141.073 81.7607 141.6 81.5473 142C81.3407 142.4 81.0573 142.69 80.6973 142.87C80.344 143.05 79.9373 143.14 79.4773 143.14C79.0173 143.14 78.6073 143.05 78.2473 142.87C77.8873 142.69 77.604 142.4 77.3973 142C77.1907 141.6 77.0873 141.073 77.0873 140.42C77.0873 139.767 77.1907 139.24 77.3973 138.84C77.604 138.44 77.8873 138.15 78.2473 137.97C78.6073 137.783 79.0173 137.69 79.4773 137.69ZM79.4773 137.89C79.164 137.89 78.9073 138.09 78.7073 138.49C78.514 138.883 78.4173 139.527 78.4173 140.42C78.4173 141.313 78.514 141.957 78.7073 142.35C78.9073 142.743 79.164 142.94 79.4773 142.94C79.784 142.94 80.0373 142.743 80.2373 142.35C80.4373 141.957 80.5373 141.313 80.5373 140.42C80.5373 139.527 80.4373 138.883 80.2373 138.49C80.0373 138.09 79.784 137.89 79.4773 137.89ZM85.9933 137.69C86.1999 137.69 86.3699 137.733 86.5033 137.82C86.6433 137.907 86.7466 138.017 86.8133 138.15C86.8799 138.283 86.9133 138.423 86.9133 138.57C86.9133 138.79 86.8466 138.973 86.7133 139.12C86.5866 139.267 86.4166 139.34 86.2033 139.34C86.0033 139.34 85.8399 139.287 85.7133 139.18C85.5866 139.073 85.5233 138.927 85.5233 138.74C85.5233 138.573 85.5633 138.433 85.6433 138.32C85.7299 138.207 85.8266 138.117 85.9333 138.05C85.8599 138.01 85.7766 137.997 85.6833 138.01C85.5233 138.023 85.3766 138.08 85.2433 138.18C85.1099 138.28 84.9966 138.403 84.9033 138.55C84.8099 138.697 84.7366 138.853 84.6833 139.02C84.6366 139.187 84.6133 139.347 84.6133 139.5V141.97C84.6133 142.297 84.6966 142.517 84.8633 142.63C85.0299 142.737 85.2733 142.79 85.5933 142.79V143C85.4399 142.993 85.2166 142.987 84.9233 142.98C84.6366 142.967 84.3366 142.96 84.0233 142.96C83.7633 142.96 83.5033 142.967 83.2433 142.98C82.9899 142.987 82.7999 142.993 82.6733 143V142.79C82.9199 142.79 83.0933 142.74 83.1933 142.64C83.2999 142.54 83.3533 142.35 83.3533 142.07V138.92C83.3533 138.62 83.3033 138.4 83.2033 138.26C83.1099 138.113 82.9333 138.04 82.6733 138.04V137.83C82.8866 137.85 83.0933 137.86 83.2933 137.86C83.5399 137.86 83.7733 137.85 83.9933 137.83C84.2199 137.803 84.4266 137.767 84.6133 137.72V138.76C84.6933 138.573 84.7966 138.4 84.9233 138.24C85.0566 138.08 85.2133 137.95 85.3933 137.85C85.5799 137.743 85.7799 137.69 85.9933 137.69ZM90.9331 137.69C91.1931 137.69 91.4098 137.727 91.5831 137.8C91.7631 137.873 91.9031 137.967 92.0031 138.08C92.1231 138.207 92.2065 138.377 92.2531 138.59C92.2998 138.797 92.3231 139.06 92.3231 139.38V142.07C92.3231 142.35 92.3698 142.54 92.4631 142.64C92.5631 142.74 92.7298 142.79 92.9631 142.79V143C92.8431 142.993 92.6631 142.987 92.4231 142.98C92.1831 142.967 91.9498 142.96 91.7231 142.96C91.4831 142.96 91.2498 142.967 91.0231 142.98C90.8031 142.987 90.6365 142.993 90.5231 143V142.79C90.7165 142.79 90.8531 142.74 90.9331 142.64C91.0198 142.54 91.0631 142.35 91.0631 142.07V139.04C91.0631 138.86 91.0498 138.7 91.0231 138.56C90.9965 138.413 90.9398 138.3 90.8531 138.22C90.7665 138.133 90.6331 138.09 90.4531 138.09C90.2465 138.09 90.0598 138.15 89.8931 138.27C89.7265 138.39 89.5931 138.557 89.4931 138.77C89.3998 138.977 89.3531 139.21 89.3531 139.47V142.07C89.3531 142.35 89.3931 142.54 89.4731 142.64C89.5531 142.74 89.6931 142.79 89.8931 142.79V143C89.7798 142.993 89.6131 142.987 89.3931 142.98C89.1798 142.967 88.9598 142.96 88.7331 142.96C88.4865 142.96 88.2365 142.967 87.9831 142.98C87.7298 142.987 87.5398 142.993 87.4131 143V142.79C87.6598 142.79 87.8331 142.74 87.9331 142.64C88.0398 142.54 88.0931 142.35 88.0931 142.07V138.92C88.0931 138.62 88.0431 138.4 87.9431 138.26C87.8498 138.113 87.6731 138.04 87.4131 138.04V137.83C87.6265 137.85 87.8331 137.86 88.0331 137.86C88.2798 137.86 88.5131 137.85 88.7331 137.83C88.9598 137.803 89.1665 137.767 89.3531 137.72V138.72C89.5198 138.353 89.7431 138.09 90.0231 137.93C90.3031 137.77 90.6065 137.69 90.9331 137.69ZM93.9431 137.69C94.2031 137.69 94.4198 137.727 94.5931 137.8C94.7731 137.873 94.9131 137.967 95.0131 138.08C95.1331 138.207 95.2165 138.377 95.2631 138.59C95.3098 138.797 95.3331 139.06 95.3331 139.38V142.07C95.3331 142.35 95.3831 142.54 95.4831 142.64C95.5898 142.74 95.7665 142.79 96.0131 142.79V143C95.8931 142.993 95.7065 142.987 95.4531 142.98C95.2065 142.967 94.9665 142.96 94.7331 142.96C94.4931 142.96 94.2598 142.967 94.0331 142.98C93.8131 142.987 93.6465 142.993 93.5331 143V142.79C93.7265 142.79 93.8631 142.74 93.9431 142.64C94.0298 142.54 94.0731 142.35 94.0731 142.07V139.04C94.0731 138.86 94.0565 138.7 94.0231 138.56C93.9965 138.413 93.9365 138.3 93.8431 138.22C93.7498 138.133 93.6098 138.09 93.4231 138.09C93.2165 138.09 93.0298 138.153 92.8631 138.28C92.6965 138.407 92.5631 138.577 92.4631 138.79C92.3698 138.997 92.3198 139.23 92.3131 139.49L92.2631 138.77C92.4431 138.357 92.6831 138.073 92.9831 137.92C93.2831 137.767 93.6031 137.69 93.9431 137.69ZM97.9473 143.07C97.6606 143.07 97.4173 143.017 97.2173 142.91C97.0173 142.797 96.8673 142.647 96.7673 142.46C96.6673 142.267 96.6173 142.053 96.6173 141.82C96.6173 141.533 96.6839 141.3 96.8173 141.12C96.9506 140.933 97.1206 140.787 97.3273 140.68C97.5406 140.567 97.7639 140.473 97.9973 140.4C98.2306 140.32 98.4506 140.247 98.6573 140.18C98.8639 140.107 99.0339 140.023 99.1673 139.93C99.3006 139.837 99.3673 139.713 99.3673 139.56V138.83C99.3673 138.617 99.3339 138.443 99.2673 138.31C99.2073 138.17 99.1139 138.067 98.9873 138C98.8673 137.927 98.7139 137.89 98.5273 137.89C98.3873 137.89 98.2406 137.91 98.0873 137.95C97.9339 137.99 97.8073 138.067 97.7073 138.18C97.8806 138.227 98.0139 138.313 98.1073 138.44C98.2073 138.567 98.2573 138.72 98.2573 138.9C98.2573 139.107 98.1873 139.27 98.0473 139.39C97.9139 139.503 97.7439 139.56 97.5373 139.56C97.3173 139.56 97.1506 139.49 97.0373 139.35C96.9239 139.21 96.8673 139.047 96.8673 138.86C96.8673 138.673 96.9139 138.52 97.0073 138.4C97.1006 138.273 97.2306 138.16 97.3973 138.06C97.5639 137.947 97.7773 137.857 98.0373 137.79C98.2973 137.723 98.5806 137.69 98.8873 137.69C99.1806 137.69 99.4406 137.723 99.6673 137.79C99.8939 137.85 100.087 137.96 100.247 138.12C100.407 138.273 100.511 138.463 100.557 138.69C100.604 138.917 100.627 139.193 100.627 139.52V142.26C100.627 142.427 100.647 142.547 100.687 142.62C100.727 142.687 100.791 142.72 100.877 142.72C100.944 142.72 101.007 142.703 101.067 142.67C101.127 142.637 101.194 142.59 101.267 142.53L101.377 142.7C101.231 142.813 101.077 142.903 100.917 142.97C100.757 143.037 100.564 143.07 100.337 143.07C100.104 143.07 99.9173 143.037 99.7773 142.97C99.6439 142.903 99.5439 142.807 99.4773 142.68C99.4173 142.553 99.3839 142.403 99.3773 142.23C99.2173 142.497 99.0206 142.703 98.7873 142.85C98.5539 142.997 98.2739 143.07 97.9473 143.07ZM98.5473 142.51C98.7073 142.51 98.8539 142.467 98.9873 142.38C99.1273 142.293 99.2539 142.163 99.3673 141.99V139.97C99.3006 140.07 99.2039 140.16 99.0773 140.24C98.9573 140.32 98.8273 140.4 98.6873 140.48C98.5473 140.56 98.4139 140.653 98.2873 140.76C98.1673 140.86 98.0639 140.987 97.9773 141.14C97.8973 141.287 97.8573 141.477 97.8573 141.71C97.8573 141.97 97.9206 142.17 98.0473 142.31C98.1739 142.443 98.3406 142.51 98.5473 142.51ZM103.695 135.17V142.07C103.695 142.35 103.745 142.54 103.845 142.64C103.951 142.74 104.128 142.79 104.375 142.79V143C104.255 142.993 104.071 142.987 103.825 142.98C103.585 142.967 103.338 142.96 103.085 142.96C102.838 142.96 102.585 142.967 102.325 142.98C102.071 142.987 101.881 142.993 101.755 143V142.79C102.001 142.79 102.175 142.74 102.275 142.64C102.381 142.54 102.435 142.35 102.435 142.07V136.37C102.435 136.07 102.388 135.85 102.295 135.71C102.201 135.563 102.021 135.49 101.755 135.49V135.28C101.968 135.3 102.175 135.31 102.375 135.31C102.628 135.31 102.865 135.3 103.085 135.28C103.305 135.253 103.508 135.217 103.695 135.17ZM105.092 135.28H107.002V144.81H105.092V144.62H105.742V135.47H105.092V135.28Z" fill="black"/>
</svg>
