<svg width="1267" height="88" viewBox="0 0 1267 88" fill="none" xmlns="http://www.w3.org/2000/svg">
<path d="M72.584 1.52V86H54.92V1.52H72.584ZM17.672 1.52V86H0.00800037V1.52H17.672ZM64.136 36.208V50.416H8.84V36.208H64.136ZM118.953 0.239998C127.316 0.239998 134.526 1.98933 140.585 5.488C146.644 8.98667 151.294 13.9787 154.537 20.464C157.865 26.9493 159.529 34.7147 159.529 43.76C159.529 52.8053 157.865 60.5707 154.537 67.056C151.294 73.5413 146.644 78.5333 140.585 82.032C134.526 85.5307 127.316 87.28 118.953 87.28C110.59 87.28 103.337 85.5307 97.193 82.032C91.1343 78.5333 86.441 73.5413 83.113 67.056C79.8703 60.5707 78.249 52.8053 78.249 43.76C78.249 34.7147 79.8703 26.9493 83.113 20.464C86.441 13.9787 91.1343 8.98667 97.193 5.488C103.337 1.98933 110.59 0.239998 118.953 0.239998ZM118.953 14.704C114.174 14.704 110.121 15.8133 106.793 18.032C103.465 20.2507 100.905 23.536 99.113 27.888C97.4063 32.1547 96.553 37.4453 96.553 43.76C96.553 49.9893 97.4063 55.28 99.113 59.632C100.905 63.984 103.465 67.2693 106.793 69.488C110.121 71.7067 114.174 72.816 118.953 72.816C123.646 72.816 127.657 71.7067 130.985 69.488C134.313 67.2693 136.83 63.984 138.537 59.632C140.329 55.28 141.225 49.9893 141.225 43.76C141.225 37.4453 140.329 32.1547 138.537 27.888C136.83 23.536 134.313 20.2507 130.985 18.032C127.657 15.8133 123.646 14.704 118.953 14.704ZM182.852 71.792H227.396V86H165.188V1.52H182.852V71.792ZM262.543 1.52C275.77 1.52 286.01 5.18933 293.263 12.528C300.516 19.7813 304.143 30.192 304.143 43.76C304.143 57.2427 300.516 67.6533 293.263 74.992C286.01 82.3307 275.77 86 262.543 86H229.903V1.52H262.543ZM261.647 71.92C269.668 71.92 275.684 69.5307 279.695 64.752C283.791 59.888 285.839 52.8907 285.839 43.76C285.839 34.6293 283.791 27.6747 279.695 22.896C275.684 18.032 269.668 15.6 261.647 15.6H247.567V71.92H261.647ZM373.188 0.239998C381.551 0.239998 388.761 1.98933 394.82 5.488C400.879 8.98667 405.529 13.9787 408.772 20.464C412.1 26.9493 413.764 34.7147 413.764 43.76C413.764 52.8053 412.1 60.5707 408.772 67.056C405.529 73.5413 400.879 78.5333 394.82 82.032C388.761 85.5307 381.551 87.28 373.188 87.28C364.825 87.28 357.572 85.5307 351.428 82.032C345.369 78.5333 340.676 73.5413 337.348 67.056C334.105 60.5707 332.484 52.8053 332.484 43.76C332.484 34.7147 334.105 26.9493 337.348 20.464C340.676 13.9787 345.369 8.98667 351.428 5.488C357.572 1.98933 364.825 0.239998 373.188 0.239998ZM373.188 14.704C368.409 14.704 364.356 15.8133 361.028 18.032C357.7 20.2507 355.14 23.536 353.348 27.888C351.641 32.1547 350.788 37.4453 350.788 43.76C350.788 49.9893 351.641 55.28 353.348 59.632C355.14 63.984 357.7 67.2693 361.028 69.488C364.356 71.7067 368.409 72.816 373.188 72.816C377.881 72.816 381.892 71.7067 385.22 69.488C388.548 67.2693 391.065 63.984 392.772 59.632C394.564 55.28 395.46 49.9893 395.46 43.76C395.46 37.4453 394.564 32.1547 392.772 27.888C391.065 23.536 388.548 20.2507 385.22 18.032C381.892 15.8133 377.881 14.704 373.188 14.704ZM491.999 1.52V86H471.775L442.207 36.336L434.911 22.512H434.783L435.295 37.104V86H419.423V1.52H439.519L469.087 51.056L476.383 65.008H476.639L476.127 50.416V1.52H491.999ZM593.044 1.52V15.728H564.756V86H547.092V15.728H518.676V1.52H593.044ZM628.548 0.239998C636.911 0.239998 644.121 1.98933 650.18 5.488C656.239 8.98667 660.889 13.9787 664.132 20.464C667.46 26.9493 669.124 34.7147 669.124 43.76C669.124 52.8053 667.46 60.5707 664.132 67.056C660.889 73.5413 656.239 78.5333 650.18 82.032C644.121 85.5307 636.911 87.28 628.548 87.28C620.185 87.28 612.932 85.5307 606.788 82.032C600.729 78.5333 596.036 73.5413 592.708 67.056C589.465 60.5707 587.844 52.8053 587.844 43.76C587.844 34.7147 589.465 26.9493 592.708 20.464C596.036 13.9787 600.729 8.98667 606.788 5.488C612.932 1.98933 620.185 0.239998 628.548 0.239998ZM628.548 14.704C623.769 14.704 619.716 15.8133 616.388 18.032C613.06 20.2507 610.5 23.536 608.708 27.888C607.001 32.1547 606.148 37.4453 606.148 43.76C606.148 49.9893 607.001 55.28 608.708 59.632C610.5 63.984 613.06 67.2693 616.388 69.488C619.716 71.7067 623.769 72.816 628.548 72.816C633.241 72.816 637.252 71.7067 640.58 69.488C643.908 67.2693 646.425 63.984 648.132 59.632C649.924 55.28 650.82 49.9893 650.82 43.76C650.82 37.4453 649.924 32.1547 648.132 27.888C646.425 23.536 643.908 20.2507 640.58 18.032C637.252 15.8133 633.241 14.704 628.548 14.704ZM765.939 1.52V15.728H737.651V86H719.987V15.728H691.571V1.52H765.939ZM840.789 1.52V86H823.125V1.52H840.789ZM785.877 1.52V86H768.213V1.52H785.877ZM832.341 36.208V50.416H777.045V36.208H832.341ZM850.678 86V1.52H914.038V15.728H868.342V36.72H904.31V50.288H868.342V71.792H915.83V86H850.678ZM981.171 87.28C973.406 87.28 966.579 85.5733 960.691 82.16C954.888 78.7467 950.366 73.7973 947.123 67.312C943.88 60.8267 942.259 53.0187 942.259 43.888C942.259 34.8427 943.966 27.0773 947.379 20.592C950.792 14.0213 955.614 8.98667 961.843 5.488C968.158 1.98933 975.454 0.239998 983.731 0.239998C992.862 0.239998 1000.24 1.94666 1005.87 5.35999C1011.51 8.688 1015.99 13.8933 1019.31 20.976L1002.93 28.016C1001.57 23.4933 999.219 20.1653 995.891 18.032C992.648 15.8133 988.638 14.704 983.859 14.704C979.08 14.704 974.942 15.856 971.443 18.16C967.944 20.3787 965.256 23.664 963.379 28.016C961.502 32.2827 960.563 37.5307 960.563 43.76C960.563 50.16 961.459 55.5787 963.251 60.016C965.043 64.368 967.688 67.6533 971.187 69.872C974.771 72.0053 979.166 73.072 984.371 73.072C987.187 73.072 989.79 72.7307 992.179 72.048C994.654 71.3653 996.787 70.3413 998.579 68.976C1000.37 67.6107 1001.78 65.8613 1002.8 63.728C1003.83 61.5947 1004.34 59.12 1004.34 56.304V54.384H982.195V41.456H1019.57V86H1007.15L1005.87 67.568L1008.95 69.744C1007.07 75.376 1003.74 79.728 998.963 82.8C994.27 85.7867 988.339 87.28 981.171 87.28ZM1063.3 0.239998C1071.67 0.239998 1078.88 1.98933 1084.93 5.488C1090.99 8.98667 1095.64 13.9787 1098.89 20.464C1102.21 26.9493 1103.88 34.7147 1103.88 43.76C1103.88 52.8053 1102.21 60.5707 1098.89 67.056C1095.64 73.5413 1090.99 78.5333 1084.93 82.032C1078.88 85.5307 1071.67 87.28 1063.3 87.28C1054.94 87.28 1047.69 85.5307 1041.54 82.032C1035.48 78.5333 1030.79 73.5413 1027.46 67.056C1024.22 60.5707 1022.6 52.8053 1022.6 43.76C1022.6 34.7147 1024.22 26.9493 1027.46 20.464C1030.79 13.9787 1035.48 8.98667 1041.54 5.488C1047.69 1.98933 1054.94 0.239998 1063.3 0.239998ZM1063.3 14.704C1058.52 14.704 1054.47 15.8133 1051.14 18.032C1047.81 20.2507 1045.25 23.536 1043.46 27.888C1041.76 32.1547 1040.9 37.4453 1040.9 43.76C1040.9 49.9893 1041.76 55.28 1043.46 59.632C1045.25 63.984 1047.81 67.2693 1051.14 69.488C1054.47 71.7067 1058.52 72.816 1063.3 72.816C1068 72.816 1072.01 71.7067 1075.33 69.488C1078.66 67.2693 1081.18 63.984 1082.89 59.632C1084.68 55.28 1085.57 49.9893 1085.57 43.76C1085.57 37.4453 1084.68 32.1547 1082.89 27.888C1081.18 23.536 1078.66 20.2507 1075.33 18.032C1072.01 15.8133 1068 14.704 1063.3 14.704ZM1146.02 0.239998C1154.38 0.239998 1161.59 1.98933 1167.65 5.488C1173.71 8.98667 1178.36 13.9787 1181.6 20.464C1184.93 26.9493 1186.59 34.7147 1186.59 43.76C1186.59 52.8053 1184.93 60.5707 1181.6 67.056C1178.36 73.5413 1173.71 78.5333 1167.65 82.032C1161.59 85.5307 1154.38 87.28 1146.02 87.28C1137.66 87.28 1130.4 85.5307 1124.26 82.032C1118.2 78.5333 1113.51 73.5413 1110.18 67.056C1106.94 60.5707 1105.31 52.8053 1105.31 43.76C1105.31 34.7147 1106.94 26.9493 1110.18 20.464C1113.51 13.9787 1118.2 8.98667 1124.26 5.488C1130.4 1.98933 1137.66 0.239998 1146.02 0.239998ZM1146.02 14.704C1141.24 14.704 1137.19 15.8133 1133.86 18.032C1130.53 20.2507 1127.97 23.536 1126.18 27.888C1124.47 32.1547 1123.62 37.4453 1123.62 43.76C1123.62 49.9893 1124.47 55.28 1126.18 59.632C1127.97 63.984 1130.53 67.2693 1133.86 69.488C1137.19 71.7067 1141.24 72.816 1146.02 72.816C1150.71 72.816 1154.72 71.7067 1158.05 69.488C1161.38 67.2693 1163.9 63.984 1165.6 59.632C1167.39 55.28 1168.29 49.9893 1168.29 43.76C1168.29 37.4453 1167.39 32.1547 1165.6 27.888C1163.9 23.536 1161.38 20.2507 1158.05 18.032C1154.72 15.8133 1150.71 14.704 1146.02 14.704ZM1224.89 1.52C1238.12 1.52 1248.36 5.18933 1255.61 12.528C1262.87 19.7813 1266.49 30.192 1266.49 43.76C1266.49 57.2427 1262.87 67.6533 1255.61 74.992C1248.36 82.3307 1238.12 86 1224.89 86H1192.25V1.52H1224.89ZM1224 71.92C1232.02 71.92 1238.03 69.5307 1242.04 64.752C1246.14 59.888 1248.19 52.8907 1248.19 43.76C1248.19 34.6293 1246.14 27.6747 1242.04 22.896C1238.03 18.032 1232.02 15.6 1224 15.6H1209.92V71.92H1224Z" fill="white"/>
</svg>
