<svg width="1221" height="88" viewBox="0 0 1221 88" fill="none" xmlns="http://www.w3.org/2000/svg">
<path d="M72.584 1.52V86H54.92V1.52H72.584ZM17.672 1.52V86H0.00800037V1.52H17.672ZM64.136 36.208V50.416H8.84V36.208H64.136ZM116.393 0.239998C124.756 0.239998 131.966 1.98933 138.025 5.488C144.084 8.98667 148.734 13.9787 151.977 20.464C155.305 26.9493 156.969 34.7147 156.969 43.76C156.969 52.8053 155.305 60.5707 151.977 67.056C148.734 73.5413 144.084 78.5333 138.025 82.032C131.966 85.5307 124.756 87.28 116.393 87.28C108.03 87.28 100.777 85.5307 94.633 82.032C88.5743 78.5333 83.881 73.5413 80.553 67.056C77.3103 60.5707 75.689 52.8053 75.689 43.76C75.689 34.7147 77.3103 26.9493 80.553 20.464C83.881 13.9787 88.5743 8.98667 94.633 5.488C100.777 1.98933 108.03 0.239998 116.393 0.239998ZM116.393 14.704C111.614 14.704 107.561 15.8133 104.233 18.032C100.905 20.2507 98.345 23.536 96.553 27.888C94.8463 32.1547 93.993 37.4453 93.993 43.76C93.993 49.9893 94.8463 55.28 96.553 59.632C98.345 63.984 100.905 67.2693 104.233 69.488C107.561 71.7067 111.614 72.816 116.393 72.816C121.086 72.816 125.097 71.7067 128.425 69.488C131.753 67.2693 134.27 63.984 135.977 59.632C137.769 55.28 138.665 49.9893 138.665 43.76C138.665 37.4453 137.769 32.1547 135.977 27.888C134.27 23.536 131.753 20.2507 128.425 18.032C125.097 15.8133 121.086 14.704 116.393 14.704ZM177.732 71.792H222.276V86H160.068V1.52H177.732V71.792ZM254.863 1.52C268.09 1.52 278.33 5.18933 285.583 12.528C292.836 19.7813 296.463 30.192 296.463 43.76C296.463 57.2427 292.836 67.6533 285.583 74.992C278.33 82.3307 268.09 86 254.863 86H222.223V1.52H254.863ZM253.967 71.92C261.988 71.92 268.004 69.5307 272.015 64.752C276.111 59.888 278.159 52.8907 278.159 43.76C278.159 34.6293 276.111 27.6747 272.015 22.896C268.004 18.032 261.988 15.6 253.967 15.6H239.887V71.92H253.967ZM360.388 0.239998C368.751 0.239998 375.961 1.98933 382.02 5.488C388.079 8.98667 392.729 13.9787 395.972 20.464C399.3 26.9493 400.964 34.7147 400.964 43.76C400.964 52.8053 399.3 60.5707 395.972 67.056C392.729 73.5413 388.079 78.5333 382.02 82.032C375.961 85.5307 368.751 87.28 360.388 87.28C352.025 87.28 344.772 85.5307 338.628 82.032C332.569 78.5333 327.876 73.5413 324.548 67.056C321.305 60.5707 319.684 52.8053 319.684 43.76C319.684 34.7147 321.305 26.9493 324.548 20.464C327.876 13.9787 332.569 8.98667 338.628 5.488C344.772 1.98933 352.025 0.239998 360.388 0.239998ZM360.388 14.704C355.609 14.704 351.556 15.8133 348.228 18.032C344.9 20.2507 342.34 23.536 340.548 27.888C338.841 32.1547 337.988 37.4453 337.988 43.76C337.988 49.9893 338.841 55.28 340.548 59.632C342.34 63.984 344.9 67.2693 348.228 69.488C351.556 71.7067 355.609 72.816 360.388 72.816C365.081 72.816 369.092 71.7067 372.42 69.488C375.748 67.2693 378.265 63.984 379.972 59.632C381.764 55.28 382.66 49.9893 382.66 43.76C382.66 37.4453 381.764 32.1547 379.972 27.888C378.265 23.536 375.748 20.2507 372.42 18.032C369.092 15.8133 365.081 14.704 360.388 14.704ZM476.639 1.52V86H456.415L426.847 36.336L419.551 22.512H419.423L419.935 37.104V86H404.063V1.52H424.159L453.727 51.056L461.023 65.008H461.279L460.767 50.416V1.52H476.639ZM572.564 1.52V15.728H544.276V86H526.612V15.728H498.196V1.52H572.564ZM605.508 0.239998C613.871 0.239998 621.081 1.98933 627.14 5.488C633.199 8.98667 637.849 13.9787 641.092 20.464C644.42 26.9493 646.084 34.7147 646.084 43.76C646.084 52.8053 644.42 60.5707 641.092 67.056C637.849 73.5413 633.199 78.5333 627.14 82.032C621.081 85.5307 613.871 87.28 605.508 87.28C597.145 87.28 589.892 85.5307 583.748 82.032C577.689 78.5333 572.996 73.5413 569.668 67.056C566.425 60.5707 564.804 52.8053 564.804 43.76C564.804 34.7147 566.425 26.9493 569.668 20.464C572.996 13.9787 577.689 8.98667 583.748 5.488C589.892 1.98933 597.145 0.239998 605.508 0.239998ZM605.508 14.704C600.729 14.704 596.676 15.8133 593.348 18.032C590.02 20.2507 587.46 23.536 585.668 27.888C583.961 32.1547 583.108 37.4453 583.108 43.76C583.108 49.9893 583.961 55.28 585.668 59.632C587.46 63.984 590.02 67.2693 593.348 69.488C596.676 71.7067 600.729 72.816 605.508 72.816C610.201 72.816 614.212 71.7067 617.54 69.488C620.868 67.2693 623.385 63.984 625.092 59.632C626.884 55.28 627.78 49.9893 627.78 43.76C627.78 37.4453 626.884 32.1547 625.092 27.888C623.385 23.536 620.868 20.2507 617.54 18.032C614.212 15.8133 610.201 14.704 605.508 14.704ZM737.779 1.52V15.728H709.491V86H691.827V15.728H663.411V1.52H737.779ZM810.069 1.52V86H792.405V1.52H810.069ZM755.157 1.52V86H737.493V1.52H755.157ZM801.621 36.208V50.416H746.325V36.208H801.621ZM817.398 86V1.52H880.758V15.728H835.062V36.72H871.03V50.288H835.062V71.792H882.55V86H817.398ZM942.771 87.28C935.006 87.28 928.179 85.5733 922.291 82.16C916.488 78.7467 911.966 73.7973 908.723 67.312C905.48 60.8267 903.859 53.0187 903.859 43.888C903.859 34.8427 905.566 27.0773 908.979 20.592C912.392 14.0213 917.214 8.98667 923.443 5.488C929.758 1.98933 937.054 0.239998 945.331 0.239998C954.462 0.239998 961.843 1.94666 967.475 5.35999C973.107 8.688 977.587 13.8933 980.915 20.976L964.531 28.016C963.166 23.4933 960.819 20.1653 957.491 18.032C954.248 15.8133 950.238 14.704 945.459 14.704C940.68 14.704 936.542 15.856 933.043 18.16C929.544 20.3787 926.856 23.664 924.979 28.016C923.102 32.2827 922.163 37.5307 922.163 43.76C922.163 50.16 923.059 55.5787 924.851 60.016C926.643 64.368 929.288 67.6533 932.787 69.872C936.371 72.0053 940.766 73.072 945.971 73.072C948.787 73.072 951.39 72.7307 953.779 72.048C956.254 71.3653 958.387 70.3413 960.179 68.976C961.971 67.6107 963.379 65.8613 964.403 63.728C965.427 61.5947 965.939 59.12 965.939 56.304V54.384H943.795V41.456H981.171V86H968.755L967.475 67.568L970.547 69.744C968.67 75.376 965.342 79.728 960.563 82.8C955.87 85.7867 949.939 87.28 942.771 87.28ZM1022.34 0.239998C1030.71 0.239998 1037.92 1.98933 1043.97 5.488C1050.03 8.98667 1054.68 13.9787 1057.93 20.464C1061.25 26.9493 1062.92 34.7147 1062.92 43.76C1062.92 52.8053 1061.25 60.5707 1057.93 67.056C1054.68 73.5413 1050.03 78.5333 1043.97 82.032C1037.92 85.5307 1030.71 87.28 1022.34 87.28C1013.98 87.28 1006.73 85.5307 1000.58 82.032C994.524 78.5333 989.831 73.5413 986.503 67.056C983.26 60.5707 981.639 52.8053 981.639 43.76C981.639 34.7147 983.26 26.9493 986.503 20.464C989.831 13.9787 994.524 8.98667 1000.58 5.488C1006.73 1.98933 1013.98 0.239998 1022.34 0.239998ZM1022.34 14.704C1017.56 14.704 1013.51 15.8133 1010.18 18.032C1006.85 20.2507 1004.29 23.536 1002.5 27.888C1000.8 32.1547 999.943 37.4453 999.943 43.76C999.943 49.9893 1000.8 55.28 1002.5 59.632C1004.29 63.984 1006.85 67.2693 1010.18 69.488C1013.51 71.7067 1017.56 72.816 1022.34 72.816C1027.04 72.816 1031.05 71.7067 1034.37 69.488C1037.7 67.2693 1040.22 63.984 1041.93 59.632C1043.72 55.28 1044.61 49.9893 1044.61 43.76C1044.61 37.4453 1043.72 32.1547 1041.93 27.888C1040.22 23.536 1037.7 20.2507 1034.37 18.032C1031.05 15.8133 1027.04 14.704 1022.34 14.704ZM1102.5 0.239998C1110.86 0.239998 1118.07 1.98933 1124.13 5.488C1130.19 8.98667 1134.84 13.9787 1138.08 20.464C1141.41 26.9493 1143.07 34.7147 1143.07 43.76C1143.07 52.8053 1141.41 60.5707 1138.08 67.056C1134.84 73.5413 1130.19 78.5333 1124.13 82.032C1118.07 85.5307 1110.86 87.28 1102.5 87.28C1094.14 87.28 1086.88 85.5307 1080.74 82.032C1074.68 78.5333 1069.99 73.5413 1066.66 67.056C1063.42 60.5707 1061.79 52.8053 1061.79 43.76C1061.79 34.7147 1063.42 26.9493 1066.66 20.464C1069.99 13.9787 1074.68 8.98667 1080.74 5.488C1086.88 1.98933 1094.14 0.239998 1102.5 0.239998ZM1102.5 14.704C1097.72 14.704 1093.67 15.8133 1090.34 18.032C1087.01 20.2507 1084.45 23.536 1082.66 27.888C1080.95 32.1547 1080.1 37.4453 1080.1 43.76C1080.1 49.9893 1080.95 55.28 1082.66 59.632C1084.45 63.984 1087.01 67.2693 1090.34 69.488C1093.67 71.7067 1097.72 72.816 1102.5 72.816C1107.19 72.816 1111.2 71.7067 1114.53 69.488C1117.86 67.2693 1120.38 63.984 1122.08 59.632C1123.87 55.28 1124.77 49.9893 1124.77 43.76C1124.77 37.4453 1123.87 32.1547 1122.08 27.888C1120.38 23.536 1117.86 20.2507 1114.53 18.032C1111.2 15.8133 1107.19 14.704 1102.5 14.704ZM1178.81 1.52C1192.04 1.52 1202.28 5.18933 1209.53 12.528C1216.79 19.7813 1220.41 30.192 1220.41 43.76C1220.41 57.2427 1216.79 67.6533 1209.53 74.992C1202.28 82.3307 1192.04 86 1178.81 86H1146.17V1.52H1178.81ZM1177.92 71.92C1185.94 71.92 1191.95 69.5307 1195.97 64.752C1200.06 59.888 1202.11 52.8907 1202.11 43.76C1202.11 34.6293 1200.06 27.6747 1195.97 22.896C1191.95 18.032 1185.94 15.6 1177.92 15.6H1163.84V71.92H1177.92Z" fill="white"/>
</svg>
